<?xml version="1.0" standalone="no"?>
<!DOCTYPE svg PUBLIC "-//W3C//DTD SVG 1.1//EN" "http://www.w3.org/Graphics/SVG/1.1/DTD/svg11.dtd" >
<svg>
<metadata>
Created by FontForge 20090914 at Wed Aug 24 11:17:25 2016
 By www-data
GARDEN computer fonts v1.0 &#194;&#169; 2006 Harold Lohner &#226;&#128;&#162; HLohner@aol.com &#226;&#128;&#162; www.haroldsfonts.com
</metadata>
<defs>
<font id="GardenEmpty" horiz-adv-x="671" >
  <font-face 
    font-family="GardenEmpty"
    font-weight="400"
    font-stretch="normal"
    units-per-em="1000"
    panose-1="0 0 4 0 0 0 0 0 0 0"
    ascent="800"
    descent="-200"
    x-height="690"
    cap-height="686.001"
    bbox="-54.002 -212 1938 1060"
    underline-thickness="20"
    underline-position="-123"
    unicode-range="U+0020-U+F000"
  />
<missing-glyph horiz-adv-x="500" 
d="M63 0v1060h375v-1060h-375zM125 63h250v935h-250v-935z" />
    <glyph glyph-name=".notdef" horiz-adv-x="500" 
d="M63 0v1060h375v-1060h-375zM125 63h250v935h-250v-935z" />
    <glyph glyph-name="space" unicode=" " horiz-adv-x="438" 
 />
    <glyph glyph-name="exclam" unicode="!" horiz-adv-x="297" 
d="M185 155c30 -0.666992 44.999 -21.001 44.999 -61.001c0 -6.66699 -0.333008 -16.667 -1 -30s-1 -22.666 -1 -27.999c0 -36.667 -6.33301 -55 -19 -55l-9 2l-1 -1c-73.333 0 -110.666 0.333008 -111.999 1c-4 -1.33301 -7.33301 -2 -10 -2c-14.667 0 -22 16 -22 48v78
c0 24 6.66699 38.667 20 44c6 2.66699 24.333 4 55 4h55zM54.999 542.999c0 14 0.333008 34.667 1 62v62c0 12 6 18 18 18h134c12 0 18 -6.66699 18 -20s0.333008 -33.333 1 -60v-60c0 -28.667 -4.66699 -87.334 -14 -176.001
c-10.667 -97.333 -19.5 -149.666 -26.5 -156.999s-16.5 -11 -28.5 -11h-36c-14.667 2 -23.167 8.33301 -25.5 19s-4.83301 27 -7.5 49c-22.667 136.667 -34 228 -34 274z" />
    <glyph glyph-name="quotedbl" unicode="&#x22;" horiz-adv-x="455" 
d="M48 643l2.00098 4.99805l-2 2c5.33301 26 12.5 43.833 21.5 53.5s26.167 17.5 51.5 23.5l2 5l3 -5c22.667 0 40.334 -3.66699 53.001 -11l3 3l-1 -5c22 -13.333 33 -33 33 -59c0 -70.667 -15 -157.667 -45 -261c-3.33301 -13.333 -17 -20 -41 -20
c-14.667 0 -24.667 3.66699 -30 11c-3.33301 4.66699 -9.33301 29.834 -18 75.501s-13.334 73.834 -14.001 84.501c-4.66699 10.667 -8.33398 26.667 -11.001 48c-4 29.333 -6.33301 46 -7 50zM241.001 636.998l1 5c-1.33301 2 -2 4.33301 -2 7
c0 41.333 24.333 67.333 73 78v5l4 -5c25.333 0 46.333 -5.66699 63 -17c20 -13.333 28.333 -32.333 25 -57l2 -2c-12 -78 -28 -165 -48 -261c-4.66699 -10.667 -15 -16 -31 -16c-23.333 0 -37 5.66699 -41 17c-14 44 -29.333 126 -46 246z" />
    <glyph glyph-name="numbersign" unicode="#" horiz-adv-x="616" 
d="M571 402l2 -2.00098l-2 -4l2 -2l-2 -5l2 -2c-2.66699 -18.667 -24 -28 -64 -28c-8.66699 0 -19.667 0.5 -33 1.5s-21.333 1.5 -24 1.5l-5 -4l-5 -30l3 -5c9.33301 0 23.666 0.333008 42.999 1h43c15.333 0 23 -19.333 23 -58c0 -30 -0.333008 -48 -1 -54
c-4.66699 -22 -16 -31.333 -34 -28c0 -1.33301 -5.66699 -2 -17 -2c-46.667 0 -72.667 -1 -78 -3l-14 -106c-8 -54.667 -16.667 -83.334 -26 -86.001c-11.333 -3.33301 -34 -5 -68 -5c-40 0 -60 7.33301 -60 22c0 24 3 53.333 9 88c10 56 15 85 15 87l-3 3
c-6.66699 0.666992 -17 1.33398 -31 2.00098l-6 -3c-4 -41.333 -12.667 -102 -26 -182c-3.33301 -12 -23.333 -18 -60 -18c-26 0 -42 0.333008 -48 1c-20 2.66699 -32 10 -36 22l23 175l-4 5c-3.33301 -1.33301 -7.33301 -2 -12 -2c-44 0 -64.667 0 -62 0l-5 2l-1 -2
c-16.667 2.66699 -25 19 -25 49c0 34 1.66699 62 5 84l7 9l5 -3c9.33301 2.66699 19.666 4 30.999 4c6.66699 0 16.834 -0.5 30.501 -1.5s23.834 -1.5 30.501 -1.5c11.333 0 18.333 2.16699 21 6.5s4 12.166 4 23.499l-4 8c-8 2 -17.667 2.66699 -29 2l-29 -2
c-34.667 0 -52 17 -52 51c0 50.667 5.33301 81 16 91c18.667 0.666992 46.667 1 84 1l29 1l5 3l10 97c7.33301 51.333 17 78.333 29 81c9.33301 2 28.333 3 57 3c48 0 72 -7.66699 72 -23c0 -20.667 -3 -47 -9 -79c-8 -44 -12.667 -70.333 -14 -79
c5.33301 -2.66699 11 -4 17 -4c4 0 11.333 0.666992 22 2c3.33301 37.333 11 92 23 164c2 8.66699 8 13.834 18 15.501s29 2.5 57 2.5c23.333 0 41.333 -0.666992 54 -2c10 -7.33301 15 -15 15 -23c0 -21.333 -2.66699 -47 -8 -77c-4 -25.333 -8.33301 -50.666 -13 -75.999
l3 -5c-6 0 15.667 0 65 0c18.667 0 30 -5 34 -15l-1 -33c0 -6.66699 0.333008 -15.667 1 -27c0.666992 -13.333 1 -22.333 1 -27zM304 359.999c-13.333 2 -21 3 -23 3c-8 0 -14.333 -2 -19 -6l-4 -29l3 -5l11 -1l23 1l5 3c0 2 1.33301 13.333 4 34z" />
    <glyph glyph-name="dollar" unicode="$" horiz-adv-x="638" 
d="M45 520c0 36.667 13.001 71 39.001 103c22.667 28.667 52 51.334 88 68.001c16 4.66699 39.333 12.334 70 23.001l-1 50c0 22.667 2.16699 37.167 6.5 43.5s16.833 9.5 37.5 9.5c42.667 0 69 -2 79 -6s15 -15.333 15 -34c0 -4 -0.333008 -12.667 -1 -26
s-1 -24.666 -1 -33.999l4 -5c24.667 -4.66699 52 -13.334 82 -26.001c38 -16 61.333 -31 70 -45c32 -17.333 48 -34.666 48 -51.999c0 -8.66699 -16.833 -26.5 -50.5 -53.5s-55.5 -40.5 -65.5 -40.5c-3.33301 0 -16 8.66699 -38 26c-24 18.667 -39.333 29 -46 31
c-3.33301 -3.33301 -5 -15.666 -5 -36.999c0 -5.33301 0.333008 -13 1 -23v-24l4 -4c62 -8 111.667 -30 149 -66c40 -39.333 60 -89.333 60 -150s-20.333 -110.334 -61 -149.001c-36.667 -35.333 -86 -59.333 -148 -72l-4 -5l1 -49c0 -24 -1.66699 -39 -5 -45
c-5.33301 -9.33301 -18.333 -14 -39 -14c-40.667 0 -66.5 2.66699 -77.5 8s-16.5 17.666 -16.5 36.999c0 4 0.333008 13.333 1 28s1 27 1 37l-4 5c-56 17.333 -86.333 26.666 -91 27.999c-31.333 13.333 -56.333 32 -75 56c-7.33301 3.33301 -16.5 11.833 -27.5 25.5
s-16.5 24.167 -16.5 31.5c0 8.66699 17.667 27.334 53 56.001s58 43 68 43c8 0 15.333 -4 22 -12c21.333 -28.667 43.666 -49.334 66.999 -62.001c2.66699 3.33301 4 29 4 77v36c-2 4 -7 6.66699 -15 8c-52 10 -90.667 24.667 -116 44c-44 33.333 -66 86.666 -66 159.999z
M219.001 519c0 -13.333 6 -22 18 -26l5 3v14v7v31l-4 2c-4 0 -8.16699 -4 -12.5 -12s-6.5 -14.333 -6.5 -19zM397.001 279c-2.66699 2 -6.66699 4 -12 6l-8 -2v-88l5 -3c22 7.33301 33 23.333 33 48c0 8 -6 21 -18 39z" />
    <glyph glyph-name="percent" unicode="%" horiz-adv-x="924" 
d="M464 446c2.66699 4 25.6689 44 69.002 120c37.333 66 60.166 99.833 68.499 101.5s24.5 2.5 48.5 2.5c26 0 39 -8 39 -24c0 -10 -24.667 -57.333 -74 -142l-93 -157l-207 -359c-8 -5.33301 -23.333 -8 -46 -8c-34 0 -51 8.66699 -51 26c0 9.33301 54.667 107.333 164 294
l45 73c21.333 34.667 33.666 59 36.999 73zM199.002 197c-66 0 -117 25.001 -153 75.001c-31.333 44 -47 100.333 -47 169c0 64.667 17 118.667 51 162c36.667 47.333 86.667 71 150 71c61.333 0 109.333 -24 144 -72c30.667 -42.667 46 -96 46 -160
c0 -66.667 -15 -122.334 -45 -167.001c-34 -52 -82.667 -78 -146 -78zM566.002 381.001c8.66699 20 29.667 36.333 63 49c28 10.667 55.333 16 82 16c46.667 0 86.834 -15.833 120.501 -47.5s54.167 -70.834 61.5 -117.501c0.666992 -12 2 -29.333 4 -52l-1 -5
c4.66699 -72 -8.33301 -131 -39 -177c-34.667 -51.333 -87.334 -77 -158.001 -77c-62 0 -110 24 -144 72c-30 42.667 -45 96.334 -45 161.001c0 84.667 18.667 144 56 178zM764.002 198.001c0 83.333 -18.668 125 -56.001 125c-11.333 0 -22.666 -3.33301 -33.999 -10
c-18.667 -28 -28 -62.333 -28 -103c0 -78 20 -117 60 -117c21.333 0 37 13 47 39c7.33301 18.667 11 40.667 11 66zM253.001 444.001c0 71.333 -18 106.999 -54 106.999c-40.667 0 -61 -44.333 -61 -133c0 -23.333 4 -43.666 12 -60.999c10 -23.333 25 -35 45 -35
c26 0 43.333 15 52 45c4 16 6 41.667 6 77z" />
    <glyph glyph-name="ampersand" unicode="&#x26;" horiz-adv-x="664" 
d="M302 503c0 -10.667 2.66699 -21.334 8 -32.001l5 -4c24.667 10.667 37 23.334 37 38.001c0 16 -7.66699 24 -23 24c-18 0 -27 -8.66699 -27 -26zM391 345l-2.99805 -5c4 -7.33301 18.333 -29 43 -65c7.33301 14 11.333 30.333 12 49
c0.666992 14.667 3.33398 24 8.00098 28c8 5.33301 27 8 57 8l88 -1c8 -9.33301 12 -18.333 12 -27c0 -22 -7.66699 -53.333 -23 -94c-14.667 -37.333 -29.334 -67 -44.001 -89c10.667 -6.66699 20.667 -10.334 30 -11.001c-12.667 0.666992 -2.33398 1 30.999 1
c11.333 0 18.333 -16 21 -48v-64c0 -21.333 -13.667 -34.666 -41 -39.999l-7 2c-4.66699 -1.33301 -12.667 -2 -24 -2c-6.66699 0 -11.334 0.666992 -14.001 2l-4 -2c-17.333 2 -38.5 8.66699 -63.5 20s-40.833 17.333 -47.5 18
c-2.66699 -1.33301 -25.334 -11.666 -68.001 -30.999c-20.667 -9.33301 -48 -14 -82 -14c-68 0 -125 20 -171 60c-48 42 -72 96.667 -72 164c0 42 12.167 81.833 36.5 119.5s55.833 65.167 94.5 82.5l3 5c-11.333 28 -17 55.667 -17 83c0 37.333 10 70.666 30 99.999
s47 51.333 81 66l2 5l4 -4c17.333 8.66699 38.333 13 63 13c20.667 0 38.334 -2.33301 53.001 -7l48 -20v0l8 -8l6 1l-1 -4c41.333 -32.667 62 -76 62 -130c0 -38.667 -10 -71 -30 -97c-15.333 -18.667 -42.333 -40 -81 -64zM270.002 225v3
c-6.66699 11.333 -17.334 25.333 -32.001 42c-10 -8 -19.833 -16.667 -29.5 -26s-14.5 -20.666 -14.5 -33.999c0 -22 7.83301 -40.5 23.5 -55.5s34.834 -22.5 57.501 -22.5c16.667 0 32.667 4 48 12v5c-11.333 17.333 -29 42.666 -53 75.999z" />
    <glyph glyph-name="quotesingle" unicode="'" horiz-adv-x="271" 
d="M216 640c-5.33301 -21.333 -11.999 -63.334 -19.999 -126.001c-6.66699 -52.667 -15.667 -94 -27 -124c-4.66699 -12.667 -16.667 -19 -36 -19c-21.333 0 -34 6.33301 -38 19c-12.667 36.667 -27.334 114.334 -44.001 233.001l2 4l-2 2l2 5
c-1.33301 5.33301 -2 10.666 -2 15.999c0 22.667 8.5 40.834 25.5 54.501s37.5 20.5 61.5 20.5s43.333 -7.83301 58 -23.5s20.667 -35.5 18 -59.5z" />
    <glyph glyph-name="parenleft" unicode="(" horiz-adv-x="397" 
d="M152 641c6 12.667 25.165 35.502 57.498 68.502s54.833 52.5 67.5 58.5l-2 4l5 -3c4.66699 4 10.334 6 17.001 6c8.66699 0 20.167 -9.16699 34.5 -27.5s21.5 -31.833 21.5 -40.5l-44 -61c-30.667 -42.667 -49 -71.667 -55 -87c-26.667 -67.333 -40 -141.333 -40 -222
c0 -116 24 -211.333 72 -286c1.33301 -0.666992 14 -16.334 38 -47.001c19.333 -24.667 29 -39.334 29 -44.001c0 -8.66699 -7.16699 -22.334 -21.5 -41.001s-25.5 -28 -33.5 -28c-11.333 0 -31.666 13.333 -60.999 40c-24 21.333 -42.667 40 -56 56
c-48.667 58.667 -83 110.334 -103 155.001c-25.333 54.667 -38 115.334 -38 182.001c0 93.333 19.667 172.666 59 237.999c8 14.667 16.333 29 25 43c12.667 20.667 22 32.667 28 36z" />
    <glyph glyph-name="parenright" unicode=")" horiz-adv-x="395" 
d="M353 340c0 -65.333 -18.667 -136.334 -56 -213.001c-34 -70 -76.333 -130.333 -127 -181l-5 -2c-34 -33.333 -56 -50 -66 -50c-9.33301 0 -21.5 9 -36.5 27s-22.5 31.667 -22.5 41c0 4 11 19.333 33 46c24.667 30 38.667 47.667 42 53c43.333 78 65 168.667 65 272
c0 93.333 -21.333 184.333 -64 273c-3.33301 6.66699 -17.333 25 -42 55c-22.667 26.667 -34 43.334 -34 50.001c0 8 7.83301 21.167 23.5 39.5s27.5 27.5 35.5 27.5c7.33301 0 16 -4.33301 26 -13c14.667 -12.667 22.667 -19.334 24 -20.001c8 -12 20.333 -26 37 -42
c26.667 -24.667 40.667 -37.667 42 -39l5 3l-4 -5c4 -8 12.167 -18.833 24.5 -32.5s20.5 -24.167 24.5 -31.5c8.66699 -13.333 20 -34 34 -62c27.333 -79.333 41 -144.666 41 -195.999z" />
    <glyph glyph-name="asterisk" unicode="*" horiz-adv-x="429" 
d="M377 666c0 -14 -10.6641 -24.001 -31.9971 -30.001c-24 -7.33301 -38 -14 -42 -20l26 -31c11.333 -14.667 17 -26 17 -34l-4 -9c-36 -34 -60.333 -51 -73 -51s-32 19.667 -58 59c-0.666992 -1.33301 -9.33398 -13 -26.001 -35c-12 -16 -22.333 -24 -31 -24
c-9.33301 0 -24.833 8.33301 -46.5 25s-32.5 29.334 -32.5 38.001c0 7.33301 5.33301 18 16 32l23 30l-42 14c-20 7.33301 -30 15.333 -30 24c0 16 4 34 12 54c9.33301 23.333 20.333 36 33 38c14 -4.66699 35 -11 63 -19c-0.666992 19.333 1 43 5 71
c4.66699 7.33301 14.667 11 30 11c44 0 68.167 -2 72.5 -6s7.16602 -27.667 8.49902 -71l5 -3c29.333 14.667 47.666 22 54.999 22c10 0 21 -11.333 33 -34s18 -39.667 18 -51z" />
    <glyph glyph-name="plus" unicode="+" horiz-adv-x="642" 
d="M610 339c0 -16 -4.33594 -25.001 -13.0029 -27.001c-22 -4.66699 -50.667 -6.33398 -86 -5.00098c-64 1.33301 -92.667 2 -86 2h-32l-5 -3c0.666992 13.333 1 -39 1 -157c0 -30.667 -2 -48.667 -6 -54s-21 -8 -51 -8c-36 0 -60 0.666992 -72 2
c-9.33301 1.33301 -14.666 7.33301 -15.999 18c-2.66699 19.333 -4 41 -4 65c0 16 0.5 38.833 1.5 68.5s1.5 50.834 1.5 63.501l-4 5c11.333 0 -42 0 -160 0c-23.333 0 -37.333 1 -42 3c-11.333 4 -17 15.333 -17 34c0 68.667 4.66699 104.334 14 107.001
c12 3.33301 41 4.66602 87 3.99902c70.667 -2 102.334 -3 95.001 -3l23 1l4 4c-0.666992 16.667 -1 44.667 -1 84c-0.666992 35.333 -1 63 -1 83c0 22.667 4.33301 38.334 13 47.001l-2 5c12 -2 26.667 -2.33301 44 -1c26.667 1.33301 41.334 2 44.001 2
c27.333 0 43.666 -8.33301 48.999 -25c2 -4.66699 3 -25.334 3 -62.001c0 -14.667 -0.666992 -36.667 -2 -66s-2 -51.666 -2 -66.999l3 -4c24 -0.666992 55 -0.666992 93 0c48.667 0.666992 79.334 1 92.001 1c22.667 0 34 -10 34 -30v-87z" />
    <glyph glyph-name="comma" unicode="," horiz-adv-x="298" 
d="M79 -87c-16 0 -24.001 17 -24.001 51c0 26 4 43.333 12 52c2.66699 2.66699 10.334 5.66699 23.001 9c9.33301 2 14.666 8.33301 15.999 19l-3 5l-14 -1c-23.333 0 -35 14.333 -35 43v80c0 23.333 7 37.666 21 42.999c5.33301 1.33301 23.333 2 54 2h50
c25.333 0 41 -5 47 -15c3.33301 -6 5 -23.667 5 -53c0 -69.333 -8.33301 -121.666 -25 -156.999c-23.333 -52 -65.666 -78 -126.999 -78z" />
    <glyph glyph-name="hyphen" unicode="-" horiz-adv-x="388" 
d="M229 496c62 0 92.999 -6.66699 92.999 -20v-83c0 -20.667 -2.66699 -34.667 -8 -42c-6.66699 -9.33301 -20 -14 -40 -14h-84c-37.333 -0.666992 -65.333 -1 -84 -1c-26.667 0 -42.667 10 -48 30c-2 6.66699 -3 28.667 -3 66c0 28.667 3.33301 46.5 10 53.5
s23.334 10.5 50.001 10.5h114z" />
    <glyph glyph-name="hyphen" unicode="&#x2010;" horiz-adv-x="388" 
d="M229 496c62 0 92.999 -6.66699 92.999 -20v-83c0 -20.667 -2.66699 -34.667 -8 -42c-6.66699 -9.33301 -20 -14 -40 -14h-84c-37.333 -0.666992 -65.333 -1 -84 -1c-26.667 0 -42.667 10 -48 30c-2 6.66699 -3 28.667 -3 66c0 28.667 3.33301 46.5 10 53.5
s23.334 10.5 50.001 10.5h114z" />
    <glyph glyph-name="period" unicode="." horiz-adv-x="294" 
d="M228 24c-0.666992 -22.667 -13.332 -36.333 -37.999 -41c-6.66699 -2 -28.334 -3 -65.001 -3c-34.667 0 -56 8.66699 -64 26c-4 8.66699 -6 33 -6 73c0 40.667 5.66699 65 17 73l-1 5l4 -3c15.333 1.33301 59 2 131 2c14.667 0 22 -16 22 -48v-84z" />
    <glyph glyph-name="slash" unicode="/" horiz-adv-x="351" 
d="M245 683c35.333 -0.666992 53 -7.99902 53 -21.999c0 -32.667 -7.66699 -82.667 -23 -150l-37 -153c-1.33301 -6.66699 -11.333 -67.334 -30 -182.001c-12.667 -76.667 -25.667 -135.667 -39 -177c-4.66699 -14 -19.667 -21 -45 -21h-49c-35.333 0 -53 7.33301 -53 22
c0 31.333 8 81.333 24 150l36 153c3.33301 15.333 13.666 76 30.999 182c12.667 78 25.334 137 38.001 177c4.66699 14 19.667 21 45 21h49z" />
    <glyph glyph-name="zero" unicode="0" horiz-adv-x="654" 
d="M434 353c0 48 -6.33301 88.667 -19 122c-18 46.667 -47.333 70 -88 70c-76 0 -114 -73.333 -114 -220c0 -45.333 7.66699 -84 23 -116c19.333 -41.333 49 -62 89 -62c72.667 0 109 68.667 109 206zM606 409c0 -126 -16.332 -221.666 -48.999 -286.999
c-44.667 -91.333 -123.334 -137 -236.001 -137c-92 0 -164 36 -216 108c-46.667 64 -70 144 -70 240c0 103.333 21.667 187.666 65 252.999c50.667 76.667 125 115 223 115c80.667 0 148 -28.5 202 -85.5s81 -125.833 81 -206.5z" />
    <glyph glyph-name="one" unicode="1" horiz-adv-x="482" 
d="M88 536l5.00098 4.00098c0 17.333 18.333 28 55 32c47.333 4.66699 76.333 11 87 19c5.33301 4 15 19.667 29 47c13.333 24.667 21.666 37 24.999 37c8 0 20.333 0.333008 37 1s29 1 37 1c20.667 0 35.5 -1.66699 44.5 -5s14.5 -20 16.5 -50v-62v-505
c0 -32 -2 -51.333 -6 -58c-6.66699 -11.333 -24 -17 -52 -17c-10 0 -22.667 -0.333008 -38 -1h-30c-24 0 -39.833 5.83301 -47.5 17.5s-11.5 38.167 -11.5 79.5c0 30 0.666992 74.667 2 134s2 104 2 134c0 48 -3 75.333 -9 82c-15.333 3.33301 -30.333 4.66602 -45 3.99902
h-55l-4 -3h-11c-22 -1.33301 -33 17 -33 55c0 28.667 0.666992 46.667 2 54z" />
    <glyph glyph-name="two" unicode="2" horiz-adv-x="595" 
d="M351 451c0 22 -7.16602 39.833 -21.499 53.5s-32.833 20.5 -55.5 20.5c-34 0 -56.333 -13.667 -67 -41c-4.66699 -10.667 -8.33398 -36 -11.001 -76c-2 -28 -9.66699 -42 -23 -42c-12 0 -36.333 2.66699 -73 8c-40 5.33301 -61.667 9.66602 -65 12.999
c-6.66699 8 -10 20.667 -10 38c0 88.667 21 153.667 63 195s107.333 62 196 62c74.667 0 134.667 -19.667 180 -59c48.667 -42 73 -99.667 73 -173c0 -75.333 -36.667 -148.333 -110 -219c-21.333 -20.667 -37.666 -33 -48.999 -37c-20.667 -17.333 -40.667 -32 -60 -44
l5 -3c-12.667 0 54.666 0 201.999 0c14.667 0 22 -33.667 22 -101c0 -32 -6.66699 -53 -20 -63c-39.333 0 -105.666 -0.666992 -198.999 -2c-87.333 -2 -153.333 -3 -198 -3c-42.667 0 -67 0.666992 -73 2c-26 5.33301 -38.667 20 -38 44v95l4 7
c1.33301 1.33301 16.666 12 45.999 32l2 5l5 -2c36 24.667 65 46.334 87 65.001l5 1c68 58.667 106 92 114 100c46 46.667 69 88 69 124z" />
    <glyph glyph-name="three" unicode="3" horiz-adv-x="620" 
d="M381 486c0 18 -8.16797 32.3359 -24.501 43.0029s-33.833 16 -52.5 16c-30.667 0 -51.667 -10 -63 -30l-4 -3l-16 -46c-8.66699 -20.667 -18.334 -31 -29.001 -31c-7.33301 0 -30.666 4.33301 -69.999 13s-60.333 14.334 -63 17.001c-6.66699 6 -10 13 -10 21
c0 61.333 26.667 112.666 80 153.999c49.333 38 105.333 57 168 57c72 0 131.333 -16.333 178 -49c52.667 -37.333 79 -90.666 79 -159.999c0 -44.667 -17.333 -84.334 -52 -119.001v-5c50 -34 75 -84.333 75 -151c0 -74 -27.667 -132 -83 -174
c-49.333 -38 -112.333 -57 -189 -57c-74.667 0 -136.667 17.333 -186 52c-55.333 39.333 -83 94.666 -83 165.999v19c1.33301 10.667 23 19 65 25c31.333 5.33301 58.333 8 81 8c20.667 0 32 -10.667 34 -32c3.33301 -28.667 9 -47.334 17 -56.001
c18.667 -18 42.334 -27 71.001 -27c24 0 45.833 7.5 65.5 22.5s29.5 34.167 29.5 57.5c0 32 -14.333 53 -43 63c-10 4 -36.333 7.66699 -79 11c-30 2.66699 -46 10 -48 22s-3 39 -3 81c0 22.667 13.333 36 40 40l75 6c26.667 5.33301 40 20.666 40 45.999z" />
    <glyph glyph-name="four" unicode="4" horiz-adv-x="623" 
d="M313 388l-5 1l-2 -6l-76 -100l3 -5l40 -1l35 1l5 3c0.666992 13.333 1 28 1 44c0 12.667 -0.333008 33.667 -1 63zM487 283l2.99902 -5.00098c6 -0.666992 14 -0.666992 24 0h24c14.667 0 25.167 -2 31.5 -6s9.5 -13.333 9.5 -28v-80c0 -22 -11 -34.667 -33 -38l-59 -2
v-41c0.666992 -21.333 1 -35 1 -41c0 -22 -1.66699 -36.667 -5 -44c-6 -12 -18.333 -18 -37 -18c-62 0 -95.333 0.333008 -100 1c-18 2.66699 -28.333 11.334 -31 26.001c-0.666992 4 -1.33398 32.667 -2.00098 86v28l-4 5c-30.667 0.666992 -71 0.666992 -121 0
c-63.333 -1.33301 -104 -2 -122 -2c-22 0 -35.333 10.667 -40 32c-0.666992 4 -1 24 -1 60c0 24.667 5.33301 43.667 16 57v0c30 34 80.333 103.667 151 209c62.667 94 112 158 148 192c22 2.66699 52.667 4 92 4c26.667 0 44.334 -6.33301 53.001 -19
c0.666992 -14 1.33398 -104.667 2.00098 -272v-104z" />
    <glyph glyph-name="five" unicode="5" horiz-adv-x="637" 
d="M141 683c64 3.33301 165.331 5 303.998 5h71c36.667 -2 55 -8.66699 55 -20c0 -44.667 -6 -84 -18 -118c-2.66699 -8 -8 -12.667 -16 -14c-24 -5.33301 -52.667 -8 -86 -8c-16 0 -40.333 0.833008 -73 2.5s-56.667 2.5 -72 2.5l-44 -1
c-4 -2.66699 -6.5 -7.16699 -7.5 -13.5s-2.16699 -12.5 -3.5 -18.5l3 -5c28.667 6.66699 56 10 82 10c112.667 0 190 -49.667 232 -149l5 3l-5 -3l11 -53c4.66699 -21.333 7 -39.333 7 -54c0 -79.333 -27 -143.166 -81 -191.499s-121 -72.5 -201 -72.5
c-85.333 0 -149 20.667 -191 62c-10.667 4 -20.667 14.333 -30 31l-3 2c-28.667 38 -43 76.333 -43 115c0 14 6.66699 23 20 27c2.66699 0.666992 24.834 2.5 66.501 5.5s65.834 4.5 72.501 4.5s12.334 -8 17.001 -24c6.66699 -22 13.334 -37 20.001 -45
c13.333 -16.667 34 -25 62 -25c37.333 0 66.666 9 87.999 27c24 19.333 36 47 36 83c0 32 -10.833 57.833 -32.5 77.5s-48.5 29.5 -80.5 29.5c-28.667 0 -55.334 -11.5 -80.001 -34.5s-40 -34.5 -46 -34.5c-24 0 -48.667 2.66699 -74 8c-37.333 8 -54.333 19 -51 33l76 346
c0.666992 3.33301 4 6.66602 10 9.99902z" />
    <glyph glyph-name="six" unicode="6" horiz-adv-x="598" 
d="M185 226c0 -26 9.33301 -48.667 28 -68s41 -29 67 -29c26.667 0 49.167 9.66699 67.5 29s27.5 42.666 27.5 69.999c0 26.667 -8.16699 49.5 -24.5 68.5s-37.833 28.5 -64.5 28.5c-27.333 0 -51 -9.66699 -71 -29s-30 -42.666 -30 -69.999zM307 491
c70.667 0 130.001 -24.333 178.001 -73s72 -108.667 72 -180c0 -78.667 -26.333 -143.5 -79 -194.5s-118.667 -76.5 -198 -76.5c-100.667 0 -176.667 39 -228 117c-44 66 -66 152.333 -66 259c0 106 24.667 192.667 74 260c55.333 76.667 134.333 115 237 115
c52.667 0 103.667 -13.333 153 -40c59.333 -31.333 89 -71.333 89 -120c0 -13.333 -23.333 -24 -70 -32c-33.333 -6 -62.666 -9 -87.999 -9c-6.66699 0 -17.334 8 -32.001 24s-32.334 24 -53.001 24c-26 0 -49.167 -9.66699 -69.5 -29s-33.833 -42.333 -40.5 -69l4 -1
c32 16.667 71 25 117 25z" />
    <glyph glyph-name="seven" unicode="7" horiz-adv-x="611" 
d="M203 -20c-32 0 -48.0029 8.99902 -48.0029 26.999c0 65.333 25 150.333 75 255c24.667 51.333 68.334 130.333 131.001 237c-3.33301 2.66699 -21.666 4 -54.999 4c-23.333 0 -55.333 -0.333008 -96 -1c-44 -0.666992 -65.333 -1 -64 -1c-44 0 -69.333 5.33301 -76 16
c-2.66699 4.66699 -4 31.334 -4 80.001c0 40 5.33301 63 16 69c4.66699 2.66699 30 4 76 4c48.667 0 113.334 -0.333008 194.001 -1c112.667 -1.33301 177 -2 193 -2c14.667 -6.66699 22 -20 22 -40c0 -52.667 -1.33301 -87.667 -4 -105
c-1.33301 -6 -4.33301 -11.833 -9 -17.5l-14 -16.5c-57.333 -81.333 -100.333 -164.333 -129 -249c-9.33301 -26.667 -21.333 -67.667 -36 -123c-2 -26 -7.33301 -64 -16 -114c-2.66699 -12.667 -26 -20 -70 -22h-86z" />
    <glyph glyph-name="eight" unicode="8" horiz-adv-x="618" 
d="M506 370l-1 -5.00195c16.667 -15.333 30.667 -30.333 42 -45c1.33301 -10.667 6.66602 -28.667 15.999 -54c8.66699 -21.333 13 -40.333 13 -57c0 -76 -28.333 -134 -85 -174c-48.667 -34.667 -113 -52 -193 -52c-72.667 0 -133 18.667 -181 56
c-52.667 40.667 -79 96.667 -79 168c0 34.667 5.66699 62.667 17 84c6.66699 12.667 24 35.667 52 69c-36 33.333 -54 74.333 -54 123c0 24 2.33301 41.667 7 53c0 14.667 7.66699 33 23 55c26.667 39.333 59.667 67.333 99 84c34 14 77.333 21 130 21
c66.667 0 123.334 -18 170.001 -54c50 -39.333 75 -91.333 75 -156c0 -21.333 -4.33301 -42.666 -13 -63.999c-9.33301 -23.333 -22 -40.666 -38 -51.999zM304 544.998c-22 0 -40.333 -4.66699 -55 -14c-17.333 -12 -26 -28.333 -26 -49
c0 -17.333 9.33301 -30.666 28 -39.999c14.667 -7.33301 32 -11 52 -11c54.667 0 82 18 82 54c0 19.333 -9 34.666 -27 45.999c-14.667 9.33301 -32.667 14 -54 14zM307 276.998c-25.333 0 -47 -5.66699 -65 -17c-21.333 -12.667 -32 -31 -32 -55c0 -23.333 12 -41 36 -53
c19.333 -10 41.666 -15 66.999 -15c24.667 0 45.834 6.16699 63.501 18.5s26.5 30.5 26.5 54.5c0 22 -11 39 -33 51c-18 10.667 -39 16 -63 16z" />
    <glyph glyph-name="nine" unicode="9" horiz-adv-x="657" 
d="M219 464c0 -26.667 8.16699 -49.666 24.5 -68.999s37.833 -29 64.5 -29c27.333 0 51 9.83301 71 29.5s30 43.167 30 70.5c0 26 -8.83301 48.667 -26.5 68s-39.5 29 -65.5 29c-28.667 0 -52.167 -9.33301 -70.5 -28s-27.5 -42.334 -27.5 -71.001zM323 725.001
c93.333 0 165.998 -38.6689 217.998 -116.002c44 -66.667 66 -149 66 -247c0 -111.333 -23.667 -201 -71 -269c-54.667 -79.333 -135 -119 -241 -119c-55.333 0 -103.666 11.667 -144.999 35c-46 26.667 -76.667 64.667 -92 114c-1.33301 2.66699 -2 5.33398 -2 8.00098
c0 14.667 7 22.667 21 24l3 5l5 -3c25.333 3.33301 63 9.33301 113 18v0h14c7.33301 0.666992 18.333 -7.16602 33 -23.499s32.334 -24.5 53.001 -24.5c25.333 0 48.5 9.66699 69.5 29s34.5 41.666 40.5 66.999l-4 3c-37.333 -18 -76.333 -27 -117 -27
c-71.333 0 -131.166 25.333 -179.499 76s-72.5 111.667 -72.5 183c0 78.667 28.667 143.334 86 194.001c55.333 48.667 122.666 73 201.999 73z" />
    <glyph glyph-name="colon" unicode=":" horiz-adv-x="280" 
d="M80 579l7.99902 -2l2 2c10 -2.66699 24.333 -4 43 -4c29.333 0 50.333 1.33301 63 4l5 -2l2 2c18 -3.33301 27 -11.333 27 -24c0.666992 -24.667 0.333984 -62 -0.999023 -112l1 -2l-1 -4l1 -2c-1.33301 -16.667 -17 -26.667 -47 -30h-66c-28 0 -45.333 4.33301 -52 13
c-6 6.66699 -9 25 -9 55c0 42 0 62.333 0 61c2.66699 30 10.667 45 24 45zM228.999 91l0.999023 -2c-2 -14 -18.333 -22.333 -49 -25c-1.33301 -0.666992 -22.666 -1 -63.999 -1c-32.667 0 -52.334 9 -59.001 27c-2 5.33301 -3 30.333 -3 75c0 30 5.33301 50.667 16 62
c9.33301 8.66699 25 13 47 13c4.66699 0 13.834 -0.333008 27.501 -1s24.5 -1 32.5 -1c25.333 0 41 -5.66699 47 -17c3.33301 -6 5 -24 5 -54c0 -38.667 -0.333008 -64 -1 -76z" />
    <glyph glyph-name="semicolon" unicode=";" horiz-adv-x="278" 
d="M79 -87c-16 0 -24.001 17 -24.001 51c0 26 4 43.333 12 52c2.66699 2.66699 10.334 5.66699 23.001 9c9.33301 2 14.666 8.33301 15.999 19l-3 5l-14 -1c-23.333 0 -35 14.333 -35 43v80c0 23.333 7 37.666 21 42.999c5.33301 1.33301 23.333 2 54 2h50
c25.333 0 41 -5 47 -15c3.33301 -6 5 -23.667 5 -53c0 -69.333 -8.33301 -121.666 -25 -156.999c-23.333 -52 -65.666 -78 -126.999 -78zM52.999 452c0.666992 -22.667 13.333 -36.668 38 -42.001c6.66699 -1.33301 28.667 -2 66 -2c34.667 0 56 8.33301 64 25
c4 8.66699 6 33 6 73c0 40.667 -6 65.334 -18 74.001l2 5l-5 -3c-15.333 0.666992 -59 1 -131 1c-14 0 -21.333 -16 -22 -48v-83z" />
    <glyph glyph-name="less" unicode="&#x3c;" horiz-adv-x="719" 
d="M644 766c18.667 0 28.001 -18.6689 28.001 -56.002c0 -46.667 -1.16699 -74.167 -3.5 -82.5s-70.833 -43.5 -205.5 -105.5c-110 -50.667 -190 -86.667 -240 -108l-1 -5c74 -42.667 163.333 -83.334 268 -122.001c12 0 44.5 -13.833 97.5 -41.5s80.5 -45.667 82.5 -54
s3 -22.166 3 -41.499c0 -33.333 -0.333008 -51.666 -1 -54.999c-3.33301 -24.667 -13.333 -37 -30 -37c-5.33301 0 -110.833 46.833 -316.5 140.5s-309.834 141.834 -312.501 144.501c-9.33301 11.333 -14 28.333 -14 51c0 6 0.5 14.833 1.5 26.5s1.5 20.5 1.5 26.5
c0 16 7.66699 29 23 39c4 3.33301 18.333 10 43 20l309 141c174.667 79.333 263.667 119 267 119z" />
    <glyph glyph-name="equal" unicode="=" horiz-adv-x="719" 
d="M654 459c0 -22.667 -4.5 -38.5 -13.5 -47.5s-24.833 -13.5 -47.5 -13.5c-34.667 0 -86.667 0.5 -156 1.5s-121.333 1.5 -156 1.5c-20 0 -49.333 -0.666992 -88 -2s-68 -2 -88 -2c-80.667 0 -121 8.33301 -121 25l-1 81c0 18.667 4 31.5 12 38.5s22 10.5 42 10.5
c37.333 0 93.5 -0.666992 168.5 -2s131.167 -2 168.5 -2c19.333 0 47.833 0.666992 85.5 2s66.167 2 85.5 2c54 0 84.667 -2.66699 92 -8c11.333 -8 17 -36.333 17 -85zM608 194c-6.66699 0 -19.666 1 -38.999 3l-3 -1l-325 -2c-12.667 0 -38 -0.333008 -76 -1
c-32.667 -0.666992 -58.334 -0.666992 -77.001 0c-28.667 0.666992 -54 2 -76 4l-2 -1c-14 2 -23 11.667 -27 29c-1.33301 7.33301 -2 22.333 -2 45c0 47.333 8 71 24 71c24.667 0 61.5 0.333008 110.5 1s85.833 1 110.5 1h285c67.333 0 107.333 -0.666992 120 -2
c16 -2 24 -24.667 24 -68c0 -28 -1.33301 -46 -4 -54c-6 -16.667 -20.333 -25 -43 -25z" />
    <glyph glyph-name="greater" unicode="&#x3e;" horiz-adv-x="687" 
d="M28 73c-18 0 -27 15.6689 -27 47.002c0 42 0 62 0 60c2 28 8.66699 44 20 48l3 5l5 -2c58.667 22 129 52.667 211 92l208 100l1 5c-46 26.667 -118.333 60.5 -217 101.5s-170.667 74.5 -216 100.5c-8.66699 5.33301 -13 11.333 -13 18v115c0 13.333 8.66699 20 26 20
l595 -268c2.66699 -4.66699 9.66699 -8.83398 21 -12.501s18.333 -9.5 21 -17.5c3.33301 -10.667 5 -36.334 5 -77.001c0 -26 -4.33301 -43 -13 -51c-406.667 -189.333 -616.667 -284 -630 -284z" />
    <glyph glyph-name="question" unicode="?" horiz-adv-x="570" 
d="M252 200c-32.667 0 -49.001 15.001 -49.001 45.001c0 42.667 13 78 39 106c3.33301 3.33301 27.333 22.333 72 57c26 20 39 41.333 39 64c0 18.667 -7 34.834 -21 48.501s-30.333 20.5 -49 20.5c-5.33301 0 -10.666 -0.666992 -15.999 -2l-5 2
c-24.667 -5.33301 -42.667 -19 -54 -41c-4 -7.33301 -10 -26.666 -18 -57.999c-5.33301 -19.333 -13 -29 -23 -29c-40 0 -81 7 -123 21c-12.667 4 -19 12 -19 24c0 66 24.667 122.167 74 168.5s107 69.5 173 69.5l3 5l4 -5h13c65.333 1.33301 121.5 -19.334 168.5 -62.001
s70.5 -96.667 70.5 -162c0 -76 -45.333 -144.333 -136 -205c-13.333 -8.66699 -24.5 -20.834 -33.5 -36.501s-14.5 -23.834 -16.5 -24.501c-12.667 -4 -43.667 -6 -93 -6zM231.999 -19.999c-30 0 -45.001 21.998 -45.001 65.998c0 6.66699 0.333008 16.834 1 30.501
s1 23.834 1 30.501c0 24 8.33301 38.667 25 44c6 2 25.333 3 58 3c40 0 62 -0.333008 66 -1c17.333 -5.33301 26 -22 26 -50c0 -59.333 -1.66699 -94 -5 -104c-5.33301 -13.333 -21.666 -20 -48.999 -20h-33c-17.333 0.666992 -32.333 1 -45 1z" />
    <glyph glyph-name="at" unicode="@" horiz-adv-x="833" 
d="M456 431c0 41.333 -14.667 62 -44 62c-27.333 0 -51 -21 -71 -63c-16.667 -34.667 -25 -67.667 -25 -99c0 -42.667 14 -64 42 -64c29.333 0 54 21 74 63c16 34 24 67.667 24 101zM668 491c0 57.333 -17.6709 102.997 -53.0039 136.997s-81.666 51 -138.999 51
c-93.333 0 -172.166 -35.167 -236.499 -105.5s-96.5 -152.833 -96.5 -247.5c0 -63.333 18.667 -117.333 56 -162c39.333 -46.667 90.333 -73 153 -79c0.666992 -0.666992 1.66699 -0.666992 3 0s2.33301 1 3 1c4.66699 0 11.5 -1 20.5 -3s15.833 -3 20.5 -3
c46 0 92.833 8.5 140.5 25.5s88.167 40.167 121.5 69.5l24 25c12 10.667 21.667 16 29 16c8 0 20.333 -9.66699 37 -29s25 -33 25 -41c0 -12.667 -10.5 -27 -31.5 -43l-63.5 -50c-25.333 -19.333 -48.666 -33 -69.999 -41c-77.333 -29.333 -146.666 -44 -207.999 -44
c-109.333 0 -199.333 33.167 -270 99.5s-106 153.833 -106 262.5c0 115.333 38.667 217.666 116 306.999l-2 4l4 -2c72 84 157 133 255 147c2 6.66699 5 7.33398 9 2.00098c24 3.33301 47.667 5 71 5c92 0 165 -27.333 219 -82s81 -128 81 -220c0 -62 -13 -121 -39 -177
c-26.667 -58.667 -63.667 -106 -111 -142c-4 -1.33301 -19 -7 -45 -17c-18 -6.66699 -33.667 -10 -47 -10c-34 0 -56.667 8 -68 24c-9.33301 4 -17 11.333 -23 22c-32.667 -31.333 -71 -47 -115 -47c-46.667 0 -84 19 -112 57c-25.333 34 -38 75 -38 123
c0 66 17.667 127.667 53 185c40 64.667 91 99.334 153 104.001l5 3l4 -3c16 4.66699 37.667 1.33398 65 -9.99902l5 2l3 -5l27 -18c6 10.667 27.667 16 65 16s56 -10 56 -30c0 -11.333 -2.33301 -25.666 -7 -42.999l-12 -43c-15.333 -70 -23 -105.333 -23 -106
c-8 -40.667 -12.667 -76.334 -14 -107.001l5 -3c26 10.667 50 44 72 100c19.333 48.667 29 90.334 29 125.001z" />
    <glyph glyph-name="A" unicode="A" 
d="M185 -18l-144.999 0.000976562c-12 4 -18 12.333 -18 25c0 16 25 97.333 75 244c56 167.333 86.333 260.333 91 279l39 123c3.33301 9.33301 6 15.666 8 18.999c3.33301 6 8.66602 9.83301 15.999 11.5s23.333 2.5 48 2.5h75c20.667 0 32 -0.333008 34 -1
c14 -2 23.333 -7.33301 28 -16c8.66699 -18.667 46.667 -132.5 114 -341.5s101 -316.833 101 -323.5c0 -7.33301 -4.33301 -14.333 -13 -21c-28.667 -2.66699 -70 -4 -124 -4c-22 0 -37.333 5.33301 -46 16c-4.66699 6 -9 18.333 -13 37s-9.33301 32.667 -16 42h-209l-4 -3
l-14 -52c-7.33301 -24.667 -16.333 -37 -27 -37zM372.001 233.001l14 1l3 5c-10.667 42 -18.667 72 -24 90c-10 34 -20.333 63.333 -31 88l-5 3l-53 -180l3 -6c36 -2 67 -2.33301 93 -1z" />
    <glyph glyph-name="B" unicode="B" horiz-adv-x="656" 
d="M230 531l-5 -2.99902v-26c-0.666992 -12 -1 -21 -1 -27c0 -14.667 1 -27.667 3 -39h41c21.333 -0.666992 35 -1 41 -1c22 0 41 1.33301 57 4l3 5l5 -3c14 3.33301 23 9.66602 27 18.999c2.66699 6 4 17.667 4 35c0 24 -28.333 36 -85 36h-90zM319 281.001
c-8.66699 0 -23.168 -0.333008 -43.501 -1s-36.166 -1 -47.499 -1l-3 -5v-124l3 -5c28.667 -0.666992 66.667 -1 114 -1c65.333 0 98 23 98 69c0 45.333 -40.333 68 -121 68zM533.999 374.001l2 -5.99902c57.333 -34.667 86 -89 86 -163
c0 -25.333 -4.66699 -51.666 -14 -78.999c-10.667 -30 -24 -53.333 -40 -70l-2 -5c-6 -6.66699 -15.667 -14.667 -29 -24c-27.333 -22.667 -69.333 -36.667 -126 -42c-16.667 -1.33301 -62.667 -2 -138 -2c-18 0 -44.667 -0.333008 -80 -1s-62 -1 -80 -1
c-27.333 0 -45.333 1.33301 -54 4c-12.667 4 -19 44.333 -19 121v457c0 81.333 6.66699 122 20 122c20.667 0 50.667 0.333008 90 1h91h65c86 0 149.333 -9.66699 190 -29c60 -28.667 90 -81.334 90 -158.001c0 -58.667 -17.333 -100.334 -52 -125.001z" />
    <glyph glyph-name="C" unicode="C" horiz-adv-x="708" 
d="M674 197c0 -10.667 -8.16602 -31.667 -24.499 -63s-28.833 -49.666 -37.5 -54.999c-24.667 -38 -61 -67 -109 -87c-42 -17.333 -88 -26 -138 -26c-103.333 0 -186 36 -248 108c-60 68 -90 154.333 -90 259c0 60.667 7 111 21 151c15.333 45.333 43 87.333 83 126
c12 11.333 19 18.333 21 21c7.33301 8 12.666 16.333 15.999 25l4 -2c18 8.66699 38.667 21 62 37l5 -3l53 15v2c0 1.33301 0.333008 1.66602 1 0.999023l2 -3c26 4.66699 51.333 7 76 7c81.333 0 147 -22 197 -66l23 -19c8.66699 -8.66699 14 -16.667 16 -24
c12 -13.333 24.667 -33.333 38 -60c15.333 -29.333 23 -51 23 -65c0 -2.66699 -0.333008 -4.66699 -1 -6c-3.33301 -10 -13 -17.667 -29 -23l-39 -8l-47 -14c-22.667 -7.33301 -37.667 -11 -45 -11c-12 0 -21 11 -27 33c-8.66699 31.333 -17 52 -25 62
c-16 22 -42.333 33 -79 33c-51.333 0 -91.666 -21 -120.999 -63c-26 -36.667 -39 -81.667 -39 -135c0 -46.667 8.66699 -87 26 -121c20.667 -40.667 51.334 -66 92.001 -76l6 1c2 0 5.16699 -0.833008 9.5 -2.5s8.16602 -2.5 11.499 -2.5h15l4 5c1.33301 0 3 -0.333008 5 -1
c0 -1.33301 2 -2 6 -2c24.667 0 46.667 11.667 66 35c9.33301 10.667 22.666 32 39.999 64c12 23.333 21.667 35 29 35s29.333 -8 66 -24c33.333 -14.667 55.333 -25.5 66 -32.5s16 -15.5 16 -25.5z" />
    <glyph glyph-name="D" unicode="D" horiz-adv-x="675" 
d="M277 526c-5.33301 0 -13.667 -0.333008 -25 -1h-24l-5 -4l3 -366c8 -1.33301 15.667 -2 23 -2c10 0 17 1.33301 21 4l7 -2c67.333 0 113.833 13.5 139.5 40.5s38.5 74.5 38.5 142.5c0 125.333 -59.333 188 -178 188zM643.999 334
c0 -99.333 -22.3301 -179.001 -66.9971 -239.001c-49.333 -66 -122 -102.667 -218 -110c-45.333 -3.33301 -124.333 -5 -237 -5c-35.333 0 -57 1 -65 3c-12.667 3.33301 -19 56.333 -19 159c0 58 0.5 145.333 1.5 262s1.5 204.334 1.5 263.001c0 8.66699 4 14.667 12 18
c12 4 38.333 6 79 6c21.333 0 53.166 -1 95.499 -3s74.166 -3 95.499 -3c103.333 0 183.666 -33 240.999 -99c53.333 -62.667 80 -146.667 80 -252z" />
    <glyph glyph-name="E" unicode="E" horiz-adv-x="618" 
d="M230 531c-6 0 -8.66602 -9.33496 -7.99902 -28.002v-44l3 -5l224 1c16 0 26.667 -5 32 -15c1.33301 -17.333 2 -45.666 2 -84.999c0 -24.667 -0.666992 -41 -2 -49c-2 -10 -9.66699 -16 -23 -18c-20.667 -4.66699 -54.334 -6.33398 -101.001 -5.00098
c-72 2 -106 3 -102 3h-28l-5 -3l-1 -39l1 -79l3 -5c35.333 -0.666992 81.666 -0.666992 138.999 0c70 1.33301 116.333 2 139 2c40 0 62.333 -1 67 -3c14 -6 21 -24.333 21 -55c0 -51.333 0.333008 -72.666 1 -63.999c-2 -33.333 -8.33301 -50 -19 -50h-517
c-8.66699 0 -13.667 5.33301 -15 16c-2.66699 18 -4 71.333 -4 160v218c-0.666992 96 -1 168.333 -1 217c0 41.333 2.16699 66.833 6.5 76.5s16.5 14.5 36.5 14.5c4 0 13.333 -0.333008 28 -1h38l407 -1c10.667 0 17.334 -14 20.001 -42c0 0.666992 0 -17.666 0 -54.999
c0 -28 -4.5 -46.333 -13.5 -55s-24.167 -13 -45.5 -13c-4.66699 0 -13.5 0.333008 -26.5 1s-23.5 1 -31.5 1c-24.667 0 -62 0.666992 -112 2s-87.667 2 -113 2z" />
    <glyph glyph-name="F" unicode="F" horiz-adv-x="566" 
d="M500 685c24.667 0 38.999 -5.99707 42.999 -17.9971c2 -5.33301 3 -14 3 -26c0 -7.33301 -0.333008 -24 -1 -50c-0.666992 -20.667 -0.666992 -37.334 0 -50.001c-5.33301 -10.667 -13 -16.667 -23 -18c-28.667 -4 -61.667 -6 -99 -6c-22.667 0 -56.667 1 -102 3
s-78.666 3 -99.999 3l-5 -3v-26v-49l4 -4l7 -1l9 4l5 -3c-3.33301 0 19.334 0.333008 68.001 1c40 0.666992 71.667 0.666992 95 0c33.333 -0.666992 52 -2.66699 56 -6h5v-5c4.66699 -5.33301 7 -24.333 7 -57c0 -39.333 -1 -68.333 -3 -87
c-8.66699 -9.33301 -22 -14.666 -40 -15.999c-1.33301 -0.666992 -16.333 -1 -45 -1c-18 0 -45.167 0.666992 -81.5 2s-63.5 2 -81.5 2l-5 -3v-116c1.33301 -61.333 2 -100 2 -116c0 -26.667 -3.66699 -42.834 -11 -48.501s-25 -8.5 -53 -8.5h-82
c-11.333 -0.666992 -19.333 -0.333984 -24 0.999023c-8 2 -12.667 7.33301 -14 16c-2.66699 15.333 -4 59.333 -4 132l1 391c0 83.333 1 131.666 3 144.999c1.33301 8.66699 6.66602 14.667 15.999 18h182h268z" />
    <glyph glyph-name="G" unicode="G" horiz-adv-x="765" 
d="M711 481c0 -9.33301 -3.99512 -16.3369 -11.9951 -21.0039c-4.66699 -2.66699 -28.667 -12 -72 -28s-66.333 -24 -69 -24c-9.33301 0 -19 9.66699 -29 29l-19 43c-0.666992 1.33301 -11.334 13.666 -32.001 36.999c-29.333 12 -53.333 18 -72 18
c-50 0 -89.333 -22.667 -118 -68c-24 -39.333 -36 -85.666 -36 -138.999c0 -49.333 12.333 -92.666 37 -129.999c28 -43.333 65.333 -65 112 -65c33.333 0 52 3.33301 56 10l3 -1c13.333 0 28.333 9.66699 45 29c15.333 17.333 24.666 33 27.999 47l-5 3
c-10 0 -28 -0.333008 -54 -1h-54c-18 0 -30.667 4.66699 -38 14c0.666992 12 1 27.333 1 46c-0.666992 24.667 -1 40 -1 46c0 19.333 0.666992 36 2 50c4.66699 7.33301 13.167 11 25.5 11s20.166 1 23.499 3c10.667 -4.66699 29.667 -7 57 -7c17.333 0 43.166 1 77.499 3
s59.833 3 76.5 3c20 0 36.333 -1 49 -3l3 5l-3 -5c10.667 -3.33301 16 -36.333 16 -99c0 -9.33301 0.666992 -40.333 2 -93c0.666992 -46.667 0.666992 -83.667 0 -111c0 -39.333 -1.66699 -67.666 -5 -84.999c-2 -8 -7.33301 -13 -16 -15s-42.334 -3 -101.001 -3
c-21.333 0 -35.333 5 -42 15l-5 1c-30.667 -23.333 -80 -35 -148 -35c-97.333 0 -177.333 36.333 -240 109c-60 69.333 -90 153.333 -90 252c0 110.667 31.333 201.334 94 272.001c64.667 74 151.667 111 261 111c48.667 0 95.5 -10.833 140.5 -32.5
s80.833 -52.167 107.5 -91.5c29.333 -43.333 44 -76.666 44 -99.999z" />
    <glyph glyph-name="H" unicode="H" horiz-adv-x="681" 
d="M58 682l6.00293 3c9.33301 0 23.333 0.333008 42 1h41c44.667 0 70.167 -3.5 76.5 -10.5s9.5 -33.167 9.5 -78.5c0 -15.333 -0.666992 -38.5 -2 -69.5s-2 -53.833 -2 -68.5l4 -5h216l5 3c0.666992 24 0.666992 55 0 93v93c0 20.667 4.33301 33.334 13 38.001
c5.33301 2.66699 20.333 4 45 4h76c12.667 0 23 -0.666992 31 -2c12.667 -2 20 -19 22 -51c0 2.66699 0 -19.666 0 -66.999c0 -36.667 -0.333008 -91.667 -1 -165s-1 -127.666 -1 -162.999c0 -16 0.666992 -41.667 2 -77c0.666992 -33.333 0.666992 -59 0 -77
c0 -28.667 -1 -54.334 -3 -77.001c-0.666992 -8 -3.33398 -14 -8.00098 -18s-48.334 -6 -131.001 -6c-12.667 0 -21.667 0.333008 -27 1c-12 2 -19.333 16.333 -22 43v57c0 22 0.666992 54.667 2 98s2 75.333 2 96l-3 5h-217l-5 -3c0 -32 0.333008 -74.333 1 -127
c1.33301 -63.333 2 -106 2 -128c0 -28.667 -16.667 -43 -50 -43h-22c-10 0.666992 -17.333 1 -22 1h-20c-8.66699 -0.666992 -15.334 -1 -20.001 -1c-36 0 -54 13.667 -54 41c0 67.333 0.333008 169.666 1 306.999c0.666992 131.333 1 233.666 1 306.999v25
c0.666992 5.33301 4.66699 12.333 12 21z" />
    <glyph glyph-name="I" unicode="I" horiz-adv-x="292" 
d="M241 45c0 -30 -1.66797 -47.332 -5.00098 -51.999c-5.33301 -8 -21 -12 -47 -12h-86c-11.333 0 -21 0.666992 -29 2c-11.333 2.66699 -18 22 -20 58c0 -1.33301 0 22 0 70c0 29.333 0.333008 73.333 1 132s1 103 1 133c0 18.667 -0.666992 48.167 -2 88.5
s-2 70.833 -2 91.5c0 41.333 2 77.333 6 108c0.666992 5.33301 3.33398 10 8.00098 14l2 5c49.333 2 90 3 122 3c28 0 44.333 -8 49 -24c2 -4.66699 3 -27.334 3 -68.001z" />
    <glyph glyph-name="J" unicode="J" horiz-adv-x="439" 
d="M207 669c4.66699 10.667 23.6641 16.001 56.9971 16.001c10 0 22.833 -0.5 38.5 -1.5s25.167 -1.5 28.5 -1.5c2.66699 0 6.83398 0.666992 12.501 2s9.83398 2 12.501 2l6 -2c20.667 2 31 -14 31 -48c0 -35.333 -0.333008 -88 -1 -158v-157
c0 -110 -1.33301 -174.333 -4 -193c-7.33301 -54 -34.666 -94.667 -81.999 -122c-40 -23.333 -89 -35 -147 -35c-18.667 0 -39.667 2 -63 6c-32.667 6 -50.334 13.667 -53.001 23c-1.33301 7.33301 -2 35 -2 83c0 23.333 0.333008 37.333 1 42c3.33301 16 12.333 24 27 24
c8 0 20.333 -1 37 -3s29.334 -3 38.001 -3c20.667 0 37.667 4.66699 51 14c8.66699 14.667 13 64 13 148c0 30 -0.666992 68.667 -2 116s-2 74.666 -2 81.999c0 62 1 117.333 3 166z" />
    <glyph glyph-name="K" unicode="K" horiz-adv-x="661" 
d="M56 682c16 1.33301 34.332 1.99805 54.999 1.99805c6 0 22.667 -0.333008 50 -1h50c12 -6 18 -14.667 18 -26c0 -22 -0.833008 -55.333 -2.5 -100s-2.5 -78 -2.5 -100l5 -3l98 118c16.667 16.667 39.334 43 68.001 79l-3 5l5 -3c1.33301 0.666992 6 6.33398 14 17.001
c5.33301 6.66699 11.333 10.667 18 12c14 2 63.667 3 149 3c34 0 51 -8.66699 51 -26c0 -10.667 -4 -18.334 -12 -23.001c-6 -9.33301 -18.667 -23.5 -38 -42.5s-31.666 -34.5 -36.999 -46.5c-18 -14 -38.667 -35.333 -62 -64l-57 -71l210 -382v-22
c0.666992 -7.33301 0 -14.333 -2 -21l-8 -5h-170l-6 3c-24 30.667 -50.667 75 -80 133c-35.333 70.667 -60 117 -74 139l-4 1c-24.667 -24.667 -47 -50 -67 -76c0 -13.333 0.333008 -38.666 1 -75.999c0.666992 -32 1 -57.667 1 -77c0 -25.333 -7.33301 -40.666 -22 -45.999
c-5.33301 -2 -25 -3 -59 -3c-4.66699 0 -12.667 -0.333008 -24 -1s-20 -1 -26 -1c-37.333 0 -56 14 -56 42c0 417.333 2 632.333 6 645c1.33301 5.33301 5.66602 11 12.999 17z" />
    <glyph glyph-name="L" unicode="L" horiz-adv-x="507" 
d="M218 159l2.99707 -3.99805c29.333 -0.666992 68.666 -0.666992 117.999 0c58.667 1.33301 97.667 2 117 2c32 0 48 -22.667 48 -68c0 -6.66699 -0.333008 -16.167 -1 -28.5s-1 -21.166 -1 -26.499c0 -28.667 -6.33301 -45.667 -19 -51c-4.66699 -2 -24.667 -3 -60 -3
c-23.333 0 -58.666 0.333008 -105.999 1s-82.666 1 -105.999 1c6.66699 0 -20 -1 -80 -3c-32.667 -0.666992 -58.667 0.666016 -78 3.99902c-6 1.33301 -10.333 4.66602 -13 9.99902l-5 -3l-1 577c0 73.333 3.5 111.5 10.5 114.5s30.5 4.5 70.5 4.5h43
c18.667 -0.666992 32.334 -1 41.001 -1s14.334 -5.33301 17.001 -16c5.33301 -22.667 8 -57.334 8 -104.001c0 -26.667 -1 -64.667 -3 -114s-3 -81.333 -3 -96v-196z" />
    <glyph glyph-name="M" unicode="M" horiz-adv-x="727" 
d="M539 685c14.667 0 36.1641 -0.334961 64.4971 -1.00195s49.5 -1 63.5 -1c12 0 19 -15.667 21 -47c0.666992 -4 1 -25 1 -63c0 -37.333 -0.5 -93.333 -1.5 -168s-1.5 -131 -1.5 -169c0 8.66699 1 -30.333 3 -117c1.33301 -47.333 0 -86 -4 -116
c-0.666992 -8 -3.83398 -14 -9.50098 -18s-27.5 -6 -65.5 -6c-53.333 0 -83.166 3.5 -89.499 10.5s-9.5 38.5 -9.5 94.5c0 22.667 1 53 3 91c2 43.333 3 73.333 3 90l-5 3c-3.33301 -11.333 -14 -59.333 -32 -144c-15.333 -71.333 -27.333 -114.333 -36 -129
c-6 -11.333 -33.333 -17 -82 -17c-36.667 0 -58.667 1.16699 -66 3.5s-12.666 7.83301 -15.999 16.5c-26 64.667 -48.667 158 -68 280l-5 -4c0 16 0 -56.333 0 -217c0 -37.333 -1.66699 -58.666 -5 -63.999c-5.33301 -9.33301 -24.666 -14 -57.999 -14
c-45.333 0 -74.5 1.5 -87.5 4.5s-19.5 8.83301 -19.5 17.5c0 60.667 -0.5 151.334 -1.5 272.001s-1.5 211 -1.5 271c0 72 2 114 6 126c3.33301 10 23 15 59 15c116.667 0 178 -3.66699 184 -11c1.33301 -2 13.833 -56.333 37.5 -163s36.834 -167.667 39.501 -183l5 3
c2 5.33301 16 68.666 42 189.999c22 102.667 37.667 156.334 47 161.001c4.66699 2 33 3 85 3z" />
    <glyph glyph-name="N" unicode="N" horiz-adv-x="667" 
d="M445 318l3.99805 3.00098c0.666992 41.333 0.666992 95 0 161c-0.666992 85.333 -1 139.333 -1 162c0 29.333 19.333 44 58 44c6.66699 0 16.834 -0.333008 30.501 -1s23.834 -1 30.501 -1c17.333 0 28.333 -0.666992 33 -2c12 -2.66699 19 -9.33398 21 -20.001
c5.33301 -32 8 -73.333 8 -124c0 -25.333 -1 -62.833 -3 -112.5s-3 -84.834 -3 -105.501c0 -27.333 0.5 -68.333 1.5 -123s1.5 -96 1.5 -124c0 -45.333 -2.33301 -71.666 -7 -78.999c-7.33301 -10.667 -32.333 -16 -75 -16s-69.167 0.5 -79.5 1.5s-18.5 5.83301 -24.5 14.5
l-12 23l-135 225c-12.667 25.333 -34.334 61.666 -65.001 108.999l-5 -1c-0.666992 -40 -0.666992 -92 0 -156c0.666992 -84 1 -135.667 1 -155c0 -23.333 -1.33301 -38.666 -4 -45.999c-8.66699 -10 -25 -15 -49 -15c-49.333 0 -72.666 0 -69.999 0
c-34.667 2.66699 -52 10.667 -52 24c0 60 -0.5 149.833 -1.5 269.5s-1.5 209.5 -1.5 269.5c0 64 2 106 6 126c2 11.333 16 17 42 17l124 -1c8.66699 0 45.667 -55.667 111 -167z" />
    <glyph glyph-name="O" unicode="O" horiz-adv-x="733" 
d="M373 713c48.667 0 96 -10 142 -30l3 4l-3 -4c64 -30 112.333 -77.667 145 -143c30 -58.667 45 -126 45 -202c0 -100 -30.667 -185.333 -92 -256c-64 -74 -145 -111 -243 -111c-63.333 0 -124.333 17.333 -183 52l-3 5c-50 33.333 -88.333 77.666 -115 132.999
c-25.333 53.333 -38 111 -38 173c0 70 14.667 134.333 44 193c31.333 62.667 76.333 110.334 135 143.001v4l4 -1c46.667 26.667 99.667 40 159 40zM368 540c-46 0 -83.001 -22.001 -111.001 -66.001c-24 -38 -36 -81.333 -36 -130c0 -52 11.667 -96 35 -132
c27.333 -43.333 65.333 -65 114 -65c50.667 0 89.334 21.667 116.001 65c22 36 33 81.333 33 136c0 52.667 -11.667 96.334 -35 131.001c-27.333 40.667 -66 61 -116 61z" />
    <glyph glyph-name="P" unicode="P" horiz-adv-x="590" 
d="M345 685l5.00293 3.00098l5 -3l65 -10c20 -3.33301 42.333 -14.333 67 -33c21.333 -17.333 38.333 -36 51 -56c23.333 -38 35 -85.333 35 -142c0 -54.667 -15.833 -103.5 -47.5 -146.5s-73.834 -71.833 -126.501 -86.5c-21.333 -6 -47 -9.33301 -77 -10
c-25.333 0.666992 -51 1 -77 1l-26 -1l-4 -3c-0.666992 -21.333 -0.666992 -50 0 -86c0.666992 -42.667 1 -71.334 1 -86.001c0 -31.333 -20.333 -47 -61 -47h-23c-10.667 0.666992 -18.334 1 -23.001 1c-47.333 0 -72 7 -74 21c-0.666992 4.66699 -1 45.667 -1 123
c0 26.667 -0.333008 67 -1 121v122v87c0 70 0.666992 143 2 219c7.33301 10 18.666 15 33.999 15c136.667 0 228.667 -1 276 -3zM215.003 526.001l-0.000976562 -157.999l3 -5c-0.666992 0 18 0 56 0c81.333 0 122 28.333 122 85c0 33.333 -13.667 56.666 -41 69.999
c-18.667 8.66699 -47 13 -85 13c-33.333 0 -51.666 -1.66699 -54.999 -5z" />
    <glyph glyph-name="Q" unicode="Q" horiz-adv-x="790" 
d="M289 701l-1.99902 5l3 -5c26 5.33301 51.667 8 77 8c98.667 0 179 -36 241 -108c58.667 -68 88 -152.333 88 -253c0 -69.333 -13 -134.333 -39 -195l2 -4l24 -12l3 2c4 -4 20 -9.33301 48 -16c23.333 -6 35 -15.333 35 -28c0 -4 -7.16699 -26.167 -21.5 -66.5
s-22.833 -62.166 -25.5 -65.499c-4.66699 -5.33301 -11.334 -8 -20.001 -8c-24 0 -49.667 8.33301 -77 25l-68 47h-5c-58.667 -38.667 -125 -58 -199 -58c-100 0 -180.667 37.333 -242 112c-58 69.333 -87 155 -87 257c0 87.333 23 164 69 230
c48 69.333 113.333 113.666 196 132.999zM282.001 507c-23.333 -14.667 -41 -40.333 -53 -77c-10.667 -30.667 -16 -62.667 -16 -96c0 -60.667 18.333 -111.667 55 -153h3c24 -24 54 -36 90 -36c50.667 0 89.334 21.667 116.001 65c22.667 36 34 81 34 135
c0 76 -21.333 129.667 -64 161l-3 5c-26.667 16.667 -55.334 25 -86.001 25c-12 0 -26 -2.33301 -42 -7c-20 -6 -31.333 -13.333 -34 -22z" />
    <glyph glyph-name="R" unicode="R" horiz-adv-x="657" 
d="M417 463c0 45.333 -35.667 68.001 -107 68.001c-6.66699 0 -16.667 -0.333008 -30 -1h-30l-5 -4v-39v-35v-58l4 -5l45 -1c22.667 -0.666992 48 1.66602 76 6.99902v5l3 -5c29.333 11.333 44 34 44 68zM564 599.001c28.667 -46 43.001 -92.6689 43.001 -140.002
c0 -98 -38 -164 -114 -198l-4 -5c16 -26 41 -69 75 -129c41.333 -73.333 62 -112.333 62 -117c0 -19.333 -23.667 -29 -71 -29s-86 1.33301 -116 4c-11.333 6.66699 -57.666 88.667 -138.999 246l-5 3h-45l-5 -3c0 -24 0.333008 -55.667 1 -95c0.666992 -48.667 1 -80 1 -94
c0 -25.333 -4.33301 -42 -13 -50s-22.334 -12 -41.001 -12c-4 0 -11.667 0.333008 -23 1s-20.666 1 -27.999 1c-52.667 0 -80.334 7.33301 -83.001 22c-4 32 -5.33301 73.333 -4 124c2 92 3 133.667 3 125c0 37.333 -0.333008 92.833 -1 166.5s-1 128.834 -1 165.501
c0 6.66699 -0.333008 15.334 -1 26.001s-1 18.334 -1 23.001c0 20 3.33301 33.667 10 41c8.66699 10 24.667 15 48 15h279c12.667 2.66699 39.667 -3.33301 81 -18l3 -5c14 -6.66699 29.333 -17.334 46 -32.001c21.333 -19.333 35.666 -31.333 42.999 -36z" />
    <glyph glyph-name="S" unicode="S" horiz-adv-x="678" 
d="M627 550c-24.667 -20 -43.001 -36 -55.001 -48l-5 -2l-26 -24c-12 -10 -22 -15 -30 -15c-5.33301 0 -15.333 8 -30 24c-18.667 20 -35.667 34.667 -51 44c-25.333 15.333 -54 23 -86 23c-20 0 -39.667 -4 -59 -12c-24 -10 -36 -23.667 -36 -41c0 -18 27.667 -34 83 -48
c34.667 -9.33301 71 -16 109 -20l5 3l2 -5c29.333 -7.33301 52 -14 68 -20c30 -11.333 50 -23 60 -35c20.667 -3.33301 38.667 -25 54 -65c12.667 -32.667 19 -62.334 19 -89.001c0 -82.667 -32 -146 -96 -190c-55.333 -38.667 -126.333 -58 -213 -58s-164 25.333 -232 76
c-42.667 32 -68 59 -76 81c-0.666992 2 -1 4.66699 -1 8l1 8c6 7.33301 29.167 25.333 69.5 54s63.5 43 69.5 43c5.33301 0 15.666 -8.66699 30.999 -26c18.667 -22 36.667 -38.333 54 -49c28 -17.333 60 -26 96 -26c25.333 0 48.333 4 69 12
c28.667 10.667 43 26.334 43 47.001c0 23.333 -34.667 42 -104 56c-95.333 19.333 -159.333 37.666 -192 54.999c-69.333 36 -104 92 -104 168c0 60.667 22 112.667 66 156c40.667 40.667 92.334 66.334 155.001 77.001c5.33301 3.33301 24.333 4.33301 57 3
c22 -0.666992 43.667 -1.66699 65 -3l4 5l-2 -5c92.667 -16 165.334 -58 218.001 -126v-36z" />
    <glyph glyph-name="T" unicode="T" horiz-adv-x="605" 
d="M27 667c0 5.33301 2 10.001 6 14.001c6.66699 5.33301 10.334 8.66602 11.001 9.99902c166 -3.33301 300.333 -5 403 -5c49.333 0 82.666 0.666992 99.999 2c0.666992 2 2 3 4 3c2.66699 0 3.33398 -1 2.00098 -3c17.333 0 26 -13.667 26 -41c0 -56 -1 -90 -3 -102
c-2.66699 -15.333 -31.334 -23 -86.001 -23c-14.667 0 -33.167 0.666992 -55.5 2s-34.833 2 -37.5 2l-5 -3c-0.666992 -42.667 -0.666992 -99.667 0 -171c1.33301 -84 2 -140.667 2 -170c0 -100 -1.33301 -160.333 -4 -181c-1.33301 -13.333 -22.333 -20 -63 -20h-66
c-32 2 -48.667 9 -50 21c-2 20 -3 90.333 -3 211v154c0.666992 68.667 1 120 1 154l-3 5c-18 0.666992 -41.667 0.666992 -71 0c-36.667 -0.666992 -60 -1 -70 -1c-25.333 0 -38 10.667 -38 32v110z" />
    <glyph glyph-name="U" unicode="U" horiz-adv-x="657" 
d="M615 672c2.66699 -160.667 3.99805 -281.334 3.99805 -362.001c0 -173.333 -36 -274 -108 -302l-6 -2c-41.333 -28.667 -99.666 -43 -174.999 -43c-86 0 -153 20 -201 60c-52 42.667 -79.333 106 -82 190s-4 210.667 -4 380c0 37.333 1 60.333 3 69
c2 13.333 9 21.666 21 24.999c8.66699 2 20.667 3 36 3c10.667 0.666992 25 0.666992 43 0c20 -0.666992 32.667 -1 38 -1c14.667 0 24.667 -0.666992 30 -2c11.333 -3.33301 18 -20.333 20 -51c0.666992 -6 1 -27 1 -63c0 -28 -0.833008 -70 -2.5 -126s-2.5 -98 -2.5 -126
c0 -107.333 15 -164.333 45 -171l3 3v-5c6.66699 -3.33301 15.834 -5.5 27.501 -6.5s19.834 -2.5 24.501 -4.5l5 3l6 -3c4 2 14.333 4.66699 31 8c14 2.66699 27.5 10.834 40.5 24.501s19.5 71.167 19.5 172.5c0 28 -0.833008 70.333 -2.5 127s-2.5 99.334 -2.5 128.001
c0 40 1 62.333 3 67c6 16 24.333 24 55 24c79.333 0 102.666 0.666992 69.999 2c33.333 -1.33301 53.333 -7.33301 60 -18z" />
    <glyph glyph-name="V" unicode="V" horiz-adv-x="643" 
d="M577 688c26.667 0 40.002 -8.33203 40.002 -24.999c0 -6.66699 -32.5 -117.667 -97.5 -333s-99.833 -326.666 -104.5 -333.999c-5.33301 -10 -28.333 -15 -69 -15c-48.667 0 -71.667 0 -69 0c-32.667 1.33301 -52.334 7.33301 -59.001 18
c-2 3.33301 -36.333 123 -103 359l-50 161c-26.667 86.667 -40 135 -40 145c0 17.333 24 26 72 26c69.333 0 107.166 -4.66699 113.499 -14s18.5 -48 36.5 -116c16 -60.667 26.333 -103.334 31 -128.001c3.33301 -18.667 10 -43.334 20 -74.001
c12 -36.667 19.333 -61 22 -73h5c6 18 31 109.333 75 274c6 26 17 63 33 111c6 12 15.667 18 29 18h115z" />
    <glyph glyph-name="W" unicode="W" horiz-adv-x="845" 
d="M584 352l5.00391 2.99902c12.667 70 34 173 64 309c2.66699 10 7 16.333 13 19c4 2 12 3 24 3h102c23.333 0 35 -8 35 -24c0 -11.333 -22 -122.166 -66 -332.499s-68 -319.833 -72 -328.5c-5.33301 -11.333 -24.666 -18 -57.999 -20h-70c-38 0 -59.667 6.66699 -65 20
c-4 11.333 -8 28.666 -12 51.999c-5.33301 32.667 -8.33301 50.334 -9 53.001l-50 221l-5 -3c0 -13.333 -10.333 -68.5 -31 -165.5s-33.334 -150.833 -38.001 -161.5s-27.334 -16 -68.001 -16c-62.667 0 -97 1.33301 -103 4c-10.667 3.33301 -18.334 20 -23.001 50
c-4.66699 27.333 -16.334 78.333 -35.001 153c-16 64 -26 115.333 -30 154c-2.66699 30.667 -14.667 85 -36 163c-18.667 70 -28 124.333 -28 163c0 12 8.33301 18 25 18h124c16.667 0 33.334 -48 50.001 -144c21.333 -120.667 32.333 -182.334 33 -185.001h5
c11.333 35.333 22.666 79 33.999 131l28 134c1.33301 10.667 3.16602 22 5.49902 34s7.5 21 15.5 27c2.66699 2 9.66699 3 21 3c2.66699 0 37 1.66699 103 5l3 -5l5 1c20 0.666992 31.333 -7.66602 34 -24.999c9.33301 -31.333 20.333 -78.666 33 -141.999
c2 -22.667 7.33301 -51 16 -85c12 -46.667 19 -74.334 21 -83.001z" />
    <glyph glyph-name="X" unicode="X" horiz-adv-x="676" 
d="M550 686l32.001 0.000976562l3 5l3 -5c22.667 0.666992 34 -6 34 -20c0 -10.667 -26.667 -58.334 -80 -143.001c-58.667 -93.333 -91.334 -147.333 -98.001 -162c7.33301 -8.66699 43.666 -68.667 108.999 -180s98 -167.666 98 -168.999c0 -20.667 -22 -31 -66 -31
c-65.333 0 -103 1.33301 -113 4c-6 1.33301 -50.667 72.333 -134 213l-5 -3c-13.333 -27.333 -35.333 -66 -66 -116c-38 -62 -62 -94 -72 -96c-6 -1.33301 -18.333 -2 -37 -2h-23c-12 -0.666992 -22.333 -1 -31 -1c-54.667 0 -82 10 -82 30c0 9.33301 31.333 64.333 94 165
c68.667 111.333 106.334 174.666 113.001 189.999l-61 100c-3.33301 14.667 -23.333 48.667 -60 102c-35.333 50.667 -53 82 -53 94c0 12.667 6.33301 21 19 25c-0.666992 2.66699 -0.333984 4 0.999023 4c2.66699 0 3.33398 -1.33301 2.00098 -4
c31.333 -1.33301 62.333 -2 93 -2c26 0 45.667 0.666992 59 2l3 5l2 -5c10 -3.33301 28 -27.333 54 -72l51 -86c9.33301 6.66699 24.333 30 45 70c22 43.333 36.667 69 44 77s27 12 59 12c20.667 0 41.667 -0.333008 63 -1z" />
    <glyph glyph-name="Y" unicode="Y" horiz-adv-x="691" 
d="M278 -12l-23 15.002c-1.33301 10.667 -2.33301 83.334 -3 218.001l-1 48c-23.333 52.667 -61.333 117 -114 193c-3.33301 14.667 -24 50 -62 106c-36.667 53.333 -55 85.666 -55 96.999c0 6.66699 5.33301 16 16 28c80.667 -2 133.667 -2 159 0
c3.33301 -0.666992 8.66602 -2.33398 15.999 -5.00098c4 -2.66699 25.333 -38.667 64 -108l69 -125h4c1.33301 1.33301 25.333 44.333 72 129c38.667 70 62.667 105.667 72 107s58 2 146 2c20.667 0 31 -8.33301 31 -25c0 -10.667 -35 -72.334 -105 -185.001
c-78.667 -127.333 -121 -197 -127 -209v-207c0 -34 -3 -56.167 -9 -66.5s-17.333 -15.5 -34 -15.5c-4.66699 0 -15.167 0.666992 -31.5 2s-30.166 2 -41.499 2z" />
    <glyph glyph-name="Z" unicode="Z" horiz-adv-x="628" 
d="M110 521c-24.667 0 -37.001 15.668 -37.001 47.001v65c2.66699 32.667 9.66699 50 21 52c8 1.33301 26 2 54 2c9.33301 0 23.666 -0.333008 42.999 -1h42c24 0 62.667 0.666992 116 2c50.667 2 89.334 3 116.001 3c43.333 -0.666992 82 -3.33398 116 -8.00098
c10.667 -1.33301 18 -9.66602 22 -24.999c2.66699 -10.667 3.66699 -25.667 3 -45c-1.33301 -35.333 -2 -48.333 -2 -39c0 -10.667 -0.666992 -18.334 -2 -23.001l-312 -401l5 -3c20 0 50.833 0.5 92.5 1.5s72.834 1.5 93.501 1.5c52 0 86.333 -1.66699 103 -5
c13.333 -2.66699 20 -19.667 20 -51c0 -51.333 -0.666992 -80.333 -2 -87c-2.66699 -14.667 -12 -23.334 -28 -26.001h-89l-208 1c-14 0 -38.667 -0.666992 -74 -2c-32.667 -0.666992 -58 -1 -76 -1c-28 0.666992 -52.333 2.66699 -73 6c-10 1.33301 -16 8 -18 20v31
c0 45.333 0.666992 71.333 2 78c0.666992 4.66699 48.5 67.334 143.5 188.001s148.833 187 161.5 199l13 19c-9.33301 0.666992 -91.333 1 -246 1z" />
    <glyph glyph-name="bracketleft" unicode="[" horiz-adv-x="399" 
d="M266 787c38.667 0 60.9971 -1.33301 66.9971 -4c14 -6 21 -25 21 -57v-51c-3.33301 -20.667 -12.666 -31 -27.999 -31c-3.33301 0 -6.66602 0.333008 -9.99902 1l-2 -1h-86c-1.33301 -64 -2 -138.333 -2 -223v-148c0.666992 -66 1 -115.333 1 -148l3 -5
c-7.33301 0 19.334 0 80.001 0c30 0 45 -13 45 -39v-32c0.666992 -12.667 1 -21 1 -25c0 -19.333 -4.66699 -31.833 -14 -37.5s-31.333 -8.16699 -66 -7.5h-205c-11.333 6.66699 -18 19.667 -20 39v47l2 608c0 58.667 0.666992 91 2 97c4 11.333 74.333 17 211 17z" />
    <glyph glyph-name="backslash" unicode="\" horiz-adv-x="910" 
d="M380 451l-0.000976562 110l-3 5c-45.333 -14.667 -82.666 -42.334 -111.999 -83.001s-44 -85 -44 -133c0 -15.333 2 -30.666 6 -45.999l6 -1c10 0 59 49.333 147 148zM376.999 129l3 5v85l-5 3c-18.667 -17.333 -37.667 -36 -57 -56l-1 -5c18 -17.333 38 -28 60 -32z
M541.999 221h-4.99902c-0.666992 -8.66699 -1 -17 -1 -25v-27c0 -20.667 1.33301 -33 4 -37c16 6 33.333 15.667 52 29l3 6c-10.667 12.667 -28.334 30.667 -53.001 54zM682 306c3.33301 14 5 28.333 5 43c0 46 -13.833 89.167 -41.5 129.5s-63.167 68.5 -106.5 84.5l-4 -10
c1.33301 -26.667 2 -61.667 2 -105l70 -76c29.333 -31.333 54.333 -53.333 75 -66zM860 346c0 -110 -40 -204.5 -120 -283.5s-175 -118.5 -285 -118.5c-112 0 -207.5 39.667 -286.5 119s-118.5 175 -118.5 287c0 99.333 33.667 186.833 101 262.5s150.333 120.167 249 133.5
l5 5l4 -3c10 0.666992 20.333 1 31 1c116.667 0 215 -37.333 295 -112c83.333 -76.667 125 -173.667 125 -291z" />
    <glyph glyph-name="bracketright" unicode="]" horiz-adv-x="423" 
d="M80 645c-18 0 -27.001 16.666 -27.001 49.999c0 46.667 1.33301 72 4 76c6 12 28.667 18 68 18c8.66699 0 31.667 0.333008 69 1c30.667 0.666992 55.334 0.666992 74.001 0c26.667 -0.666992 49.334 -2.66699 68.001 -6c10.667 -2 16.667 -8.33301 18 -19
c2 -17.333 3 -48.666 3 -93.999l-1 -565c0 -48.667 0.333008 -71.667 1 -69c-2 -31.333 -9.66699 -50 -23 -56c-144.667 -0.666992 -211.334 -1 -200.001 -1c-35.333 0 -56 1.66699 -62 5c-12 6 -18 23.333 -18 52c0 45.333 2.5 70.5 7.5 75.5s27.833 7.83301 68.5 8.5h40
l11 4v517l-5 3h-96z" />
    <glyph glyph-name="asciicircum" unicode="^" horiz-adv-x="1983" 
d="M1889 859c-8 -1.33301 -15.5 -6.16797 -22.5 -14.501s-10.5 -16.166 -10.5 -23.499v-151h-34v188c0 8 -2.66699 14 -8 18l21 25c12 -4 19 -14.667 21 -32c16.667 21.333 26.667 32 30 32h3v-42zM1806 833.998c0 -40 -16.334 -64.332 -49.001 -72.999
c0 -12.667 2.33301 -24.334 7 -35.001c6.66699 -13.333 15.334 -20 26.001 -20c3.33301 0 8.33301 1.33301 15 4v-38c-5.33301 -2 -11.333 -3 -18 -3c-44 0 -66 38.333 -66 115v27c0 60 14.333 90 43 90c28 0 42 -22.333 42 -67zM1703 669.999h-33.999v188
c0 6.66699 -3 10 -9 10c-2.66699 0 -5.33398 -2 -8.00098 -6v-192h-34v189c0 8.66699 -2.33301 14.667 -7 18l21 25c6.66699 -2 12.667 -7.33301 18 -16c8 10.667 16.667 16 26 16c18 0 27 -13.667 27 -41v-191zM1599 669.999h-34v186c0 8 -3 12 -9 12
c-2 0 -5 -2.33301 -9 -7v-191h-34v298h34v-80c7.33301 9.33301 15.333 14 24 14c18.667 0 28 -14.333 28 -43v-189zM1498 784.999c0 -78 -14 -117 -42 -117c-29.333 0 -44 39 -44 117c0 77.333 14 116 42 116c29.333 0 44 -38.667 44 -116zM1938 254.999h-33.999v185
c0 8 -2.66699 12 -8 12c-2.66699 0 -5.66699 -2.33301 -9 -7v-190h-34v186c0 7.33301 -3 11 -9 11c-2.66699 0 -5.66699 -2.33301 -9 -7v-190h-34c0 -2 0.666992 19 2 63c0.666992 38.667 0.666992 69.334 0 92.001c-0.666992 31.333 -3.33398 48.666 -8.00098 51.999l20 25
c9.33301 -3.33301 15.333 -9.33301 18 -18c8 12 17 18 27 18s18 -5.66699 24 -17c8.66699 11.333 17.667 17 27 17c18 0 27 -13.333 27 -40v-192zM1403 669.999h-63v298h40v-258h23v-40zM1784 369.999c0 -78 -14 -117 -42 -117c-29.333 0 -44 39 -44 117
c0 77.333 14 116 42 116c29.333 0 44 -38.667 44 -116zM1284 697.999l-20 -30c-9.33301 2.66699 -15.333 9.33398 -18 20.001c-8 -12.667 -15.667 -19 -23 -19c-22.667 0 -34 28.667 -34 86v41c0 70.667 17.333 106 52 106v66h34c0 -2 -0.5 -21.833 -1.5 -59.5
s-1.5 -69.167 -1.5 -94.5c0 -70.667 4 -109.334 12 -116.001zM1688 258.999c-5.33301 -4.66699 -10.999 -7 -16.999 -7c-31.333 0 -47 34.667 -47 104v37c0 62.667 16 94 48 94c5.33301 0 10.666 -1 15.999 -3v-35c-4 2 -7 3 -9 3c-14 0 -21 -20.667 -21 -62v-35
c0 -44.667 6.33301 -67 19 -67c5.33301 0 9 1.66699 11 5v-34zM1180 693.999l-27 -24.999c-12 3.33301 -18 13.333 -18 30v269h34v-251c0 -12.667 3.66699 -20.334 11 -23.001zM1564 306c0 -35.333 -13.334 -53 -40.001 -53c-8 0 -15.667 2 -23 6v35
c4 -4.66699 8.66699 -7 14 -7c11.333 0 17 5.66699 17 17c0 14.667 -5 36.334 -15 65.001s-15 50.334 -15 65.001c0 35.333 11.667 53 35 53c6.66699 0 14.334 -2.66699 23.001 -8v-32c-4 4 -8 6 -12 6c-9.33301 0 -14 -5.66699 -14 -17c0 -14.667 5 -36.334 15 -65.001
s15 -50.334 15 -65.001zM1615 275c0 -14.667 -7.33301 -22 -22 -22s-22 7.33301 -22 22s7.33301 22 22 22s22 -7.33301 22 -22zM1117 785c0 -78 -13.667 -117 -41 -117c-30 0 -45 39 -45 117c0 77.333 14.333 116 43 116s43 -38.667 43 -116zM1492 260c-6 -4 -12 -6 -18 -6
c-22 0 -33 13 -33 39v162h-18v10c8 8 22 27 42 57h10v-38h17v-29h-17v-157c0 -7.33301 3.33301 -11 10 -11c0.666992 0 3 0.666992 7 2v-29zM1023 859c-8 -1.33301 -15.5 -6.16797 -22.5 -14.501s-10.5 -16.166 -10.5 -23.499v-151h-34v188c0 8 -2.66699 14 -8 18l21 25
c12 -4 19 -14.667 21 -32c16.667 21.333 26.667 32 30 32h3v-42zM1410 254.998h-33.999v188c0 6.66699 -3 10 -9 10c-2.66699 0 -5.33398 -2 -8.00098 -6v-192h-34v189c0 8.66699 -2.33301 14.667 -7 18l21 25c6.66699 -2 12.667 -7.33301 18 -16c8 10.667 16.667 16 26 16
c18 0 27 -13.667 27 -41v-191zM944.002 697.998l-20 -28.999c-6.66699 1.33301 -12.667 7.66602 -18 18.999c-6.66699 -12.667 -14.667 -19 -24 -19c-22 0 -33 34 -33 102v27c0 68.667 23.333 103 70 103h16v-170c0 -17.333 3 -28.333 9 -33zM1310 369.999
c0 -78 -14 -117 -42 -117c-29.333 0 -44 39 -44 117c0 77.333 14 116 42 116c29.333 0 44 -38.667 44 -116zM1725 -160.001h-34v185c0 8 -2.66699 12 -8 12c-2.66699 0 -5.66699 -2.33301 -9 -7v-190h-34v186c0 7.33301 -2.66699 11 -8 11
c-3.33301 0 -6.66602 -2.33301 -9.99902 -7v-190h-34c0 -2 0.666992 19 2 63c1.33301 38.667 1.66602 69.334 0.999023 92.001c-1.33301 31.333 -4 48.666 -8 51.999l20 25c9.33301 -3.33301 15.333 -9.33301 18 -18c7.33301 12 16 18 26 18
c10.667 0 18.667 -5.66699 24 -17c9.33301 11.333 18.333 17 27 17c18 0 27 -13.333 27 -40v-192zM829.002 669.999h-40v126h-21v-126h-39v298h39v-134h21v134h40v-298zM1214 521.999c-10.667 -1.33301 -16 -8 -16 -20v-18h16v-29h-16v-182c0 -40.667 -16 -61 -48 -61v37
c9.33301 0 14 10 14 30v176h-15v29h15c0 48 14.667 71.667 44 71h6v-33zM1571 -45.001c0 -78 -14 -117 -42 -117c-29.333 0 -44 39 -44 117c0 77.333 14.333 116 43 116s43 -38.667 43 -116zM1140 305.999c0 -35.333 -12.998 -53 -38.998 -53
c-8.66699 0 -16.334 2 -23.001 6v35c3.33301 -4.66699 7.66602 -7 12.999 -7c12 0 18 5.66699 18 17c0 14.667 -5.16699 36.334 -15.5 65.001s-15.5 50.334 -15.5 65.001c0 35.333 11.667 53 35 53c7.33301 0 15.333 -2.66699 24 -8v-32c-4.66699 4 -9 6 -13 6
c-9.33301 0 -14 -5.66699 -14 -17c0 -14.667 5 -36.334 15 -65.001s15 -50.334 15 -65.001zM677.004 936.999c-19.333 -24 -34.667 -51.668 -46 -83.001c29.333 -24 44 -54.667 44 -92c0 -21.333 -3.33301 -40.666 -10 -57.999c-9.33301 -23.333 -23 -35 -41 -35
s-32 11.667 -42 35c-6.66699 18 -10 38 -10 60c0 34 7.83301 70.667 23.5 110s35.167 71.333 58.5 96zM1072 282.998l-20 -30c-9.33301 2.66699 -15.333 9.33398 -18 20.001c-8 -12.667 -15.667 -19 -23 -19c-22.667 0 -34 28.667 -34 86v41c0 70.667 17.667 106 53 106v66
h34c0 -2 -0.666992 -21.833 -2 -59.5s-2 -69.167 -2 -94.5c0 -70.667 4 -109.334 12 -116.001zM1476 -156.002c-6 -4 -12 -6 -18 -6c-31.333 0 -47 34.333 -47 103v37c0 62.667 16.333 94 49 94c4.66699 0 9.66699 -1 15 -3v-35c-4 2 -6.66699 3 -8 3
c-14 0 -21 -20.667 -21 -62v-35c0 -44.667 6 -67 18 -67c5.33301 0 9.33301 1.66699 12 5v-34zM968.003 278.998l-27 -24.999c-12 3.33301 -18 13.333 -18 30v269h34v-251c0 -12.667 3.66699 -20.334 11 -23.001zM556.003 815.999c0 -98 -17 -147 -51 -147
c-36.667 0 -55 49.667 -55 149c0 101.333 17.667 152 53 152s53 -51.333 53 -154zM1354 -136.001l-27 -24.999c-12 3.33301 -18 13.333 -18 30v269h34v-251c0 -12.667 3.66699 -20.334 11 -23.001zM1402 -140c0 -14.667 -7.33301 -22 -22 -22s-22 7.33301 -22 22
s7.33301 22 22 22s22 -7.33301 22 -22zM905.003 370c0 -78 -13.667 -117 -41 -117c-30 0 -45 39 -45 117c0 77.333 14.333 116 43 116s43 -38.667 43 -116zM1291 -45c0 -78 -13.667 -117 -41 -117c-30 0 -45 39 -45 117c0 77.333 14.333 116 43 116s43 -38.667 43 -116z
M436.003 816c0 -98 -17 -147 -51 -147c-37.333 0 -56 49.667 -56 149c0 101.333 17.667 152 53 152c36 0 54 -51.333 54 -154zM811.003 444c-8 -1.33301 -15.5 -6.16797 -22.5 -14.501s-10.5 -16.166 -10.5 -23.499v-151h-34v188c0 8 -2.66699 14 -8 18l21 25
c12 -4 19 -14.667 21 -32c16.667 21.333 26.667 32 30 32h3v-42zM1200 -132.002l-20 -28.999c-6.66699 1.33301 -12.667 7.66602 -18 18.999c-6.66699 -12.667 -14.667 -19 -24 -19c-22 0 -33 34 -33 102v27c0 68.667 23.333 103 70 103h16v-170c0 -17.333 3 -28.333 9 -33z
M314.003 669.999h-82.001c25.333 91.333 38 165 38 221c0 22.667 -6.33301 34 -19 34c-7.33301 0 -13.666 -3.33301 -18.999 -10v39c12 10.667 23.333 16 34 16c30.667 0 46 -24 46 -72c0 -38.667 -9.66699 -101.667 -29 -189l31 1v-40zM732.002 282.999l-20 -28.999
c-6.66699 1.33301 -12.667 7.66602 -18 18.999c-6 -12.667 -13.667 -19 -23 -19c-22.667 0 -34 34 -34 102v27c0 68.667 23.333 103 70 103h16v-170c0 -17.333 3 -28.333 9 -33zM1083 13c0 -21.333 -2.66895 -42.666 -8.00195 -63.999c-6.66699 -30 -17 -45 -31 -45
c-7.33301 0 -12.666 7.66699 -15.999 23c-5.33301 -15.333 -12.333 -23 -21 -23c-16.667 0 -25 22 -25 66c0 18.667 2.33301 37.667 7 57c6.66699 27.333 16.334 41 29.001 41c8 0 13.667 -5.66699 17 -17l1 11h20v-3c-8.66699 -68 -13 -103.667 -13 -107l2 -10l2 -4
c12 3.33301 18 29 18 77c0 58.667 -14 88 -42 88c-20 0 -35 -16.333 -45 -49c-6.66699 -23.333 -10 -48.333 -10 -75c0 -26 3.33301 -49.667 10 -71c8.66699 -30 22.667 -45 42 -45c14.667 0 29.667 13.667 45 41l8 -28c0 -8.66699 -6.83301 -18.5 -20.5 -29.5
s-25.167 -16.5 -34.5 -16.5c-24.667 0 -43 19.333 -55 58c-8.66699 27.333 -13 58 -13 92c0 33.333 4.66699 64.666 14 93.999c12.667 41.333 32 62 58 62c22 0 38.333 -15.667 49 -47c8 -22.667 12 -48 12 -76zM618 255h-34v186c0 8 -3 12 -9 12c-2 0 -5 -2.33301 -9 -7
v-191h-34v298h34v-80c7.33301 9.33301 15.333 14 24 14c18.667 0 28 -14.333 28 -43v-189zM207 812c0 -29.333 -3.66699 -57.666 -11 -84.999c-11.333 -39.333 -27.666 -59 -48.999 -59c-22 0 -38.667 19.667 -50 59c-7.33301 27.333 -11 55.666 -11 84.999
s3.66699 58 11 86c11.333 39.333 28 59 50 59c21.333 0 37.666 -19.667 48.999 -59c7.33301 -27.333 11 -56 11 -86zM934 29c-7.33301 -1.33301 -14.5 -6.16797 -21.5 -14.501s-10.5 -16.166 -10.5 -23.499v-151h-34v188c0 8 -2.66699 14 -8 18l20 25
c12.667 -4 20 -14.667 22 -32c16 21.333 26 32 30 32h2v-42zM519 274.998c0 -14.667 -7.33301 -22 -22 -22s-22 7.33301 -22 22s7.33301 22 22 22s22 -7.33301 22 -22zM468 483.998l-27 -231h-27l-13 147l-14 -147h-27l-28 231h35l7 -156l11 156h31l11 -155l7 155h34z
M852 3.99805c0 -40 -16.334 -64.332 -49.001 -72.999c0 -12.667 2.33301 -24.334 7 -35.001c6 -13.333 14.667 -20 26 -20c2.66699 0 7.33398 1.33301 14.001 4v-38c-4.66699 -2 -10.667 -3 -18 -3c-44 0 -66 38.333 -66 115v27c0 60 14.333 90 43 90s43 -22.333 43 -67z
M748.999 -160.001h-34.001v188c0 6.66699 -3 10 -9 10c-3.33301 0 -6.33301 -2 -9 -6v-192h-34v189c0 8.66699 -2.33301 14.667 -7 18l22 25c6.66699 -2 12.334 -7.33301 17.001 -16c8 10.667 16.667 16 26 16c18.667 0 28 -13.667 28 -41v-191zM324.998 483.999l-27 -231
h-28l-13 147l-14 -147h-27l-27 231h34l7 -156l11 156h31l11 -155l8 155h34zM643.998 -160.001h-34v186c0 8 -2.66699 12 -8 12c-2.66699 0 -6 -2.33301 -10 -7v-191h-34v298h35v-80c7.33301 9.33301 15.333 14 24 14c18 0 27 -14.333 27 -43v-189zM180.998 483.999l-27 -231
h-28l-13 147l-13 -147h-28l-27 231h34l7 -156l11 156h31l11 -155l8 155h34zM542.998 -45.001c0 -78 -13.667 -117 -41 -117c-30 0 -45 39 -45 117c0 77.333 14.333 116 43 116s43 -38.667 43 -116zM448.998 -160.001h-64v298h40v-258h24v-40zM363.998 -160.001h-39v126h-21
v-126h-40v298h40v-134h21v134h39v-298zM1772 833.999c0 14.667 -2.33301 25.334 -7 32.001c-6 -10.667 -9 -23.334 -9 -38.001v-29c10.667 4 16 15.667 16 35zM1463 783.999c0 48 -2.66699 74 -8 78c-5.33301 -4 -8 -28.667 -8 -74c0 -48 2.66699 -74.667 8 -80
c5.33301 6 8 31.333 8 76zM1749 368.999c0 48 -2.66699 74 -8 78c-5.33301 -4 -8 -28.667 -8 -74c0 -48 2.66699 -74.667 8 -80c5.33301 6 8 31.333 8 76zM1241 705.999v153.999c-11.333 -3.33301 -17 -20.666 -17 -51.999v-48c0 -38.667 3.66699 -58 11 -58
c4 0 6 1.33301 6 4zM1083 783.998c0 48 -2.66699 74 -8 78c-6 -4 -9 -28.667 -9 -74c0 -48 3 -74.667 9 -80c5.33301 6 8 31.333 8 76zM900.998 703.998v155c-11.333 -4 -17 -23.667 -17 -59v-41c0 -38 3.66699 -57 11 -57c2 0 4 0.666992 6 2zM1275 368.998
c0 48 -2.66699 74 -8 78c-5.33301 -4 -8 -28.667 -8 -74c0 -48 2.66699 -74.667 8 -80c5.33301 6 8 31.333 8 76zM1536 -46.002c0 48 -2.66699 74 -8 78c-5.33301 -4 -8 -28.667 -8 -74c0 -48 2.66699 -74.667 8 -80c5.33301 6 8 31.333 8 76zM1030 290.998v153.999
c-12 -3.33301 -18 -20.666 -18 -51.999v-48c0 -38.667 4 -58 12 -58c4 0 6 1.33301 6 4zM635.998 757.997c0 24.667 -6 42.332 -18 52.999c-4.66699 -12.667 -7 -29 -7 -49c0 -23.333 4.33301 -39.333 13 -48c8 6.66699 12 21.334 12 44.001zM514.998 813.995
c0 60.667 -4 97.334 -12 110.001c-8 -10 -12 -43.333 -12 -100c0 -63.333 4.33301 -100 13 -110c7.33301 11.333 11 44.666 11 99.999zM870.998 368.995c0 48 -2.66699 74 -8 78c-5.33301 -4 -8 -28.667 -8 -74c0 -48 2.66699 -74.667 8 -80c5.33301 6 8 31.333 8 76z
M1257 -46.0049c0 48 -2.66699 74 -8 78c-5.33301 -4 -8 -28.667 -8 -74c0 -48 2.66699 -74.667 8 -80c5.33301 6 8 31.333 8 76zM393.998 813.995c0 60.667 -4 97.334 -12 110.001c-7.33301 -10 -11 -43.333 -11 -100c0 -63.333 4 -100 12 -110
c7.33301 11.333 11 44.666 11 99.999zM1157 -126.005v155c-12 -4 -18 -23.667 -18 -59v-41c0 -38 4 -57 12 -57c2 0 4 0.666992 6 2zM688.998 288.995v155c-11.333 -4 -17 -23.667 -17 -59v-41c0 -38 3.66699 -57 11 -57c2.66699 0 4.66699 0.666992 6 2zM1028 14.9951
c0 14.667 -2 21.999 -6 21.999c-5.33301 0 -10 -10.333 -14 -31c-2.66699 -16 -4 -29.333 -4 -40c0 -19.333 2.66699 -29 8 -29c4 0 8 11.333 12 34c2.66699 18.667 4 33.334 4 44.001zM189.998 811.994c0 23.333 -2.66699 46.333 -8 69c-8 31.333 -19.667 47 -35 47
c-16 0 -28 -15.667 -36 -47c-5.33301 -22.667 -8 -45.667 -8 -69s2.66699 -46 8 -68c8 -31.333 20 -47 36 -47c15.333 0 27 15.667 35 47c5.33301 22 8 44.667 8 68zM817.998 3.99414c0 14.667 -2.66699 25.334 -8 32.001c-6 -10.667 -9 -23.334 -9 -38.001v-29
c11.333 4 17 15.667 17 35zM508.998 -46.0059c0 48 -2.66699 74 -8 78c-5.33301 -4 -8 -28.667 -8 -74c0 -48 2.66699 -74.667 8 -80c5.33301 6 8 31.333 8 76zM178.998 831.994h-19.999c-1.33301 19.333 -5 29 -11 29c-8 0 -12 -16.667 -12 -50c0 -32 4.33301 -48 13 -48
c5.33301 0 8.66602 9.33301 9.99902 28h20c-3.33301 -43.333 -13.666 -65 -30.999 -65c-12.667 0 -22.334 11.333 -29.001 34c-4 16 -6 33.333 -6 52c0 58 11.333 87 34 87c18 0 28.667 -22.333 32 -67z" />
    <glyph glyph-name="underscore" unicode="_" horiz-adv-x="1252" 
d="M528 951l-4.00195 3.99902c-1.33301 0 -2.66602 0.666992 -3.99902 2l-8 -6l1 3c0 2.66699 -1.66699 4.33398 -5 5.00098c0.666992 2 2.33398 3 5.00098 3c3.33301 0 7 -1.66699 11 -5l4 4c-2.66699 -2.66699 -2.66699 -6 0 -10zM503.998 963.999l-6 -12l-5 3
c0.666992 0.666992 1 1.66699 1 3l-19 6h29zM535.998 820.999c-2 2 -4.66113 2.99902 -7.99414 2.99902c-2.66699 0 -7 -1 -13 -3c-4 -1.33301 -9.66699 -1.33301 -17 0l-2 -4c-2 2 -4 3 -6 3c-8.66699 0 -13 -0.333008 -13 -1l-6 -6c-16 -2.66699 -28.667 -4 -38 -4l-6 4
c-2.66699 -3.33301 -5.66699 -5 -9 -5l-4 1l2 4l-6 2l-2 -4c-0.666992 2 -3.33398 2.83301 -8.00098 2.5s-8 0.833984 -10 3.50098l-12 -2l-8 6c-2 -2.66699 -6 -4 -12 -4c-2.66699 0 -7.66699 0.833008 -15 2.5s-13.333 2.16699 -18 1.5l-6 4
c-4.66699 -0.666992 -9.33398 -1 -14.001 -1h-14c-6 0.666992 -11 1 -15 1l-2 4c1.33301 4 5.33301 6 12 6c3.33301 0 4.66602 -2 3.99902 -6c2 0 4.66699 0.333008 8 1s5.66602 1 6.99902 1l8 -2l8 4l4 -4l10 6l2 -4h20c4.66699 0 12.667 -1.66699 24 -5
s19.666 -5 24.999 -5c7.33301 0 17.666 2 30.999 6c0 -2.66699 1.83301 -4.66699 5.5 -6l10.5 -4l2 6l4 -2l8 6l-4 -4l2 -4c2.66699 0 6.5 1.33301 11.5 4s9.83301 4 14.5 4l23 4v-6c7.33301 2 13 3 17 3l5 -1v-6zM267.004 837.998l-11 -10.999l-8 7
c-1.33301 -0.666992 -3.33301 -3.33398 -6 -8.00098l-4 2l-1 -1l-4 4c4.66699 6 9.66699 10 15 12l11 -5h8zM1207 399.999c0 -160.667 -56.8379 -297.668 -170.505 -411.001s-250.5 -170 -410.5 -170s-296.833 56.667 -410.5 170s-170.5 250.333 -170.5 411
c0 144 47.333 271 142 381l-1 -6c0 -2 1 -5.66699 3 -11l2 2l4 -6l-6 -4l4 -2l-2 -2l4 -2l-4 -2l6 -6l-8 -6c2.66699 -2 6.66699 -5.33301 12 -10c6.66699 0 11.334 -1.33301 14.001 -4l-2 -2l6 -2c2.66699 -3.33301 2 -7 -2 -11l6 -4l-1 -1c0 -0.666992 1 -2 3 -4
c0.666992 -1.33301 0 -2.33301 -2 -3c1.33301 -2 2.66602 -3 3.99902 -3c2.66699 0 5.66699 1.66699 9 5l6 -6l-2 -4l4 -4l-2 -4l11 -8c2 0 3.66699 1.33301 5 4l-6 6c4.66699 -2 10.834 -6.66699 18.501 -14s13.834 -12 18.501 -14s8 -5.83301 10 -11.5s4 -9.5 6 -11.5
l-2 2c-2.66699 -2.66699 -4 -5.66699 -4 -9c0 -2.66699 4.5 -4.83398 13.5 -6.50098s14.5 -3.83398 16.5 -6.50098l-2 -8c7.33301 -4 12 -8 14 -12c5.33301 -3.33301 8.66602 -2.66602 9.99902 2.00098c4 -3.33301 4 -7 0 -11c4 -4 7.66699 -4.66699 11 -2l4 -8h4l-4 -2
c2.66699 -4 7.33398 -9.33301 14.001 -16l2 2l4 -8l6 -4c2 -4.66699 6 -11.334 12 -20.001l-10 -7l2 -2l-2 -2l4 -2l-4 -2l2 -4c-1.33301 0.666992 -3 1 -5 1c-1.33301 0 -4 -1 -8 -3c-3.33301 -1.33301 -9 -1.33301 -17 0l-4 -4l-2 6l10 2l8 10l-2 7
c-4 0 -9 -2.33301 -15 -7s-10.667 -7.33398 -14 -8.00098l2 -2c0 -0.666992 -0.333008 -1 -1 -1l-4 3c-2 2 -3.66699 1.33301 -5 -2l-10 4l-6 -4c-3.33301 1.33301 -7.33301 4 -12 8l-2 -2l-8 11v2c-0.666992 2.66699 -2.66699 5.33398 -6 8.00098l4 2l-4 2v6l-5 2l5 2l-2 4
c3.33301 4 6.66602 10.667 9.99902 20h-8l-9 4c-4 -0.666992 -9.33301 -2.66699 -16 -6l4 -2l-4 -6l4 -2l-6 -2l6 -4l-3 -8l5 -10l-4 -2l6 -2l-4 -2l8 -10l-2 -6v-1l-2 -2l10 -8l18 -6l5 2l1 -3c2.66699 0 5 0.333008 7 1l2 -2l4 4l4 -6l3 1c4.66699 0 9 -1 13 -3
c-4 -2.66699 -6.66699 -2 -8 2l-2 -4c-8 4 -16.667 5.33301 -26 4l4 2l-1 1c-1.33301 0 -3.33301 0.333008 -6 1l-3 -2c-4.66699 0.666992 -11.667 2.66699 -21 6h-16l-6 4l-4 -4l-12 6l-4 -4l6 -8l4 4l9 -4h-1c-2.66699 0 -4 -0.666992 -4 -2s1.33301 -2.66602 4 -3.99902
l-4 -4l-2 4l-4 -2l2 -2l-6 12l-8 -6l2 -2l-2 2v0c-2.66699 2.66699 -5.66699 4 -9 4c-2.66699 0 -8 -1.33301 -16 -4l4 -6c6 -0.666992 21.5 -4.66699 46.5 -12s37.833 -11 38.5 -11c2.66699 0 5 1 7 3h-1c3.33301 -2.66699 11.333 -5.33398 24 -8.00098c10 -2 15 -5 15 -9
c0 -2 -0.666992 -5.16699 -2 -9.5s-2 -7.83301 -2 -10.5l4 -4c6 1.33301 7.33301 4 4 8h4c2 0 4.33301 2 7 6l-7 6l5 4l8 -4l6 8c4 0 8.66699 2.33301 14 7s9.33301 7.33398 12 8.00098l-4 2l4 2v6c2 -2.66699 8 -7.33398 18 -14.001l5 2l-2 1c-2 1.33301 -3.66699 3 -5 5
l5 -5c1.33301 -0.666992 2.66602 -1 3.99902 -1l8 4c-1.33301 -2.66699 -5.5 -6 -12.5 -10s-10.5 -8 -10.5 -12v-3l10 -8l5 2c2 -2 4.66699 -3 8 -3c-2 0 4 1.66699 18 5l8 -2c-4 -1.33301 -6 -3.66602 -6 -6.99902c0 -1.33301 1.33301 -5 4 -11l-4 -4
c8.66699 -6 14.334 -9 17.001 -9s4 1.66699 4 5l-15 14l6 10l2 -2l4 6c-4 2.66699 -10 5.33398 -18 8.00098l6 9l2 -3c0.666992 1.33301 1.33398 2.33301 2.00098 3l2 -3c6.66699 6.66699 15 17.667 25 33l-7 2l5 2l-9 4c3.33301 4.66699 4 10.667 2 18l9 4l-2 3l2 2
c0 -0.666992 0.166992 -1.16699 0.5 -1.5s0.833008 -0.5 1.5 -0.5c0.666992 1.33301 1.33398 3.33301 2.00098 6l-4 10c4 2.66699 6.66699 8 8 16h2c4 -0.666992 8.83301 2.5 14.5 9.5s8.83398 10.5 9.50098 10.5l-2 4l-3 1c-5.33301 0 -8.33301 -1.66699 -9 -5l-2 4l-2 -2
c3.33301 1.33301 8 3.33301 14 6l2 2l-2 -2c1.33301 -0.666992 2.66602 -1 3.99902 -1c2 0 5.16699 1 9.5 3s8.16602 3.5 11.499 4.5s4.33301 2.16699 3 3.5c-1.33301 4 -2 6.33301 -2 7v4h3c3.33301 0 7 1.33301 11 4c6.66699 4.66699 10.334 7.33398 11.001 8.00098
c-2 0 -3.5 1.5 -4.5 4.5s-1.83301 4.5 -2.5 4.5l-1 -1l-12 -4l-5 4c4 1.33301 6.33301 5.83301 7 13.5s2.66699 12.5 6 14.5c-0.666992 -0.666992 -1 -1.33398 -1 -2.00098c0 -2 1.66699 -3.33301 5 -4c3.33301 2.66699 10 3.33398 20 2.00098c4 2.66699 9.33301 7 16 13
c1.33301 -2 1.33301 -4.33301 0 -7c-1.33301 -4 -2 -6.33301 -2 -7c0 -2 1.33301 -3.66699 4 -5c4.66699 0.666992 8 5 10 13c4.66699 1.33301 11 4.66602 19 9.99902l4 -4l-8 -10l8 -9l8 6l-2 3l2 2l-4 2v6l8 2l-1 2c0 1.33301 1.66699 4 5 8
c2 2.66699 2 5.33398 0 8.00098l-2 -2v6l2 -2l4 6c5.33301 -8.66699 11.666 -13 18.999 -13c6 0 10 3 12 9l-9 2l-4 -4l-12 6c-0.666992 0.666992 -1 2 -1 4c0 1.33301 1.5 3.5 4.5 6.5s4.5 4.83301 4.5 5.5s0.333008 1.33398 1 2.00098
c0 -1.33301 0.666992 -2.66602 2 -3.99902c1.33301 0 3 1.33301 5 4l-2 4c2.66699 5.33301 10.334 6 23.001 2l10 5l6 -5l2 1c1.33301 -4 4 -7.66699 8 -11h2l4 6c-1.33301 4.66699 -4.66602 8.33398 -9.99902 11.001c6.66699 0 11.334 1.33301 14.001 4l-8 10l4 -4
c7.33301 3.33301 12.666 5 15.999 5c4 0 7.66699 -3 11 -9c0.666992 2 3.33398 4.66699 8.00098 8l-4 2l6 6c0 4 -4 7.33301 -12 10l-8 -4l2 -4c-4.66699 -2 -10.334 -1.33301 -17.001 2l-4 -4l-4 2c0 2 1.66699 3.33301 5 4s5 2 5 4h5c4 -0.666992 9.83301 0.5 17.5 3.5
s10.5 5.83301 8.5 8.5c2.66699 2.66699 6.66699 2.66699 12 0c1.33301 0.666992 2 1.66699 2 3s-4.66699 4.33301 -14 9l-4 -6l-2 2c-2.66699 -5.33301 -6.66699 -8 -12 -8s-11.666 2.66699 -18.999 8l-4 -8l-4 2c-5.33301 -7.33301 -11.666 -11 -18.999 -11
c-2 0 -4.5 -1.16699 -7.5 -3.5s-5.5 -3.5 -7.5 -3.5l-6 4c-1.33301 -0.666992 -7.83301 -3.16699 -19.5 -7.5s-18.334 -6.5 -20.001 -6.5s-2.83398 -1.33301 -3.50098 -4l-4 2l-4 -4c-1.33301 2 -2.66602 3 -3.99902 3s-3.33301 -1 -6 -3
c-2.66699 -1.33301 -5 -1.33301 -7 0l-4 -6l-5 1c-2 0 -5.33301 -0.666992 -10 -2s-8.33398 -1.66602 -11.001 -0.999023l-4 -6l-10 4l-4 -4c-4 -0.666992 -8 0.666016 -12 3.99902l-7 -6c0 1.33301 -1.33301 1.66602 -4 0.999023l-4 -2c-1.33301 0 -2 1 -2 3l10 8l13 -2
l46 28l-2 -2l4 -2l2 4l2 -2c4.66699 5.33301 13.5 9.16602 26.5 11.499s21.833 5.16602 26.5 8.49902l10 -2l-2 2l9 4l-5 2c4 1.33301 8.33301 0.666016 13 -2.00098l6 5h14c5.33301 0 8.66602 2 9.99902 6l-8 4l4 2l-2 2l45 8l-4 8h-3c-2 0 -4.83301 -0.833008 -8.5 -2.5
s-6.5 -2.5 -8.5 -2.5s-3.66699 0.333008 -5 1l12 6l-2 2l2 2l-6 2c-2.66699 0.666992 -6.66699 -0.666016 -12 -3.99902l2 -2c-0.666992 0 -1.66699 0.833008 -3 2.5s-2.66602 2.5 -3.99902 2.5l-7 -5l-4 2l-8 -4l2 -2c-22.667 0.666992 -35.667 -1.33301 -39 -6v0l-6 -2
l-2 4l8 -2v0c4 1.33301 8.66699 4.66602 14 9.99902l-2 4c0.666992 0 6.33398 5.33301 17.001 16v-3c0 -2.66699 -2 -5.66699 -6 -9l4 -8c6.66699 1.33301 16 4.66602 28 9.99902l-2 2l4 6l6 -1c2 0 4.66699 1.16699 8 3.5s5.33301 3.5 6 3.5l-4 2l6 4l11 -6l6 9l3 -1
c3.33301 0 6.33301 1 9 3l-2 4l10 -2l10 6c0 4 -2.66699 6 -8 6c-10 -5.33301 -19 -8 -27 -8c-9.33301 0 -14 0.666992 -14 2s1.33301 2.66602 4 3.99902l-4 4c-8.66699 -2 -20.667 -8 -36 -18v-7h-5c-5.33301 0 -8.33301 2.33301 -9 7
c-2.66699 -1.33301 -7 -3.66602 -13 -6.99902c1.33301 -0.666992 2 -1.66699 2 -3c0 -2.66699 -2 -4.33398 -6 -5.00098v6l-10 6c-0.666992 -4 -2.66699 -6.16699 -6 -6.5s-6.66602 -0.833008 -9.99902 -1.5l2 -2c0 0.666992 -0.666992 1.33398 -2 2.00098s-3 1 -5 1
c-4.66699 0 -12 -1.5 -22 -4.5s-17.333 -4.5 -22 -4.5c-2 1.33301 -3 3 -3 5c0 1.33301 0.333008 2.33301 1 3c2 -2 4 -3 6 -3c1.33301 0 3.5 1.33301 6.5 4s5.5 3.66699 7.5 3v9l5 4c1.33301 -2.66699 3.66602 -4 6.99902 -4c6.66699 0 13 3 19 9v1l2 8l2 -4
c-1.33301 -2 -2.66602 -3.66699 -3.99902 -5c2 -1.33301 5 -2 9 -2l5 1l4 6c-4.66699 2.66699 -7 5.33398 -7 8.00098l1 2l8 -8h9c4 -0.666992 6.66699 -1 8 -1c6 0 10 2.33301 12 7l-4 4l-10 -4l-3 4l5 4c-0.666992 4 -3.66699 6.66699 -9 8c2.66699 2 4.33398 3 5.00098 3
c3.33301 0 6.66602 -3.66699 9.99902 -11l8 8l-4 2l4 10l8 -8l8 8h-6c2 0.666992 3 1.33398 3 2.00098c0 4.66699 -4 7 -12 7l-9 -5v3c0 3.33301 -2.66699 6.66602 -8 9.99902v0l-3 2l3 -2c2 1.33301 3 2.66602 3 3.99902c0 0.666992 -3.33301 4 -10 10l2 4
c-4 2.66699 -5.33301 6 -4 10c-2 2.66699 -6 5.33398 -12 8.00098c4 2 6.33301 5 7 9s1 7.66699 1 11l-4 3l-8 -5l-6 7c-4 -0.666992 -6 -4.33398 -6 -11.001l4 -2l-4 -2c8 -4.66699 12 -8.66699 12 -12c-4 0 -6 -3.33301 -6 -10l-6 2l3 8l-5 6l-2 -6h-14l-8 -4l-5 8l-4 -4
l-2 10c-2.66699 -2 -5 -2.66699 -7 -2l-13 4c-0.666992 -1.33301 -2.5 -1.83301 -5.5 -1.5s-5.16699 -0.5 -6.5 -2.5c-0.666992 0.666992 -1 2 -1 4c0 0.666992 1.16699 1.83398 3.5 3.50098s3.5 2.83398 3.5 3.50098c0 1.33301 -0.666992 2.33301 -2 3l-4 -4
c1.33301 10.667 8.66602 17 21.999 19c2.66699 0.666992 13.667 1 33 1c160 0 296.833 -56.833 410.5 -170.5s170.5 -250.5 170.5 -410.5zM207.999 782.998c0 -2.66699 -1.66699 -4.66699 -5 -6l-2 2l-2 -4l-8 8l2 4c3.33301 -3.33301 7.33301 -4 12 -2l2 2z
M380.999 463.998c-2 -2 -4.33301 -3 -7 -3l-7 7c0 2 0.666992 3 2 3c3.33301 0 7.33301 -2.33301 12 -7zM273.999 481.998c-2.66699 3.33301 -6.99902 7.33301 -12.999 12c1.33301 0 5.66602 -1.33301 12.999 -4l-6 -2zM681 956.998l-9 8.00098
c-2 -0.666992 -3.33301 -5.33398 -4 -14.001l6 -4zM784 704.999l-1.99902 4h-6l-6 9l-4 -4c3.33301 -11.333 5.66602 -17 6.99902 -17c3.33301 0 7 2.66699 11 8zM761.001 704.999c0 2 -0.999023 4.33301 -2.99902 7l-6 2v-7l-2 -2c5.33301 1.33301 8.66602 0 9.99902 -4z
M766.002 692.999c-8 4 -13.999 5.33301 -17.999 4c-4 4 -7.66699 6 -11 6c-2.66699 0 -4 -1.33301 -4 -4c0 -4 3.66699 -7 11 -9c5.33301 -0.666992 10.666 -1.66699 15.999 -3zM788.003 617.999l-2.00098 4c0 2 -0.333008 3 -1 3c-1.33301 0 -3.66602 -2.33301 -6.99902 -7
l2 -4zM792.002 605.999l-6 6l-6 -6l6 -2c2 0 4 0.666992 6 2zM778.002 607.999l0.000976562 6l-4 2l-6 -6l2 -4c1.33301 -0.666992 2.66602 -1 3.99902 -1c2.66699 0 4 1 4 3zM759.003 603.999c0 2.66699 -1 5.33301 -3 8l-4 -2l2 -2h-3c-4 0 -6.33301 -1.33301 -7 -4l-5 2
l-4 -6l4 -4c13.333 4 20 6.66699 20 8zM682.003 661.998c0 5.33301 -2 7.99902 -6 7.99902c-2 0 -6.66699 -3.66699 -14 -11l2 -6c2.66699 2.66699 7.66699 4 15 4c2 0.666992 3 2.33398 3 5.00098zM855.003 436.997l-5.99805 4l2 4
c-2.66699 2.66699 -7.33398 5.33398 -14.001 8.00098l4 5c-1.33301 2.66699 -3.33301 4 -6 4c-4.66699 0 -10 -3 -16 -9l10 -4l-2 -4c0.666992 -0.666992 1.66699 -2.83398 3 -6.50098s3 -5.5 5 -5.5v10l2 4c6 -8.66699 10.667 -13 14 -13c1.33301 0 2.66602 1 3.99902 3z
M753.005 532.997c-2 4.66699 -3.66602 7 -4.99902 7s-2.33301 -1.66699 -3 -5l-2 -2c2 -2.66699 4 -4 6 -4c1.33301 0 2.66602 1.33301 3.99902 4zM819.006 440.997l-2 2l2 2c0 2.66699 -2.33301 4 -7 4c-5.33301 -2 -9.33301 -4 -12 -6c4 -5.33301 8.33301 -8 13 -8l-2 -2
l4 -2zM737.006 501.997c-8 6.66699 -13.333 15.999 -16 27.999l8 7l-4 4c-6 0 -10.667 -2.66699 -14 -8l2 -4l-4 -4c4.66699 -9.33301 12 -18.666 22 -27.999zM805.006 436.996c-3.33301 3.33301 -8.33301 7.33301 -15 12l-10 -6c0 -1.33301 2.83301 -3.5 8.5 -6.5
s9.16699 -4.5 10.5 -4.5c2.66699 0 4.66699 1.66699 6 5zM821.006 381.996c-1.33301 6.66699 -4.66699 15.667 -10 27l-4 -2l-1 -5c0 -2 1.16699 -3.5 3.5 -4.5s3.5 -4.16699 3.5 -9.5c0 -2.66699 1.33301 -4 4 -4l-4 -2h8zM811.005 497.996l-9.00391 10l-2 -4l-2 2
c-5.33301 -4 -12 -11.333 -20 -22l-4 8l-2 -2l-2 2l-10 -10l-8 1c-6 0 -11.667 -1.66699 -17 -5l2 2l-4 2l-4 -2l-2 4l-4 -2l2 2h-6c-0.666992 2.66699 -2.83398 5 -6.50098 7s-6.16699 3.66699 -7.5 5l2 2l-4 2v4c0 5.33301 -2 10.333 -6 15l2 4l-4 2
c1.33301 4 4.66602 9.33301 9.99902 16l-4 4c-4.66699 -2 -12 -4.66699 -22 -8c-5.33301 -5.33301 -10.333 -8 -15 -8l-4 -6c-1.33301 -1.33301 -2.66602 -2 -3.99902 -2l-1 1l5 11c-0.666992 0.666992 0.333008 1.33398 3 2.00098c0.666992 0 2 0.666992 4 2
c1.33301 0.666992 2.33301 0.333984 3 -0.999023c0.666992 1.33301 7.16699 5.5 19.5 12.5s20.166 11.167 23.499 12.5c10.667 -4 14.334 -6 11.001 -6c2.66699 0 4.33398 0.666992 5.00098 2l-2 2c5.33301 -0.666992 13 0.666016 23 3.99902l8 -6l8 4
c2.66699 -0.666992 6.83398 -2.5 12.501 -5.5s10.167 -4.5 13.5 -4.5l2 4c-1.33301 2.66699 -4.66602 5 -9.99902 7s-8.66602 4.33301 -9.99902 7c-2 -0.666992 -3.66699 -1 -5 -1c-2 0 -3 1 -3 3l4 6l-4 4l-4 -4c-4 4.66699 -7.33301 5.33398 -10 2.00098l-4 5
c0.666992 0 -4 0 -14 0c-3.33301 0 -5.66602 -1.66699 -6.99902 -5l-4 2l-8 -6c-1.33301 1.33301 -2.66602 2 -3.99902 2c-6 0 -14.667 -2.83301 -26 -8.5s-18.333 -10.834 -21 -15.501c-0.666992 2.66699 -2.33398 4 -5.00098 4c-1.33301 0 -5.83301 -3.33301 -13.5 -10
s-12.167 -10.667 -13.5 -12l2 -6c-8 -5.33301 -14.667 -11 -20 -17l6 -6c4 0 6.66699 3.33301 8 10l12 -8l8 11v-11l-2 2l-2 -4l-2 2c-1.33301 -1.33301 -2.33301 -3.66602 -3 -6.99902c0 -8 3.66699 -13.667 11 -17l2 4l2 -4l2 2
c1.33301 -1.33301 1.66602 -3.66602 0.999023 -6.99902l-1 1v1c0 0.666992 -0.333008 1 -1 1c-2.66699 0 -6.33398 -1.33301 -11.001 -4l-4 4c-1.33301 -0.666992 -2.33301 -1.66699 -3 -3c0.666992 2.66699 1 6.33398 1 11.001l-6 2l2 2l-12 -2c4 -4 6 -8 6 -12
c-6 3.33301 -15.667 7.33301 -29 12l-4 6c-4.66699 0.666992 -10.667 -1.33301 -18 -6l4 -4c-2 -0.666992 -3 -2.33398 -3 -5.00098s1.16699 -5 3.5 -7s4.5 -2.33301 6.5 -1l-7 -5c-4.66699 0 -11.334 0.666992 -20.001 2l-4 -4l2 4l-9 1
c-4.66699 0 -15.334 -1.66699 -32.001 -5l4 -2l-4 -2l8 -4l2 4c2 -1.33301 5.33301 -3 10 -5l-8 -3c-6 4 -10 6 -12 6c-2.66699 0 -2.66699 -1.33301 0 -4l-6 4c1.33301 0.666992 2.66602 2 3.99902 4l-2 4l-16 -2c-8 -0.666992 -12 -2 -12 -4
c-6.66699 -6.66699 -10 -11.667 -10 -15l3 -8c0.666992 2 2.66699 3.16699 6 3.5s4.33301 1.83301 3 4.5l8 -6c2 0 3 1 3 3s-0.333008 3.66699 -1 5l4 -6l2 2l2 -2l2 4h4c-1.33301 -3.33301 -5.5 -5.5 -12.5 -6.5s-10.833 -3.5 -11.5 -7.5l-2 2
c-3.33301 -2.66699 -5.66602 -7.33398 -6.99902 -14.001l-2 2l-2 -6c3.33301 -2.66699 8.33301 -6 15 -10c1.33301 0 2 0.666992 2 2c0 2.66699 -1.33301 6 -4 10l10 4v10c6.66699 0 11.334 1.33301 14.001 4l-2 -2c1.33301 -0.666992 3 -1 5 -1
c1.33301 0 3.5 0.833008 6.5 2.5s5.16699 2.5 6.5 2.5c2.66699 0 4.66699 -2 6 -6c1.33301 4 5.33301 6 12 6l9 -4l10 6c0.666992 -2 3 -3 7 -3l7 -3l2 4l23 1c2 0 3 -3 3 -9l2 2l2 -2c2.66699 -2.66699 5.66699 -7.33398 9 -14.001c2.66699 5.33301 6.66699 8 12 8l8 8
l-8 4l-2 -4c-0.666992 2 -2 2.33301 -4 1c-2 -2 -3.33301 -3 -4 -3v2l2 6c4.66699 1.33301 10.667 0 18 -4l4 4c1.33301 -2 7.33301 -3.33301 18 -4l2 4l4 -6l7 4l2 -4c2 1.33301 4.33301 2 7 2s7 -2 13 -6l2 4h18l2 -4l4 4c8.66699 -5.33301 22.334 -8 41.001 -8
c0.666992 0 1 0.333008 1 1c1.33301 -1.33301 3 -2.33301 5 -3l4 2c6 -4 13.333 -10 22 -18l7 6l-7 10l-3 -1c-1.33301 0 -3 1 -5 3s-4 2.66699 -6 2l-6 8l-8 -4l-3 2c4.66699 3.33301 7 6.33301 7 9c0 2 -0.666992 3.66699 -2 5c-0.666992 -1.33301 -1.66699 -2 -3 -2
s-2.33301 1.33301 -3 4l-4 -4c-2 2 -4.66699 3 -8 3l-8 -3l4 4l-3 4c2 0 5 0.333008 9 1l2 -5l6 5h2c2.66699 0 5.83398 -1.33301 9.50098 -4s6.83398 -4 9.50098 -4c2 0 3 2.66699 3 8c0 0.666992 -4.66699 2.66699 -14 6c6 0.666992 12.667 4.16699 20 10.5
s10 12.166 8 17.499zM764.001 375.996v8c-6.66699 1.33301 -16.334 4.33301 -29.001 9l-8 -9c-1.33301 2 -3 3 -5 3c-1.33301 0 -3.66602 -1.66699 -6.99902 -5l-4 2c-0.666992 -1.33301 -1 -3 -1 -5c0 -8 6.33301 -12 19 -12c6 0 10.333 2.33301 13 7
c1.33301 -0.666992 2.66602 0 3.99902 2l4 -4c6.66699 0 11.334 1.33301 14.001 4zM713.001 396.996l-3.99805 2.00098l4 2c-12.667 5.33301 -31.667 14 -57 26c-0.666992 -2.66699 -1.66699 -4 -3 -4s-2.33301 0.666992 -3 2l2 2l-2 2l2 2c-1.33301 1.33301 -3 2 -5 2
c-6 0 -9.66699 -2.66699 -11 -8l4 -4v-6l4 -4l-2 -4l4 -4l-2 -4l12 -4l4 10c1.33301 -0.666992 4.66602 -5.33398 9.99902 -14.001c1.33301 1.33301 3 2 5 2c2.66699 0 5 -0.5 7 -1.5s4.83301 -2 8.5 -3s6.5 -1.5 8.5 -1.5c3.33301 0 4.66602 2.66699 3.99902 8l6 -4z
M789.003 285.997c0 0.666992 -1 2.66602 -3 5.99902c-2 2 -2 3 0 3l-4 2c-2 -1.33301 -3 -2.66602 -3 -3.99902c0 -3.33301 2.33301 -7.33301 7 -12c2 1.33301 3 3 3 5zM737.003 344.996c0 2 -0.666992 4.33301 -2 7l-4 -4l-4 4c-6.66699 0 -10 -2.66699 -10 -8
c0 -4 1.33301 -8 4 -12l8 10l2 -2l2 2l2 -2c1.33301 1.33301 2 3 2 5zM776.003 282.996l-6 7.99902c-2.66699 -3.33301 -4 -6.66602 -4 -9.99902l6 -6zM908.003 387.995l-7.99316 7l-4 -2l-3 8c0 2 1.66699 3.33301 5 4l-4 4l-4 -2l-2 4h16l2 4c-1.33301 2 -4.33301 3 -9 3
l-7 3l4 4c-2 5.33301 -5.33301 8 -10 8c-6.66699 0 -10 -3.33301 -10 -10l-4 -10c-1.33301 -3.33301 -4.33301 -7.33301 -9 -12l4 -4l-6 -2c-0.666992 2 -0.5 4.83301 0.5 8.5s1.5 6.16699 1.5 7.5l-6 6c-1.33301 -2.66699 -2.66602 -4 -3.99902 -4
s-2.66602 0.666992 -3.99902 2l2 2c-0.666992 0.666992 -1.16699 1.66699 -1.5 3s-2.83301 2 -7.5 2c-6 0 -13.667 -1 -23 -3l6 -10l1 -1c4 0 7 2.33301 9 7l6 -4v-10l6 -6l-2 -4l4 -5l-2 -4c2.66699 -1.33301 4 -3.33301 4 -6s-2 -4.66699 -6 -6l4 -2v-5l-6 -5l4 -2h-2
c-3.33301 0 -5 -1.66699 -5 -5l3 -7c-0.666992 -1.33301 -1.66699 -2 -3 -2s-2.33301 1.33301 -3 4c2 3.33301 3 7 3 11c0 9.33301 -3 14 -9 14l-2 -1c1.33301 -4 2 -8.33301 2 -13l-2 -11l4 -2l-4 -2l2 -2c-1.33301 4.66699 -5.33301 10 -12 16
c2.66699 2.66699 4.66699 6.66699 6 12l-4 2l-4 -4l-10 4c-0.666992 -4 -2.33398 -8 -5.00098 -12c-12 -6 -20 -8.66699 -24 -8l-6 -8l2 -4l-2 -2l4 -2c-2.66699 -2.66699 -5.33398 -4 -8.00098 -4l-6 4c-2.66699 -2.66699 -11.667 -4 -27 -4c-2 0.666992 -4.33301 1 -7 1
l-7 -3l-8 4l-6 -4l-2 2c-2 -1.33301 -4.33301 -2 -7 -2l-7 4l-4 -4l-13 8l1 2c0 4 -2.33301 7.33301 -7 10l-8 -8l-4 2c1.33301 2 4 4 8 6v6l-6 2l-2 -4l-4 4c1.33301 2.66699 5 5.33398 11 8.00098s9 6 9 10l-6 6l-6 -6c-8 2.66699 -14 5.33398 -18 8.00098l2 2l-4 2l4 2
l-4 3l2 2l-4 -1c-3.33301 0 -5.33301 1.66699 -6 5c-1.33301 -1.33301 -1.66602 -3.33301 -0.999023 -6c1.33301 -3.33301 2 -5.33301 2 -6c0 -1.33301 -0.333008 -2.33301 -1 -3l-4 6l-4 -8c6 -4 12.667 -12 20 -24l-8 -6c1.33301 -1.33301 2 -2.66602 2 -3.99902
c0 -0.666992 -1 -2.66699 -3 -6c-1.33301 -2.66699 -1 -4.66699 1 -6c-2.66699 2.66699 -9.33398 3.33398 -20.001 2.00098l-7 6c-10 1.33301 -20.667 4 -32 8l-6 10l-8 -4c-2.66699 2.66699 -5.33398 6.66699 -8.00098 12c-4 1.33301 -7.33301 5 -10 11s-5 10 -7 12
c1.33301 0.666992 2 2.33398 2 5.00098s-2 5.66699 -6 9c-2.66699 8 -6 12.667 -10 14l-4 -4c0 -6.66699 2 -10 6 -10l-4 -2l10 -8l-2 -4l4 -5l-2 -4l4 -8l2 2c2.66699 -12.667 9 -23.334 19 -32.001c0.666992 -0.666992 4.5 -2.33398 11.5 -5.00098s10.5 -5 10.5 -7
s-0.666992 -3 -2 -3s-4 2.33301 -8 7l-4 -2l-2 4h-10c-0.666992 2.66699 -3.5 4 -8.5 4s-7.83301 1.33301 -8.5 4l2 2c-3.33301 2 -8 6 -14 12c0 -0.666992 -0.666992 -1.33398 -2 -2.00098c-0.666992 0 -1.66699 1.16699 -3 3.5s-3 3.16602 -5 2.49902l-10 6
c-2.66699 -0.666992 -4 -2 -4 -4c0 -1.33301 1.16699 -3.33301 3.5 -6s3.83301 -4.66699 4.5 -6l2 2l4 -6l4 4l-1 -4c0 -2 2 -3.83301 6 -5.5s6.33301 -3.16699 7 -4.5c4.66699 -8.66699 15.667 -15.334 33 -20.001c13.333 -2.66699 26.666 -5.66699 39.999 -9l2 4
c2.66699 -2 7.66699 -4 15 -6c8 -2.66699 12.667 -2.66699 14 0c2 -2 6 -2.83301 12 -2.5s10 -0.833984 12 -3.50098l4 4c1.33301 -2.66699 4.66602 -4 9.99902 -4h2l2 4l9 -4h12v-6c4.66699 -3.33301 10.667 -8.66602 18 -15.999l-6 2c-0.666992 -4.66699 -4 -10 -10 -16
l-4 2l4 2c-2.66699 4 -5.66699 6 -9 6c-4.66699 0 -9.33398 -2.66699 -14.001 -8l5 6c-2 4 -6.33301 6 -13 6l2 2c-5.33301 0 -13.333 2.66699 -24 8c2 0 3 0.666992 3 2l1 -2l8 6c-4 4 -8 6 -12 6c-1.33301 0 -2.66602 -0.666992 -3.99902 -2l2 -2l-2 2
c-2 0.666992 -4 1 -6 1l-8 -3l2 -4l-6 -6c0.666992 -3.33301 2 -4.66602 4 -3.99902l-2 -2l-4 2l-2 -4l6 -8l-2 -4l8 -9l-6 -4c2 -4 8 -7.33301 18 -10l2 -10l8 -8l4 4l-4 4l2 4l6 -4l-2 -2l2 -2l-2 -2l7 -7c2.66699 -2.66699 5.66699 -3.66699 9 -3l-4 -4
c4 -2 7 -5.66699 9 -11c2.66699 -8 4.66699 -12.667 6 -14l6 2l-2 -4l6 -6v-1c0 -3.33301 -2 -5.66602 -6 -6.99902l-6 10c-1.33301 -2 -2.33301 -3 -3 -3c-1.33301 0 -2.83301 0.833008 -4.5 2.5s-3.5 2.5 -5.5 2.5c-5.33301 0 -8 -2 -8 -6s-0.666992 -6.66699 -2 -8
c5.33301 -4 9.33301 -4.66699 12 -2l7 -4c-1.33301 -0.666992 -4.16602 -1.5 -8.49902 -2.5s-6.5 -2.5 -6.5 -4.5c0 -3.33301 3.16699 -5.33301 9.5 -6s10.166 -1.66699 11.499 -3c2.66699 2.66699 8.5 5.66699 17.5 9s14.5 7.66602 16.5 12.999l2 4l2 -2l2 2
c4.66699 -1.33301 4.66699 -3.33301 0 -6c4 -4 8.66699 -6 14 -6l5 -10c21.333 3.33301 31.333 10.666 30 21.999l6 4c-2 2 -3 4.33301 -3 7l3 7l-6 7l4 4l-6 4l4 4l-4 2c4 1.33301 8 4 12 8v8l-8 4l-4 -4l4 -2l-2 -2l2 -2l-10 2l4 2v2c0 2 -1.5 3.5 -4.5 4.5
s-4.83301 2.16699 -5.5 3.5l6 4c-4.66699 4.66699 -8.66699 5.33398 -12 2.00098c-6 1.33301 -7.33301 4 -4 8c-13.333 8.66699 -22 13 -26 13s-7 -3 -9 -9l-2 11c-0.666992 0.666992 -1 1.66699 -1 3s1.33301 3 4 5s3 4 1 6c2.66699 1.33301 5 2.66602 7 3.99902
c-0.666992 -1.33301 -1 -3 -1 -5c0 -4 5.33301 -7.66699 16 -11l5 4l-2 4l4 4l4 -2c3.33301 2.66699 5 5.33398 5 8.00098l-7 6c-8.66699 -2.66699 -12.334 -6.66699 -11.001 -12l-4 4c-1.33301 0.666992 -3 1.33398 -5 2.00098c3.33301 1.33301 6.33301 2.66602 9 3.99902
l-4 6c-2.66699 -2 -6 -3 -10 -3c-14.667 0 -20.667 0.333008 -18 1v6c9.33301 -1.33301 23.666 -2 42.999 -2l2 2c8 0 19.333 2 34 6l-2 2l8 -4l2 4l2 -4l20.5 4c7 1.33301 11.833 4.66602 14.5 9.99902l-6 7l-4 -5l-4 5l10 6l-2 2c0 0.666992 0.333008 1 1 1s2 -1 4 -3
s3.66699 -1.33301 5 2c1.33301 -8.66699 3.66602 -13 6.99902 -13c2.66699 0 5.66699 0.666992 9 2l-6 7l8 6l6 -8c4 3.33301 10.333 8 19 14l-4 2l4 2c-0.666992 6.66699 0 10 2 10c1.33301 0 2.66602 -1.33301 3.99902 -4l-2 -4c2 -2 3.66699 -3 5 -3s3 1 5 3l-2 2l12 10
l-4 4l-2 -4c-2 2 -3 3.66699 -3 5c0 -1.33301 3 1.66699 9 9l-2 4l-4 -2l-4 6c4 0.666992 10 2 18 4zM618.01 400.995c-2 0 -3.83398 1.83301 -5.50098 5.5s-3.5 5.16699 -5.5 4.5l2 2l-4 2l6 4c-4 1.33301 -10 4 -18 8l-8 -2c2.66699 0.666992 4 3 4 7v3l-6 4
c-3.33301 -4 -6.33301 -6 -9 -6c-2 0 -5 1.33301 -9 4c-7.33301 -2.66699 -15 -4 -23 -4l2 -4c-1.33301 -2.66699 -2 -6 -2 -10l4 -10l-4 -2c6 -6 11.667 -7.33301 17 -4c2.66699 -7.33301 8.66699 -9.33301 18 -6l2 -4c6.66699 0 11.334 1.33301 14.001 4
c0 -6 2.33301 -9 7 -9c6 0 11.333 2.33301 16 7l-2 4l2 -2zM622.009 350.995c0 2.66699 -1.33301 4.33301 -4 5c-2.66699 1.33301 -5 1.33301 -7 0v0c-0.666992 2 -1.66699 3 -3 3c-2 0 -3.66699 -0.333008 -5 -1l-2 -4l2 -4l-2 -4c4.66699 -3.33301 8.66699 -5 12 -5
c6 0 9 3.33301 9 10zM821.009 156.994l-3.99902 4c-2 -2.66699 -9 -6.5 -21 -11.5s-19.667 -7.5 -23 -7.5h-5c-2.66699 0.666992 -4.66699 1 -6 1l-2 -4c-2.66699 1.33301 -5.66699 1 -9 -1s-5 -4.66699 -5 -8l4 -2l-4 -2l4 -4c0.666992 2.66699 4.33398 3 11.001 1
c9.33301 -2 14.333 -3 15 -3l2 -6l9 -4c4 0 10.667 3.33301 20 10l-5 4l3 4c4 -2.66699 8.66699 -2 14 2v1c0 6.66699 -4 10 -12 10h-3c-0.666992 1.33301 -1.33398 2 -2.00098 2s-1.33398 -0.333008 -2.00098 -1c3.33301 3.33301 8.33301 5 15 5zM341.01 572.994
c0 3.33301 -2 5 -6 5l-8 -3c1.33301 -4 3.33301 -6 6 -6c1.33301 0 4 1.33301 8 4zM225.01 680.994c-8.66699 4.66699 -13.667 7 -15 7c-4 0 -6 -3.66699 -6 -11c0 -2.66699 1 -4 3 -4c0.666992 0 3 0.666992 7 2c2 0.666992 3.66699 0 5 -2zM508.01 386.994
c0 2.66699 -1.5 6.66699 -4.5 12s-5.83301 8 -8.5 8c-1.33301 0 -2.33301 -1.33301 -3 -4l6 -10c0 -4.66699 2.66699 -8.33398 8 -11.001c1.33301 0.666992 2 2.33398 2 5.00098zM331.01 578.994l-4 7c-0.666992 -0.666992 -1.33398 -1 -2.00098 -1s-2 1 -4 3
c-1.33301 1.33301 -2.66602 0.666016 -3.99902 -2.00098c-2.66699 2.66699 -8 5.33398 -16 8.00098c-2 1.33301 -5.33301 2 -10 2h-5l-6 -6c0.666992 -2.66699 3 -3.66699 7 -3l8 -3l2 4c5.33301 -3.33301 14 -7 26 -11zM334.01 559.994
c-1.33301 2.66699 -3.66699 3.99902 -7 3.99902c-1.33301 0 -3.5 -1.16699 -6.5 -3.5s-4.5 -4.16602 -4.5 -5.49902c0 -2 1 -3 3 -3c3.33301 0 8.33301 2.66699 15 8zM679.009 196.993l-2 7.00098l-15 2l4 8l-4 2c-2.66699 -2.66699 -6 -5.33398 -10 -8.00098l10 -11l-2 -2
l4 -2l-4 -2l2 -4c1.33301 0.666992 7 4 17 10zM227.009 639.994l-2 9l-6 -7l2 -4c0 -1.33301 0.666992 -2 2 -2c0.666992 0 2 1.33301 4 4zM325.009 536.994h-6l-2 -4l4 -4zM227.009 623.994c-2 6 -6.66699 14.332 -14 24.999c-0.666992 -2 -1.66699 -3 -3 -3
s-2.33301 1.66699 -3 5c-1.33301 -1.33301 -2 -2.66602 -2 -3.99902c0 -0.666992 1.33301 -2.66699 4 -6c2 -3.33301 2 -5 0 -5c2 -4 6 -9.33301 12 -16zM743.009 91.9932c0 0.666992 -0.666016 2.00195 -1.99902 4.00195
c-0.666992 1.33301 -0.333984 2.66602 0.999023 3.99902l-5 2l5 2c-2.66699 5.33301 -7.66699 12.666 -15 21.999c-1.33301 -1.33301 -2 -3 -2 -5c0 -3.33301 1.33301 -6.33301 4 -9l-2 -4c2 -2 4.66699 -5.33301 8 -10l-2 -4l2 -12c5.33301 6 8 9.33301 8 10z
M396.01 432.995c-2 3.33301 -4 5 -6 5l-2 -1l4 -8zM573.01 243.995l-4 6l2 8l-4 2l4 3l-6 2l4 2l-4 13c-2 5.33301 -5.33301 8 -10 8c-2 0 -3 -2.33301 -3 -7c0 -2 0.666992 -3.66699 2 -5l-1 -3l-9 2l-4 -6l6 -6v-8c0 -5.33301 1.66699 -10.333 5 -15l-5 -6l3 -6l12 10
l-4 2l4 2l8 -4zM386.01 428.995l-4 2.00098l4 2v6c0 4 -3.33301 6 -10 6l-8 -10l4 -4l4 2c-0.666992 -0.666992 -1 -1.33398 -1 -2.00098c0 -2 1.66699 -4 5 -6zM268.01 522.996l-6 7.99805c0.666992 0.666992 1 1.33398 1 2.00098c0 2.66699 -1 4.66699 -3 6
c-2.66699 -3.33301 -4 -6.66602 -4 -9.99902c0 -6 2.66699 -10.333 8 -13zM729.01 64.9941l-2.00098 4l-10 -6l2 -6c0.666992 1.33301 1.33398 2 2.00098 2c1.33301 0 2 -0.666992 2 -2zM280.009 512.994l-4 3l-10 -10l2 -4c2.66699 0 6 2.66699 10 8v0zM685.009 109.994
c-1.33301 2.66699 -3.33301 4 -6 4c-3.33301 0 -7 -2 -11 -6l9 -12v7c0 1.33301 1.33301 2.33301 4 3zM337.009 420.994l-10 4l-4 4l-6 -2c0.666992 0 1 -0.666992 1 -2s-0.333008 -2 -1 -2l8 -6c4.66699 0 8.66699 1.33301 12 4zM673.009 87.9941l-1 4
c-0.666992 0 -1 0.666992 -1 2s0.333008 2 1 2l-4 2c-8.66699 -6.66699 -14 -14.667 -16 -24l4 -2c11.333 8 17 13.333 17 16zM650.009 63.9941l-6 10l-4 -5l2 -4l2 2l-2 -10l2 2l2 -2c2.66699 0 4 2.33301 4 7zM297.009 405.994
c0 3.33301 -1.33398 6.33105 -4.00098 8.99805l-3 -2l-2 4c0 1.33301 1.33301 2 4 2c0 0.666992 -0.666992 1.33398 -2 2.00098c-6 6 -9 10 -9 12c0 0.666992 0.333008 1.33398 1 2.00098c-1.33301 2.66699 -4.66602 6 -9.99902 10v8l-4 3l4 2c-4 4 -8.66699 6 -14 6
c0.666992 -6.66699 4 -15.667 10 -27l-4 -2l6 -4c-1.33301 -0.666992 -2 -1.33398 -2 -2.00098s1 -2 3 -4c1.33301 -1.33301 1 -2.66602 -1 -3.99902c3.33301 -2 7.33301 -6.66699 12 -14l4 2c1.33301 -6 3.33301 -9 6 -9c3.33301 0 5 2 5 6zM337.008 377.992
l0.000976562 4.00098c-6.66699 4.66699 -13.334 6 -20.001 4c1.33301 1.33301 2 2.33301 2 3c0 1.33301 -1.33301 2.66602 -4 3.99902l-8 -11l2 -4c0.666992 2.66699 2.33398 4 5.00098 4c1.33301 0 3 -0.666992 5 -2c5.33301 1.33301 8.66602 0 9.99902 -4l2 4l2 -4z
M504.009 233.993c-2.66699 16 -3.99902 22.668 -3.99902 20.001c0 3.33301 1.33301 7 4 11c-2.66699 4.66699 -4 11 -4 19c0 3.33301 -1.33301 5.66602 -4 6.99902c2.66699 2.66699 4 7.33398 4 14.001h-8c-0.666992 1.33301 -2.33398 3.83301 -5.00098 7.5s-4 6.5 -4 8.5
l5 2v7c-2 -2 -4 -3 -6 -3c-3.33301 0 -5 1.66699 -5 5c0 1.33301 1.16699 2.66602 3.5 3.99902s3.5 2.66602 3.5 3.99902l-1 2l-8 2c0 2 1.5 4.5 4.5 7.5s4.5 5.5 4.5 7.5l-1 3h-4l-12 37l-2 -1c-1.33301 0 -2.66602 1.66699 -3.99902 5l-4 -2l-2 6
c-3.33301 0 -8.16602 0.333008 -14.499 1s-10.833 1 -13.5 1v4c-8.66699 0 -15.334 -4.83301 -20.001 -14.5s-7 -19.167 -7 -28.5c-4 -5.33301 -6 -8.66602 -6 -9.99902s0.666992 -3.16602 2 -5.49902s2 -4.16602 2 -5.49902v-1l-8 -8c4 0 6 -2.66699 6 -8h-4l-4 -11l-6 4
c-5.33301 -4 -14.333 -6 -27 -6l-4 -4c-2.66699 5.33301 -5.33398 8 -8.00098 8c-12 0 -16.667 -0.666992 -14 -2v-4l-4 -2c-4.66699 3.33301 -8.33398 5 -11.001 5l-7 -5c4 -2 6 -4.66699 6 -8v-2l-8 4l-4 -10c0 -5.33301 2 -11.333 6 -18s6 -12.334 6 -17.001
c0 -3.33301 -0.666992 -7.33301 -2 -12l6 -6c0 -9.33301 2 -18 6 -26l-2 -4l10.5 -12c3.66699 -4 5.5 -8.33301 5.5 -13l6 -4l-2 -6c1.33301 -1.33301 7 -5.33301 17 -12c-1.33301 3.33301 -0.666016 8.66602 2.00098 15.999c-2.66699 5.33301 -6.33398 8 -11.001 8v7
c2.66699 -6 7 -7.66699 13 -5c4 -6.66699 11.333 -16 22 -28l4 -10l-4 -2c2 -6 5 -9 9 -9c6.66699 2 11 5 13 9c2 -2 7 -2.66699 15 -2l2 -4l2 -1c2 0 4.83301 1.5 8.5 4.5s6.83398 4.5 9.50098 4.5l2 -4c4 0 9.33301 2 16 6l-2 4l6 2l6 10l25 18l-2 7
c1.33301 6.66699 4 10 8 10c0 2 -0.333008 5.33301 -1 10s-1 8 -1 10zM391.01 373.994l-3 7.99609l-6 -6l2 -4l-5 1c-3.33301 0 -10.666 -1 -21.999 -3c-8 -2 -16 -2 -24 0l-2 -4c0 2.66699 -1.33301 4.66699 -4 6c-4.66699 0.666992 -7.33398 1.33398 -8.00098 2.00098
l-11 -1l-7 1l-2 -4c-3.33301 0.666992 -5 2 -5 4c0.666992 0.666992 1.66699 1.33398 3 2.00098l6 -2c1.33301 1.33301 2 2.66602 2 3.99902c0 3.33301 -4 5.33301 -12 6l-3 -10c-5.33301 4 -16.666 6.66699 -33.999 8c0.666992 1.33301 1 2.33301 1 3c0 2 -1.66699 4 -5 6
c-3.33301 0 -7.5 1.66699 -12.5 5s-9.16699 5 -12.5 5l1 2c0 1.33301 -1.33301 3.33301 -4 6s-4.33398 4.66699 -5.00098 6l-2 -2l-0.5 0.5l-1.5 1.5l-2 -2l-20 20l2 4l-4 4l-4 -2l2 -2l-2 -2c-1.33301 0.666992 -2 3.66699 -2 9c0 0.666992 -0.666992 1 -2 1l-6 -6
c-1.33301 3.33301 -4 6.66602 -8 9.99902c2 0 3 1 3 3c0 1.33301 -2 4.33301 -6 9s-7.33301 7 -10 7l4 2l-6 2l2 2c-3.33301 2 -8 5.33301 -14 10l-4 -4l-2 4c7.33301 0 11 2 11 6c0 6.66699 -3.66699 7.33398 -11 2.00098c-8 2.66699 -10.667 6 -8 10l-4 2l-2 4l2 -2
c2.66699 3.33301 4 6 4 8c-2 4.66699 -4.66699 8.33398 -8 11.001c-0.666992 -2 -2.66699 -4.66699 -6 -8s-5 -6 -5 -8c0 -1.33301 1.66699 -2.83301 5 -4.5s5.33301 -3.16699 6 -4.5l4 4c-3.33301 -2.66699 -5.33301 -7 -6 -13c-0.666992 -8 -1.33398 -13 -2.00098 -15
l4 -2c-3.33301 -2 -5 -4.66699 -5 -8c0 -2.66699 1 -4.66699 3 -6c1.33301 3.33301 3.66602 5 6.99902 5c1.33301 0 2 -5.33301 2 -16c0 -7.33301 2.33301 -12 7 -14c-1.33301 0 -2 -0.333008 -2 -1s1 -2 3 -4c1.33301 -1.33301 1 -2.33301 -1 -3l8 -6l-2 -2l10 -8l-2 -2
c4.66699 -4.66699 8.66699 -7 12 -7l2 2c0.666992 -12 14.334 -21.333 41.001 -28c8 3.33301 13.333 5 16 5c3.33301 0 8.5 -1.33301 15.5 -4s12.833 -3.66699 17.5 -3l4 -6l4 2l8 -6l2 4l10 -6l6 4h2c-4.66699 -4 -7 -7 -7 -9c0 -0.666992 0.333008 -1 1 -1
c4 0 8.66699 -1.5 14 -4.5s8.33301 -4.5 9 -4.5l3 2c1.33301 1.33301 2.33301 1 3 -1l2 4l-8 8l-4 -2c-1.33301 0.666992 -2.33301 1.33398 -3 2.00098h3c2 0 4 0.666992 6 2l-2 2c0 -0.666992 7.33301 -2.66699 22 -6c-8 -1.33301 -12 -4 -12 -8l8 -4l-4 -2
c0.666992 -4 3.33398 -9.33301 8.00098 -16c0 0.666992 0.666992 1 2 1s2 -0.333008 2 -1c2.66699 5.33301 4 8.33301 4 9c0 4.66699 -2.66699 7 -8 7l-4 2l14 2l8 -4l6 4l4 -4l19 6l10 4l-8 2l14 10c0.666992 2.66699 1 5.33398 1 8.00098zM634.01 42.9902l-3.99902 2l4 2
c0 5.33301 -2 11.333 -6 18l-2 -4l2 -4l-6 -8l2 -4l2 2c-2.66699 -3.33301 -5.33398 -5.33301 -8.00098 -6l4 -2l-4 -2l10 -8c2 0.666992 3 2.66699 3 6zM601.011 79.9902l-6 5.99902c-2 0 -3 -2 -3 -6s-1 -6 -3 -6l4 -7l6 7c-1.33301 0.666992 -2 1.33398 -2 2.00098
c0 2 1.33301 3.33301 4 4zM195.011 499.989c-4 1.33301 -9.33301 3.33203 -16 5.99902l-10 -2v-6h-7l3 2l-5 2c-5.33301 -3.33301 -8 -6.66602 -8 -9.99902c1.33301 -2.66699 3.33301 -4.66699 6 -6l4 6c2.66699 -2.66699 5 -4 7 -4l8 6l-4 -4
c3.33301 -2.66699 7.33301 -4 12 -4l8 4l-2 4zM595.011 50.9883l-4.00098 1.99707l4 2v6c-2.66699 2.66699 -7.33398 5.33398 -14.001 8.00098c3.33301 2 5 4.33301 5 7l-7 10l-10 -6c2 -3.33301 3 -6.33301 3 -9c0 -1.33301 -0.333008 -2.66602 -1 -3.99902l-2 2v-6l-4 4
l-6 -4l-2 -6c2.66699 -1.33301 5.33398 -2 8.00098 -2c5.33301 0 9.33301 2.66699 12 8l2 -4l-2 -2l4 -2l-8 -10l10 -4l-2 2c6.66699 2.66699 11.334 5.33398 14.001 8.00098zM563.01 44.9854c0 4 -2 6 -6 6l-6 -6c1.33301 -8 4 -12 8 -12zM112.01 485.985l-6 8l4 4l-4 4
c-0.666992 -2.66699 -2 -4 -4 -4c-0.666992 0 -1.66699 0.666992 -3 2l3 4l-9 8l1 -3c0 -4 -1.66699 -7 -5 -9c4.66699 -1.33301 8 -5.33301 10 -12c1.33301 0 2 -0.666992 2 -2s-0.666992 -2 -2 -2l9 -6zM565.01 91.9854l-5.99902 10l-4 -10c0 6.66699 -1.66699 10 -5 10
h-1l-11 -10l-4 2l-4 -2c1.33301 -5.33301 1.33301 -10 0 -14l4 -2l-4 -2l2 -2c0 -1.33301 -0.666992 -2 -2 -2s-2 0.666992 -2 2l-2 -5l-2 2c0 2 0.5 5 1.5 9s1.5 6.66699 1.5 8l-3 8c-0.666992 0.666992 -1.66699 1 -3 1c-2 0 -3 -3 -3 -9l4 -2
c0.666992 -1.33301 1 -3 1 -5c0 -1.33301 -1 -2.33301 -3 -3c0 2 -1 4.66699 -3 8s-3 6 -3 8l-10 -2l6 -10l-6 -8l2 12l-12 6c-0.666992 -5.33301 -4.33398 -12.333 -11.001 -21l5 -2c-4.66699 0 -7 -2.66699 -7 -8l5 -2c2.66699 2.66699 6.66699 4.66699 12 6l6 -4
c-1.33301 -1.33301 -4.66602 -2.66602 -9.99902 -3.99902s-8 -3.33301 -8 -6l6 -8l6 8l8 -2c4 4.66699 8.33301 7 13 7l9 -5l-6 -4l4 -2l-4 -2l8 -10l6 4l-4 2c2.66699 3.33301 6.66699 8.66602 12 15.999c2 -0.666992 3.66699 -1 5 -1c2 0 3.5 2.83301 4.5 8.5
s4.16699 9.5 9.5 11.5l-4 2l4 2l-4 2l2 2c-0.666992 0 -1.33398 0.666992 -2.00098 2l2 2l-4 2zM614.011 -25.0146c0 3.33301 -2.33301 7.66699 -7 13c-2 -2 -3 -4 -3 -6c0 0.666992 3.33301 -3.33301 10 -12v5zM652.011 -71.0137l-4.00098 2l4 2l-6 6l2 2
c-0.666992 2.66699 -2 4 -4 4c-1.33301 0 -2.66602 -0.333008 -3.99902 -1l-1 -5c0 -8.66699 3.66699 -14 11 -16zM636.01 -63.0137l-6 6.99902c-4 -2 -4.66699 -6.33301 -2 -13l-4 -4l8 -4c2.66699 2.66699 4 7.33398 4 14.001zM443.01 117.985
c-0.666992 2.66699 -2.66699 4 -6 4c-2 0 -4 -0.666992 -6 -2l-2 -6c0 -2 0.666992 -4 2 -6l2 -1c0.666992 0 1.66699 1 3 3s3 2.66699 5 2zM643.01 -97.0146l-1 6.00293c1.33301 9.33301 0 14.666 -4 15.999c-5.33301 -6.66699 -6 -11.334 -2 -14.001
c-3.33301 -2.66699 -5 -5.33398 -5 -8.00098c4 -5.33301 7.66699 -8 11 -8zM429.01 129.988c-2.66699 0 -5.66699 -1.33301 -9 -4l-8 -8l9 -6l6 8zM414.01 136.988l-4 6c-9.33301 -2 -14 -8 -14 -18c0 -1.33301 1.33301 -2.33301 4 -3zM475.01 87.9883v8
c-2 0.666992 -5.16699 0.333984 -9.5 -0.999023s-7.5 -2 -9.5 -2l-3 1c9.33301 2 16 5.33301 20 10c-2.66699 2 -5.66699 3 -9 3c0.666992 0 -5 -1.66699 -17 -5l-8 -6l-4 2c-1.33301 -2.66699 -3.33301 -3.33398 -6 -2.00098l-6 3c-1.33301 -0.666992 -2 -1.66699 -2 -3
l6 -10l-2 -4c0 -2.66699 1.33301 -6 4 -10l-4 -5c4 -1.33301 7.33301 -5.33301 10 -12l-4 -2l4 -2l-2 -2h10c1.33301 0 2 0.333008 2 1s-0.666992 1.33398 -2 2.00098c2.66699 2 4 4 4 6c0 1.33301 -1.33301 2.33301 -4 3l-2 -4v2c-1.33301 3.33301 -4 7.66602 -8 12.999
c1.33301 5.33301 3 8 5 8c1.33301 0 2.33301 -1.33301 3 -4c7.33301 5.33301 12 8 14 8c3.33301 0 6 -2 8 -6l4 4l-1 3zM599.01 -46.0117c-0.666992 2.66699 -2.66602 6.6709 -5.99902 12.0039c-0.666992 -1.33301 -1.66699 -2 -3 -2s-2.33301 1.33301 -3 4
c1.33301 3.33301 2.66602 8 3.99902 14c-3.33301 1.33301 -5.83301 4.66602 -7.5 9.99902s-3.16699 8.66602 -4.5 9.99902h-6c0 -2.66699 1 -6.83398 3 -12.501s3 -9.83398 3 -12.501c0 -4.66699 -2.66699 -7.66699 -8 -9v6c-6.66699 6 -10.667 12.667 -12 20l4 15
c0.666992 -2 1.66699 -3 3 -3s2.33301 1.66699 3 5l-6 10c-0.666992 -0.666992 -1.33398 -2.5 -2.00098 -5.5s-1.33398 -4.5 -2.00098 -4.5c-2 0 -3.33301 2 -4 6s-1.66699 6 -3 6c-12 0 -21.333 -10.333 -28 -31l4 -8l-10 -6l2 -2l-4 -4c-1.33301 4 -4 8.66699 -8 14
c-1.33301 -1.33301 -2.33301 -2 -3 -2c-2 0 -3 2.66699 -3 8l2 2l-2 2l2 2l-6 5l6 8c0 -1.33301 0.333008 -2 1 -2s2 0.666992 4 2c1.33301 1.33301 2.33301 1.33301 3 0l8 4c-1.33301 2.66699 -9.33301 6 -24 10l-4 8l-9 -8l7 -6c5.33301 0 8 -1 8 -3
c0 -0.666992 -1.33301 -1.66699 -4 -3l-4 -9c0 -1.33301 0.333008 -2.33301 1 -3l3 -3c-4.66699 -1.33301 -10.334 -1.33301 -17.001 0c-8 -2 -12 -5 -12 -9c0 -0.666992 2 -5 6 -13l-4 -8l4 -2l-2 -2l4 -2l-4 -2l4 -8l6 8l2 -2l2 2c2 -6 9 -9 21 -9
c2.66699 0 6.33398 1.5 11.001 4.5s8.33398 4.5 11.001 4.5c3.33301 0 5.33301 -1.33301 6 -4c4 0 7.33301 3.33301 10 10l-4 2c8.66699 2.66699 15 6 19 10c0 -5.33301 2 -8 6 -8l-4 -2l-1 -5c0 -3.33301 1.66699 -5 5 -5c0.666992 0 3.33398 -1 8.00098 -3
c3.33301 -1.33301 6 -1 8 1l-10 -8c2 -2 4.33301 -3 7 -3c5.33301 0 10.333 2.33301 15 7l2 -4zM525.011 9.99219c0 2 -1.33301 2.99902 -4 2.99902c-10 0 -15 -5.66699 -15 -17c6.66699 0 10.667 -2 12 -6l4 4l-4 2c4.66699 4.66699 7 9.33398 7 14.001zM626.011 -115.009
c-2.66699 8 -6.33203 12 -10.999 12h-1v-6c-0.666992 -1.33301 -1.33398 -2.33301 -2.00098 -3c0 -2.66699 2 -5.66699 6 -9zM382.013 129.991l-2 5h-10l-2 -5l6 -6zM640.013 -115.009l-4 3.99805l-2 -4l-2 2c-10 -13.333 -15 -22.666 -15 -27.999
c0 -2.66699 1.66699 -4 5 -4l12 5c-3.33301 0 -5 1.33301 -5 4s1.66699 6.33398 5 11.001s5.33301 8 6 10zM573.013 -67.0107c-2.66699 3.33301 -6.66699 7 -12 11l-4 -7l3.5 -6c2.33301 -4 4.83301 -6 7.5 -6h1zM421.013 93.9893l-5 4
c-2 -3.33301 -10.667 -4.66602 -26 -3.99902l-2 -4h-1c-1.33301 0 -3 1 -5 3s-3.66699 3 -5 3c-1.33301 -0.666992 -2.33301 -1.33398 -3 -2.00098c2 -1.33301 4 -6.66602 6 -15.999c2 3.33301 4.66699 5 8 5l6 -5l-4 -4l6 -7c0.666992 3.33301 2.66699 7.66602 6 12.999
l-4 2l10 8l4 -4zM620.013 -71.0107l-3.99805 2.00098v3c0 2 -1.33301 4.16699 -4 6.5s-4.33398 4.16602 -5.00098 5.49902l-4 -5l6 -8l2 2l-2 -5c-2.66699 3.33301 -5.66699 5 -9 5c-6 0 -10.333 -3.33301 -13 -10l-8 2l-2 2l-4 -12c0.666992 -4.66699 2 -10.667 4 -18
c1.33301 1.33301 4.66602 10 9.99902 26h6l4 -8c-2.66699 -2.66699 -4.66699 -2 -6 2l-4 -4c2.66699 -1.33301 4 -3.66602 4 -6.99902c0 -1.33301 -1.33301 -5.33301 -4 -12c-2 -5.33301 -2 -9 0 -11l-6 -6c0.666992 -1.33301 1 3 1 13c0 2 -1 3.66699 -3 5l-6 -10l-2 2
l-2 -13l12 -5l-6 -5l-4 6l-6 -10h8v-6c8.66699 -4 13 -7.33301 13 -10c-0.666992 -2 -1.66699 -3.33301 -3 -4c7.33301 -5.33301 14 -12.333 20 -21l8 1c-7.33301 5.33301 -10 12.666 -8 21.999l-4 4c-1.33301 -4 -2.66602 -6 -3.99902 -6
c-0.666992 0 -1.33398 0.666992 -2.00098 2c0.666992 4 2.83398 7.66699 6.50098 11s5.5 6.33301 5.5 9l-6 10c0.666992 1.33301 1 2.66602 1 3.99902c0 0.666992 -1 2.33398 -3 5.00098s-3.33301 4.66699 -4 6l4 4c-1.33301 2 -2 4.33301 -2 7l6 9l-4 8
c0.666992 1.33301 1.33398 2 2.00098 2c1.33301 -0.666992 2 -1.33398 2 -2.00098c1.33301 2.66699 3.66602 6.33398 6.99902 11.001l-1 -1c1.33301 -0.666992 2.66602 -1 3.99902 -1c2.66699 0 5.66699 1 9 3zM559.015 -81.0098c0 5.33301 -3.33301 8.00098 -10 8.00098
c-8.66699 -6.66699 -13 -11.334 -13 -14.001l4 -10l11 8c-4 1.33301 -6 2.33301 -6 3c0.666992 0.666992 2 1 4 1zM453.015 1.99121l-4 2l-4 -2l2 2l-4 3l-4 -5l6 -8c0 1.33301 0.666992 2 2 2s2 -0.666992 2 -2zM463.015 -18.0088v4.00098l-2 4
c-4.66699 -0.666992 -10.667 -3.33398 -18 -8.00098l2 -4h8zM512.015 -59.0078l-2 5l-4 -2l-10 6c-8.66699 0 -15.667 0.666992 -21 2l-2 -4l-2 2c0 -4 -1.33301 -7 -4 -9l4 -2l6 5l-1 1c3.33301 1.33301 9.33301 -2 18 -10l-2 -2c1.33301 -2 3.33301 -3 6 -3
c5.33301 0 10 3.66699 14 11zM543.015 -125.008l-3.00098 12c-1.33301 5.33301 -0.666016 9.33301 2.00098 12l-10 6v-6l-4 -4l4 -2l-4 -2c3.33301 -14 6 -21 8 -21c4.66699 0 7 1.66699 7 5zM483.014 -65.0078l-8 2l-6 -8l6 -6c5.33301 4 8 8 8 12zM496.014 -94.0078
l-4 7.00098l-11 -6l5 -2l-5 -2l11 -4c2.66699 1.33301 4 3.66602 4 6.99902zM479.014 -85.0068l-7.99902 8c-0.666992 -0.666992 -1.33398 -1 -2.00098 -1l-2 3l-2 -2c-2.66699 2.66699 -6.66699 3.33398 -12 2.00098l-4 2c-2 -0.666992 -3 -2 -3 -4s1 -4.66699 3 -8l6 6
l4 -4l9 4c-2 -2.66699 -3 -5.33398 -3 -8.00098l6 -8zM532.015 -142.007l-4 4l-10 -8c2 -10.667 4 -16 6 -16c2.66699 0 4.66699 2 6 6h-2c-1.33301 0 -2 1 -2 3v3zM508.015 -131.007c0 3.33301 -1.33301 5 -4 5c-6.66699 0 -10 -3 -10 -9c0 -2 1.33301 -3 4 -3
c6.66699 0 10 2.33301 10 7zM480.015 -114.007l-3 6.99902c-0.666992 2.66699 0 4.66699 2 6c-1.33301 3.33301 -3.66602 5 -6.99902 5l-9 -5c2.66699 -1.33301 4.66699 -4.16602 6 -8.49902s2.66602 -6.83301 3.99902 -7.5l4 2c2 0 3 0.333008 3 1zM494.015 -107.008
l-4 1.99902l-4 -8c0 -2.66699 -1.16699 -6.66699 -3.5 -12s-3.5 -9.66602 -3.5 -12.999s2.33301 -7.33301 7 -12l6 6l-6 10c2 6 4.66699 15 8 27zM721.015 529.991l-2 -1l2 2v-1zM849.015 363.991l-2 -2v1zM767.015 434.991l-1 -1v1h1zM747.015 454.991l-2 -1l1 2z
M766.015 433.991l-1 -1h-1zM768.015 429.991c0 -1.33301 -0.333008 -1.99902 -1 -1.99902c-1.33301 1.33301 -2 2.66602 -2 3.99902v1c2 -1.33301 3 -2.33301 3 -3zM745.015 453.992l-3 -5.00098c0 2.66699 1 4.33398 3 5.00098zM677.015 471.991l-4.99902 -6.00098
c-6.66699 4 -11.334 4 -14.001 0l1 3v1c1.33301 0.666992 2 1.66699 2 3c6.66699 -3.33301 12 -3.66602 16 -0.999023zM661.016 472.99c-2.66699 1.33301 -4 2.66699 -4 4v2c2.66699 -2.66699 4 -4.66699 4 -6zM659.016 469.991h-1.00098l-4 4
c2.66699 -0.666992 4.33398 -2 5.00098 -4zM635.015 475.991c-2.66699 -5.33301 -5 -8 -7 -8v6l2 -2c2 0.666992 3.66699 2 5 4zM620.015 438.991l-9 -6v8c1.33301 1.33301 2.33301 2 3 2c2 0 4 -1.33301 6 -4zM607.015 459.991c-2.66699 -2 -6.33301 -3 -11 -3
c-19.333 0 -28.333 0.333008 -27 1c-4 2.66699 -7.33301 2.66699 -10 0l-2 2c10 2 21.333 3 34 3c6.66699 0 12 -1 16 -3zM557.016 459.991l-3 1l1 1zM728.016 288.991l-4 -2c0.666992 1.33301 1.66699 2 3 2h1zM554.016 460.991l-5.00098 -5l-4 -1
c-3.33301 0 -5.66602 1.33301 -6.99902 4h3c2 0 5.33301 1.66699 10 5zM672.015 335.991l-6 -6l-6 6h12zM538.015 458.991v1v-1zM512.015 461.991l-4 -6l-2 2l-2 -2l-2 2c2 0.666992 5.33301 2 10 4zM611.015 355.991l-2 -2zM498.015 457.991l-4 -5l-8 11
c4 -4 7.33301 -4.66699 10 -2zM805.015 138.991l-3 2.00098h2c0 -0.666992 0.333008 -1.33398 1 -2.00098zM647.015 292.992l-1 2.00098c0.666992 -0.666992 1 -1.33398 1 -2.00098zM628.015 286.993c-0.666992 -1.33301 -1.33301 -2 -2 -2zM719.016 172.993l-3 3
c1.33301 -0.666992 2.33301 -1.66699 3 -3zM716.016 175.993l-1 1v0zM715.016 176.993c-8 -5.33301 -13.333 -8 -16 -8h-2l10 6l-4 4l2 4c0.666992 -1.33301 1.66699 -2 3 -2l-1 -2c2 0 4.66699 -0.666992 8 -2zM557.016 274.993c-1.33301 0 -2.33301 0.333008 -3 1l1 1z
M191.016 493.993h-6l2 4zM179.016 495.993l-2 -2l-2 4zM298.016 359.993c-2 1.33301 -5.33301 3.33301 -10 6v0c4 -2 7.33301 -4 10 -6zM551.016 85.9932l-2 -12l-5 -5l5 -2c-6 0 -9 -3.33301 -9 -10l-6 6c10.667 5.33301 14 13 10 23h7zM158.016 418.993l-1 -2.99902
c-2 1.33301 -5 3.66602 -9 6.99902zM162.016 406.994v-3c-0.666992 5.33301 -2.66699 9 -6 11l1 1c3.33301 -3.33301 5 -6.33301 5 -9zM466.016 84.9941l-3 -1l2 2zM587.016 -46.0059c-2.66699 -2.66699 -5.33301 -2 -8 2l-2 2h10l-2 -2zM609.017 -71.0059
c-0.666992 0 -1 -0.333008 -1 -1l1 2v-1zM545.017 -7.00586l-0.999023 -3.00195l-10 -6l-1 2c0 0.666992 1 2.33398 3 5.00098c0.666992 2.66699 0 4.33398 -2 5.00098c2 0.666992 3.66699 2.66699 5 6s2.66602 5 3.99902 5h1c-2 -2 -3 -3.66699 -3 -5
c0 -0.666992 0.666992 -2 2 -4s2 -3.66699 2 -5zM445.018 85.9922h-4l-2 -2l-2 2c2.66699 0 4.66699 1.33301 6 4zM616.018 -107.008l-2 -2.00098v0c0 0.666992 0.666992 1.33398 2 2.00098zM433.018 71.9912l-2 2zM531.018 -25.0088
c-0.666992 -1.33301 -2.33301 -2.33301 -5 -3l-1 1l1 3c3.33301 0 5 -0.333008 5 -1zM498.019 2.99121l-0.000976562 -1c-2 -0.666992 -3.66699 -1 -5 -1h-2c0.666992 1.33301 2.33398 2.33301 5.00098 3zM525.018 -27.0088l-1 -1l-4 4zM443.018 51.9912l-0.000976562 -1
l-2 2c0.666992 0 1.33398 -0.333008 2.00098 -1zM599.017 -126.009l-2 -2zM483.017 -16.0088l-2 -2c-2.66699 1.33301 -4.66699 4 -6 8l4 2l4 -2v-6zM585.017 -121.009l-2 2zM504.017 -34.0088c0 -3.33301 -3 -4.99805 -9 -4.99805l-3 1l2 2h-6
c-4 1.33301 -6 2.66602 -6 3.99902s5.33301 2.66602 16 3.99902zM587.017 -132.007l-4 4c1.33301 2 2 3.66699 2 5v2l2 -3l-2 -4zM583.017 -128.007c-0.666992 0 -1.33301 -0.666992 -2 -2v1zM476.018 -55.0068c-1.33301 0.666992 -2.33301 1.66699 -3 3zM469.018 -79.0068
h-1l1 1v-1z" />
    <glyph glyph-name="grave" unicode="`" horiz-adv-x="394" 
d="M340 939c17.333 0 28 -3.49902 32 -10.499s14 -33.167 30 -78.5s24 -71 24 -77c0 -14 -12 -22.333 -36 -25c-3.33301 -0.666992 -21 -1 -53 -1c-22 0 -35.833 0.833008 -41.5 2.5s-27.834 27.667 -66.501 78s-58 78.5 -58 84.5c0 13.333 4.66699 21.666 14 24.999
c4.66699 1.33301 56.334 2 155.001 2z" />
    <glyph glyph-name="a" unicode="a" 
d="M185 -18l-144.999 0.000976562c-12 4 -18 12.333 -18 25c0 16 25 97.333 75 244c56 167.333 86.333 260.333 91 279l39 123c3.33301 9.33301 6 15.666 8 18.999c3.33301 6 8.66602 9.83301 15.999 11.5s23.333 2.5 48 2.5h75c20.667 0 32 -0.333008 34 -1
c14 -2 23.333 -7.33301 28 -16c8.66699 -18.667 46.667 -132.5 114 -341.5s101 -316.833 101 -323.5c0 -7.33301 -4.33301 -14.333 -13 -21c-28.667 -2.66699 -70 -4 -124 -4c-22 0 -37.333 5.33301 -46 16c-4.66699 6 -9 18.333 -13 37s-9.33301 32.667 -16 42h-209l-4 -3
l-14 -52c-7.33301 -24.667 -16.333 -37 -27 -37zM372.001 233.001l14 1l3 5c-10.667 42 -18.667 72 -24 90c-10 34 -20.333 63.333 -31 88l-5 3l-53 -180l3 -6c36 -2 67 -2.33301 93 -1z" />
    <glyph glyph-name="b" unicode="b" horiz-adv-x="656" 
d="M230 531l-5 -2.99902v-26c-0.666992 -12 -1 -21 -1 -27c0 -14.667 1 -27.667 3 -39h41c21.333 -0.666992 35 -1 41 -1c22 0 41 1.33301 57 4l3 5l5 -3c14 3.33301 23 9.66602 27 18.999c2.66699 6 4 17.667 4 35c0 24 -28.333 36 -85 36h-90zM319 281.001
c-8.66699 0 -23.168 -0.333008 -43.501 -1s-36.166 -1 -47.499 -1l-3 -5v-124l3 -5c28.667 -0.666992 66.667 -1 114 -1c65.333 0 98 23 98 69c0 45.333 -40.333 68 -121 68zM533.999 374.001l2 -5.99902c57.333 -34.667 86 -89 86 -163
c0 -25.333 -4.66699 -51.666 -14 -78.999c-10.667 -30 -24 -53.333 -40 -70l-2 -5c-6 -6.66699 -15.667 -14.667 -29 -24c-27.333 -22.667 -69.333 -36.667 -126 -42c-16.667 -1.33301 -62.667 -2 -138 -2c-18 0 -44.667 -0.333008 -80 -1s-62 -1 -80 -1
c-27.333 0 -45.333 1.33301 -54 4c-12.667 4 -19 44.333 -19 121v457c0 81.333 6.66699 122 20 122c20.667 0 50.667 0.333008 90 1h91h65c86 0 149.333 -9.66699 190 -29c60 -28.667 90 -81.334 90 -158.001c0 -58.667 -17.333 -100.334 -52 -125.001z" />
    <glyph glyph-name="c" unicode="c" horiz-adv-x="708" 
d="M674 197c0 -10.667 -8.16602 -31.667 -24.499 -63s-28.833 -49.666 -37.5 -54.999c-24.667 -38 -61 -67 -109 -87c-42 -17.333 -88 -26 -138 -26c-103.333 0 -186 36 -248 108c-60 68 -90 154.333 -90 259c0 60.667 7 111 21 151c15.333 45.333 43 87.333 83 126
c12 11.333 19 18.333 21 21c7.33301 8 12.666 16.333 15.999 25l4 -2c18 8.66699 38.667 21 62 37l5 -3l53 15v2c0 1.33301 0.333008 1.66602 1 0.999023l2 -3c26 4.66699 51.333 7 76 7c81.333 0 147 -22 197 -66l23 -19c8.66699 -8.66699 14 -16.667 16 -24
c12 -13.333 24.667 -33.333 38 -60c15.333 -29.333 23 -51 23 -65c0 -2.66699 -0.333008 -4.66699 -1 -6c-3.33301 -10 -13 -17.667 -29 -23l-39 -8l-47 -14c-22.667 -7.33301 -37.667 -11 -45 -11c-12 0 -21 11 -27 33c-8.66699 31.333 -17 52 -25 62
c-16 22 -42.333 33 -79 33c-51.333 0 -91.666 -21 -120.999 -63c-26 -36.667 -39 -81.667 -39 -135c0 -46.667 8.66699 -87 26 -121c20.667 -40.667 51.334 -66 92.001 -76l6 1c2 0 5.16699 -0.833008 9.5 -2.5s8.16602 -2.5 11.499 -2.5h15l4 5c1.33301 0 3 -0.333008 5 -1
c0 -1.33301 2 -2 6 -2c24.667 0 46.667 11.667 66 35c9.33301 10.667 22.666 32 39.999 64c12 23.333 21.667 35 29 35s29.333 -8 66 -24c33.333 -14.667 55.333 -25.5 66 -32.5s16 -15.5 16 -25.5z" />
    <glyph glyph-name="d" unicode="d" horiz-adv-x="675" 
d="M277 526c-5.33301 0 -13.667 -0.333008 -25 -1h-24l-5 -4l3 -366c8 -1.33301 15.667 -2 23 -2c10 0 17 1.33301 21 4l7 -2c67.333 0 113.833 13.5 139.5 40.5s38.5 74.5 38.5 142.5c0 125.333 -59.333 188 -178 188zM643.999 334
c0 -99.333 -22.3301 -179.001 -66.9971 -239.001c-49.333 -66 -122 -102.667 -218 -110c-45.333 -3.33301 -124.333 -5 -237 -5c-35.333 0 -57 1 -65 3c-12.667 3.33301 -19 56.333 -19 159c0 58 0.5 145.333 1.5 262s1.5 204.334 1.5 263.001c0 8.66699 4 14.667 12 18
c12 4 38.333 6 79 6c21.333 0 53.166 -1 95.499 -3s74.166 -3 95.499 -3c103.333 0 183.666 -33 240.999 -99c53.333 -62.667 80 -146.667 80 -252z" />
    <glyph glyph-name="e" unicode="e" horiz-adv-x="618" 
d="M230 531c-6 0 -8.66602 -9.33496 -7.99902 -28.002v-44l3 -5l224 1c16 0 26.667 -5 32 -15c1.33301 -17.333 2 -45.666 2 -84.999c0 -24.667 -0.666992 -41 -2 -49c-2 -10 -9.66699 -16 -23 -18c-20.667 -4.66699 -54.334 -6.33398 -101.001 -5.00098
c-72 2 -106 3 -102 3h-28l-5 -3l-1 -39l1 -79l3 -5c35.333 -0.666992 81.666 -0.666992 138.999 0c70 1.33301 116.333 2 139 2c40 0 62.333 -1 67 -3c14 -6 21 -24.333 21 -55c0 -51.333 0.333008 -72.666 1 -63.999c-2 -33.333 -8.33301 -50 -19 -50h-517
c-8.66699 0 -13.667 5.33301 -15 16c-2.66699 18 -4 71.333 -4 160v218c-0.666992 96 -1 168.333 -1 217c0 41.333 2.16699 66.833 6.5 76.5s16.5 14.5 36.5 14.5c4 0 13.333 -0.333008 28 -1h38l407 -1c10.667 0 17.334 -14 20.001 -42c0 0.666992 0 -17.666 0 -54.999
c0 -28 -4.5 -46.333 -13.5 -55s-24.167 -13 -45.5 -13c-4.66699 0 -13.5 0.333008 -26.5 1s-23.5 1 -31.5 1c-24.667 0 -62 0.666992 -112 2s-87.667 2 -113 2z" />
    <glyph glyph-name="f" unicode="f" horiz-adv-x="566" 
d="M500 685c24.667 0 38.999 -5.99707 42.999 -17.9971c2 -5.33301 3 -14 3 -26c0 -7.33301 -0.333008 -24 -1 -50c-0.666992 -20.667 -0.666992 -37.334 0 -50.001c-5.33301 -10.667 -13 -16.667 -23 -18c-28.667 -4 -61.667 -6 -99 -6c-22.667 0 -56.667 1 -102 3
s-78.666 3 -99.999 3l-5 -3v-26v-49l4 -4l7 -1l9 4l5 -3c-3.33301 0 19.334 0.333008 68.001 1c40 0.666992 71.667 0.666992 95 0c33.333 -0.666992 52 -2.66699 56 -6h5v-5c4.66699 -5.33301 7 -24.333 7 -57c0 -39.333 -1 -68.333 -3 -87
c-8.66699 -9.33301 -22 -14.666 -40 -15.999c-1.33301 -0.666992 -16.333 -1 -45 -1c-18 0 -45.167 0.666992 -81.5 2s-63.5 2 -81.5 2l-5 -3v-116c1.33301 -61.333 2 -100 2 -116c0 -26.667 -3.66699 -42.834 -11 -48.501s-25 -8.5 -53 -8.5h-82
c-11.333 -0.666992 -19.333 -0.333984 -24 0.999023c-8 2 -12.667 7.33301 -14 16c-2.66699 15.333 -4 59.333 -4 132l1 391c0 83.333 1 131.666 3 144.999c1.33301 8.66699 6.66602 14.667 15.999 18h182h268z" />
    <glyph glyph-name="g" unicode="g" horiz-adv-x="765" 
d="M711 481c0 -9.33301 -3.99512 -16.3369 -11.9951 -21.0039c-4.66699 -2.66699 -28.667 -12 -72 -28s-66.333 -24 -69 -24c-9.33301 0 -19 9.66699 -29 29l-19 43c-0.666992 1.33301 -11.334 13.666 -32.001 36.999c-29.333 12 -53.333 18 -72 18
c-50 0 -89.333 -22.667 -118 -68c-24 -39.333 -36 -85.666 -36 -138.999c0 -49.333 12.333 -92.666 37 -129.999c28 -43.333 65.333 -65 112 -65c33.333 0 52 3.33301 56 10l3 -1c13.333 0 28.333 9.66699 45 29c15.333 17.333 24.666 33 27.999 47l-5 3
c-10 0 -28 -0.333008 -54 -1h-54c-18 0 -30.667 4.66699 -38 14c0.666992 12 1 27.333 1 46c-0.666992 24.667 -1 40 -1 46c0 19.333 0.666992 36 2 50c4.66699 7.33301 13.167 11 25.5 11s20.166 1 23.499 3c10.667 -4.66699 29.667 -7 57 -7c17.333 0 43.166 1 77.499 3
s59.833 3 76.5 3c20 0 36.333 -1 49 -3l3 5l-3 -5c10.667 -3.33301 16 -36.333 16 -99c0 -9.33301 0.666992 -40.333 2 -93c0.666992 -46.667 0.666992 -83.667 0 -111c0 -39.333 -1.66699 -67.666 -5 -84.999c-2 -8 -7.33301 -13 -16 -15s-42.334 -3 -101.001 -3
c-21.333 0 -35.333 5 -42 15l-5 1c-30.667 -23.333 -80 -35 -148 -35c-97.333 0 -177.333 36.333 -240 109c-60 69.333 -90 153.333 -90 252c0 110.667 31.333 201.334 94 272.001c64.667 74 151.667 111 261 111c48.667 0 95.5 -10.833 140.5 -32.5
s80.833 -52.167 107.5 -91.5c29.333 -43.333 44 -76.666 44 -99.999z" />
    <glyph glyph-name="h" unicode="h" horiz-adv-x="681" 
d="M58 682l6.00293 3c9.33301 0 23.333 0.333008 42 1h41c44.667 0 70.167 -3.5 76.5 -10.5s9.5 -33.167 9.5 -78.5c0 -15.333 -0.666992 -38.5 -2 -69.5s-2 -53.833 -2 -68.5l4 -5h216l5 3c0.666992 24 0.666992 55 0 93v93c0 20.667 4.33301 33.334 13 38.001
c5.33301 2.66699 20.333 4 45 4h76c12.667 0 23 -0.666992 31 -2c12.667 -2 20 -19 22 -51c0 2.66699 0 -19.666 0 -66.999c0 -36.667 -0.333008 -91.667 -1 -165s-1 -127.666 -1 -162.999c0 -16 0.666992 -41.667 2 -77c0.666992 -33.333 0.666992 -59 0 -77
c0 -28.667 -1 -54.334 -3 -77.001c-0.666992 -8 -3.33398 -14 -8.00098 -18s-48.334 -6 -131.001 -6c-12.667 0 -21.667 0.333008 -27 1c-12 2 -19.333 16.333 -22 43v57c0 22 0.666992 54.667 2 98s2 75.333 2 96l-3 5h-217l-5 -3c0 -32 0.333008 -74.333 1 -127
c1.33301 -63.333 2 -106 2 -128c0 -28.667 -16.667 -43 -50 -43h-22c-10 0.666992 -17.333 1 -22 1h-20c-8.66699 -0.666992 -15.334 -1 -20.001 -1c-36 0 -54 13.667 -54 41c0 67.333 0.333008 169.666 1 306.999c0.666992 131.333 1 233.666 1 306.999v25
c0.666992 5.33301 4.66699 12.333 12 21z" />
    <glyph glyph-name="i" unicode="i" horiz-adv-x="292" 
d="M241 45c0 -30 -1.66797 -47.332 -5.00098 -51.999c-5.33301 -8 -21 -12 -47 -12h-86c-11.333 0 -21 0.666992 -29 2c-11.333 2.66699 -18 22 -20 58c0 -1.33301 0 22 0 70c0 29.333 0.333008 73.333 1 132s1 103 1 133c0 18.667 -0.666992 48.167 -2 88.5
s-2 70.833 -2 91.5c0 41.333 2 77.333 6 108c0.666992 5.33301 3.33398 10 8.00098 14l2 5c49.333 2 90 3 122 3c28 0 44.333 -8 49 -24c2 -4.66699 3 -27.334 3 -68.001z" />
    <glyph glyph-name="j" unicode="j" horiz-adv-x="439" 
d="M207 669c4.66699 10.667 23.6641 16.001 56.9971 16.001c10 0 22.833 -0.5 38.5 -1.5s25.167 -1.5 28.5 -1.5c2.66699 0 6.83398 0.666992 12.501 2s9.83398 2 12.501 2l6 -2c20.667 2 31 -14 31 -48c0 -35.333 -0.333008 -88 -1 -158v-157
c0 -110 -1.33301 -174.333 -4 -193c-7.33301 -54 -34.666 -94.667 -81.999 -122c-40 -23.333 -89 -35 -147 -35c-18.667 0 -39.667 2 -63 6c-32.667 6 -50.334 13.667 -53.001 23c-1.33301 7.33301 -2 35 -2 83c0 23.333 0.333008 37.333 1 42c3.33301 16 12.333 24 27 24
c8 0 20.333 -1 37 -3s29.334 -3 38.001 -3c20.667 0 37.667 4.66699 51 14c8.66699 14.667 13 64 13 148c0 30 -0.666992 68.667 -2 116s-2 74.666 -2 81.999c0 62 1 117.333 3 166z" />
    <glyph glyph-name="k" unicode="k" horiz-adv-x="661" 
d="M56 682c16 1.33301 34.332 1.99805 54.999 1.99805c6 0 22.667 -0.333008 50 -1h50c12 -6 18 -14.667 18 -26c0 -22 -0.833008 -55.333 -2.5 -100s-2.5 -78 -2.5 -100l5 -3l98 118c16.667 16.667 39.334 43 68.001 79l-3 5l5 -3c1.33301 0.666992 6 6.33398 14 17.001
c5.33301 6.66699 11.333 10.667 18 12c14 2 63.667 3 149 3c34 0 51 -8.66699 51 -26c0 -10.667 -4 -18.334 -12 -23.001c-6 -9.33301 -18.667 -23.5 -38 -42.5s-31.666 -34.5 -36.999 -46.5c-18 -14 -38.667 -35.333 -62 -64l-57 -71l210 -382v-22
c0.666992 -7.33301 0 -14.333 -2 -21l-8 -5h-170l-6 3c-24 30.667 -50.667 75 -80 133c-35.333 70.667 -60 117 -74 139l-4 1c-24.667 -24.667 -47 -50 -67 -76c0 -13.333 0.333008 -38.666 1 -75.999c0.666992 -32 1 -57.667 1 -77c0 -25.333 -7.33301 -40.666 -22 -45.999
c-5.33301 -2 -25 -3 -59 -3c-4.66699 0 -12.667 -0.333008 -24 -1s-20 -1 -26 -1c-37.333 0 -56 14 -56 42c0 417.333 2 632.333 6 645c1.33301 5.33301 5.66602 11 12.999 17z" />
    <glyph glyph-name="l" unicode="l" horiz-adv-x="507" 
d="M218 159l2.99707 -3.99805c29.333 -0.666992 68.666 -0.666992 117.999 0c58.667 1.33301 97.667 2 117 2c32 0 48 -22.667 48 -68c0 -6.66699 -0.333008 -16.167 -1 -28.5s-1 -21.166 -1 -26.499c0 -28.667 -6.33301 -45.667 -19 -51c-4.66699 -2 -24.667 -3 -60 -3
c-23.333 0 -58.666 0.333008 -105.999 1s-82.666 1 -105.999 1c6.66699 0 -20 -1 -80 -3c-32.667 -0.666992 -58.667 0.666016 -78 3.99902c-6 1.33301 -10.333 4.66602 -13 9.99902l-5 -3l-1 577c0 73.333 3.5 111.5 10.5 114.5s30.5 4.5 70.5 4.5h43
c18.667 -0.666992 32.334 -1 41.001 -1s14.334 -5.33301 17.001 -16c5.33301 -22.667 8 -57.334 8 -104.001c0 -26.667 -1 -64.667 -3 -114s-3 -81.333 -3 -96v-196z" />
    <glyph glyph-name="m" unicode="m" horiz-adv-x="727" 
d="M539 685c14.667 0 36.1641 -0.334961 64.4971 -1.00195s49.5 -1 63.5 -1c12 0 19 -15.667 21 -47c0.666992 -4 1 -25 1 -63c0 -37.333 -0.5 -93.333 -1.5 -168s-1.5 -131 -1.5 -169c0 8.66699 1 -30.333 3 -117c1.33301 -47.333 0 -86 -4 -116
c-0.666992 -8 -3.83398 -14 -9.50098 -18s-27.5 -6 -65.5 -6c-53.333 0 -83.166 3.5 -89.499 10.5s-9.5 38.5 -9.5 94.5c0 22.667 1 53 3 91c2 43.333 3 73.333 3 90l-5 3c-3.33301 -11.333 -14 -59.333 -32 -144c-15.333 -71.333 -27.333 -114.333 -36 -129
c-6 -11.333 -33.333 -17 -82 -17c-36.667 0 -58.667 1.16699 -66 3.5s-12.666 7.83301 -15.999 16.5c-26 64.667 -48.667 158 -68 280l-5 -4c0 16 0 -56.333 0 -217c0 -37.333 -1.66699 -58.666 -5 -63.999c-5.33301 -9.33301 -24.666 -14 -57.999 -14
c-45.333 0 -74.5 1.5 -87.5 4.5s-19.5 8.83301 -19.5 17.5c0 60.667 -0.5 151.334 -1.5 272.001s-1.5 211 -1.5 271c0 72 2 114 6 126c3.33301 10 23 15 59 15c116.667 0 178 -3.66699 184 -11c1.33301 -2 13.833 -56.333 37.5 -163s36.834 -167.667 39.501 -183l5 3
c2 5.33301 16 68.666 42 189.999c22 102.667 37.667 156.334 47 161.001c4.66699 2 33 3 85 3z" />
    <glyph glyph-name="n" unicode="n" horiz-adv-x="667" 
d="M445 318l3.99805 3.00098c0.666992 41.333 0.666992 95 0 161c-0.666992 85.333 -1 139.333 -1 162c0 29.333 19.333 44 58 44c6.66699 0 16.834 -0.333008 30.501 -1s23.834 -1 30.501 -1c17.333 0 28.333 -0.666992 33 -2c12 -2.66699 19 -9.33398 21 -20.001
c5.33301 -32 8 -73.333 8 -124c0 -25.333 -1 -62.833 -3 -112.5s-3 -84.834 -3 -105.501c0 -27.333 0.5 -68.333 1.5 -123s1.5 -96 1.5 -124c0 -45.333 -2.33301 -71.666 -7 -78.999c-7.33301 -10.667 -32.333 -16 -75 -16s-69.167 0.5 -79.5 1.5s-18.5 5.83301 -24.5 14.5
l-12 23l-135 225c-12.667 25.333 -34.334 61.666 -65.001 108.999l-5 -1c-0.666992 -40 -0.666992 -92 0 -156c0.666992 -84 1 -135.667 1 -155c0 -23.333 -1.33301 -38.666 -4 -45.999c-8.66699 -10 -25 -15 -49 -15c-49.333 0 -72.666 0 -69.999 0
c-34.667 2.66699 -52 10.667 -52 24c0 60 -0.5 149.833 -1.5 269.5s-1.5 209.5 -1.5 269.5c0 64 2 106 6 126c2 11.333 16 17 42 17l124 -1c8.66699 0 45.667 -55.667 111 -167z" />
    <glyph glyph-name="o" unicode="o" horiz-adv-x="733" 
d="M373 713c48.667 0 96 -10 142 -30l3 4l-3 -4c64 -30 112.333 -77.667 145 -143c30 -58.667 45 -126 45 -202c0 -100 -30.667 -185.333 -92 -256c-64 -74 -145 -111 -243 -111c-63.333 0 -124.333 17.333 -183 52l-3 5c-50 33.333 -88.333 77.666 -115 132.999
c-25.333 53.333 -38 111 -38 173c0 70 14.667 134.333 44 193c31.333 62.667 76.333 110.334 135 143.001v4l4 -1c46.667 26.667 99.667 40 159 40zM368 540c-46 0 -83.001 -22.001 -111.001 -66.001c-24 -38 -36 -81.333 -36 -130c0 -52 11.667 -96 35 -132
c27.333 -43.333 65.333 -65 114 -65c50.667 0 89.334 21.667 116.001 65c22 36 33 81.333 33 136c0 52.667 -11.667 96.334 -35 131.001c-27.333 40.667 -66 61 -116 61z" />
    <glyph glyph-name="p" unicode="p" horiz-adv-x="604" 
d="M345 685l5.00293 3.00098l5 -3l65 -10c20 -3.33301 42.333 -14.333 67 -33c21.333 -17.333 38.333 -36 51 -56c23.333 -38 35 -85.333 35 -142c0 -54.667 -15.833 -103.5 -47.5 -146.5s-73.834 -71.833 -126.501 -86.5c-21.333 -6 -47 -9.33301 -77 -10
c-25.333 0.666992 -51 1 -77 1l-26 -1l-4 -3c-0.666992 -21.333 -0.666992 -50 0 -86c0.666992 -42.667 1 -71.334 1 -86.001c0 -31.333 -20.333 -47 -61 -47h-23c-10.667 0.666992 -18.334 1 -23.001 1c-47.333 0 -72 7 -74 21c-0.666992 4.66699 -1 45.667 -1 123
c0 26.667 -0.333008 67 -1 121v122v87c0 70 0.666992 143 2 219c7.33301 10 18.666 15 33.999 15c136.667 0 228.667 -1 276 -3zM215.003 526.001l-0.000976562 -157.999l3 -5c-0.666992 0 18 0 56 0c81.333 0 122 28.333 122 85c0 33.333 -13.667 56.666 -41 69.999
c-18.667 8.66699 -47 13 -85 13c-33.333 0 -51.666 -1.66699 -54.999 -5z" />
    <glyph glyph-name="q" unicode="q" horiz-adv-x="790" 
d="M289 701l-1.99902 5l3 -5c26 5.33301 51.667 8 77 8c98.667 0 179 -36 241 -108c58.667 -68 88 -152.333 88 -253c0 -69.333 -13 -134.333 -39 -195l2 -4l24 -12l3 2c4 -4 20 -9.33301 48 -16c23.333 -6 35 -15.333 35 -28c0 -4 -7.16699 -26.167 -21.5 -66.5
s-22.833 -62.166 -25.5 -65.499c-4.66699 -5.33301 -11.334 -8 -20.001 -8c-24 0 -49.667 8.33301 -77 25l-68 47h-5c-58.667 -38.667 -125 -58 -199 -58c-100 0 -180.667 37.333 -242 112c-58 69.333 -87 155 -87 257c0 87.333 23 164 69 230
c48 69.333 113.333 113.666 196 132.999zM282.001 507c-23.333 -14.667 -41 -40.333 -53 -77c-10.667 -30.667 -16 -62.667 -16 -96c0 -60.667 18.333 -111.667 55 -153h3c24 -24 54 -36 90 -36c50.667 0 89.334 21.667 116.001 65c22.667 36 34 81 34 135
c0 76 -21.333 129.667 -64 161l-3 5c-26.667 16.667 -55.334 25 -86.001 25c-12 0 -26 -2.33301 -42 -7c-20 -6 -31.333 -13.333 -34 -22z" />
    <glyph glyph-name="r" unicode="r" horiz-adv-x="657" 
d="M417 463c0 45.333 -35.667 68.001 -107 68.001c-6.66699 0 -16.667 -0.333008 -30 -1h-30l-5 -4v-39v-35v-58l4 -5l45 -1c22.667 -0.666992 48 1.66602 76 6.99902v5l3 -5c29.333 11.333 44 34 44 68zM564 599.001c28.667 -46 43.001 -92.6689 43.001 -140.002
c0 -98 -38 -164 -114 -198l-4 -5c16 -26 41 -69 75 -129c41.333 -73.333 62 -112.333 62 -117c0 -19.333 -23.667 -29 -71 -29s-86 1.33301 -116 4c-11.333 6.66699 -57.666 88.667 -138.999 246l-5 3h-45l-5 -3c0 -24 0.333008 -55.667 1 -95c0.666992 -48.667 1 -80 1 -94
c0 -25.333 -4.33301 -42 -13 -50s-22.334 -12 -41.001 -12c-4 0 -11.667 0.333008 -23 1s-20.666 1 -27.999 1c-52.667 0 -80.334 7.33301 -83.001 22c-4 32 -5.33301 73.333 -4 124c2 92 3 133.667 3 125c0 37.333 -0.333008 92.833 -1 166.5s-1 128.834 -1 165.501
c0 6.66699 -0.333008 15.334 -1 26.001s-1 18.334 -1 23.001c0 20 3.33301 33.667 10 41c8.66699 10 24.667 15 48 15h279c12.667 2.66699 39.667 -3.33301 81 -18l3 -5c14 -6.66699 29.333 -17.334 46 -32.001c21.333 -19.333 35.666 -31.333 42.999 -36z" />
    <glyph glyph-name="s" unicode="s" horiz-adv-x="678" 
d="M627 550c-24.667 -20 -43.001 -36 -55.001 -48l-5 -2l-26 -24c-12 -10 -22 -15 -30 -15c-5.33301 0 -15.333 8 -30 24c-18.667 20 -35.667 34.667 -51 44c-25.333 15.333 -54 23 -86 23c-20 0 -39.667 -4 -59 -12c-24 -10 -36 -23.667 -36 -41c0 -18 27.667 -34 83 -48
c34.667 -9.33301 71 -16 109 -20l5 3l2 -5c29.333 -7.33301 52 -14 68 -20c30 -11.333 50 -23 60 -35c20.667 -3.33301 38.667 -25 54 -65c12.667 -32.667 19 -62.334 19 -89.001c0 -82.667 -32 -146 -96 -190c-55.333 -38.667 -126.333 -58 -213 -58s-164 25.333 -232 76
c-42.667 32 -68 59 -76 81c-0.666992 2 -1 4.66699 -1 8l1 8c6 7.33301 29.167 25.333 69.5 54s63.5 43 69.5 43c5.33301 0 15.666 -8.66699 30.999 -26c18.667 -22 36.667 -38.333 54 -49c28 -17.333 60 -26 96 -26c25.333 0 48.333 4 69 12
c28.667 10.667 43 26.334 43 47.001c0 23.333 -34.667 42 -104 56c-95.333 19.333 -159.333 37.666 -192 54.999c-69.333 36 -104 92 -104 168c0 60.667 22 112.667 66 156c40.667 40.667 92.334 66.334 155.001 77.001c5.33301 3.33301 24.333 4.33301 57 3
c22 -0.666992 43.667 -1.66699 65 -3l4 5l-2 -5c92.667 -16 165.334 -58 218.001 -126v-36z" />
    <glyph glyph-name="t" unicode="t" horiz-adv-x="605" 
d="M27 667c0 5.33301 2 10.001 6 14.001c6.66699 5.33301 10.334 8.66602 11.001 9.99902c166 -3.33301 300.333 -5 403 -5c49.333 0 82.666 0.666992 99.999 2c0.666992 2 2 3 4 3c2.66699 0 3.33398 -1 2.00098 -3c17.333 0 26 -13.667 26 -41c0 -56 -1 -90 -3 -102
c-2.66699 -15.333 -31.334 -23 -86.001 -23c-14.667 0 -33.167 0.666992 -55.5 2s-34.833 2 -37.5 2l-5 -3c-0.666992 -42.667 -0.666992 -99.667 0 -171c1.33301 -84 2 -140.667 2 -170c0 -100 -1.33301 -160.333 -4 -181c-1.33301 -13.333 -22.333 -20 -63 -20h-66
c-32 2 -48.667 9 -50 21c-2 20 -3 90.333 -3 211v154c0.666992 68.667 1 120 1 154l-3 5c-18 0.666992 -41.667 0.666992 -71 0c-36.667 -0.666992 -60 -1 -70 -1c-25.333 0 -38 10.667 -38 32v110z" />
    <glyph glyph-name="u" unicode="u" horiz-adv-x="657" 
d="M615 672c2.66699 -160.667 3.99805 -281.334 3.99805 -362.001c0 -173.333 -36 -274 -108 -302l-6 -2c-41.333 -28.667 -99.666 -43 -174.999 -43c-86 0 -153 20 -201 60c-52 42.667 -79.333 106 -82 190s-4 210.667 -4 380c0 37.333 1 60.333 3 69
c2 13.333 9 21.666 21 24.999c8.66699 2 20.667 3 36 3c10.667 0.666992 25 0.666992 43 0c20 -0.666992 32.667 -1 38 -1c14.667 0 24.667 -0.666992 30 -2c11.333 -3.33301 18 -20.333 20 -51c0.666992 -6 1 -27 1 -63c0 -28 -0.833008 -70 -2.5 -126s-2.5 -98 -2.5 -126
c0 -107.333 15 -164.333 45 -171l3 3v-5c6.66699 -3.33301 15.834 -5.5 27.501 -6.5s19.834 -2.5 24.501 -4.5l5 3l6 -3c4 2 14.333 4.66699 31 8c14 2.66699 27.5 10.834 40.5 24.501s19.5 71.167 19.5 172.5c0 28 -0.833008 70.333 -2.5 127s-2.5 99.334 -2.5 128.001
c0 40 1 62.333 3 67c6 16 24.333 24 55 24c79.333 0 102.666 0.666992 69.999 2c33.333 -1.33301 53.333 -7.33301 60 -18z" />
    <glyph glyph-name="v" unicode="v" horiz-adv-x="643" 
d="M577 688c26.667 0 40.002 -8.33203 40.002 -24.999c0 -6.66699 -32.5 -117.667 -97.5 -333s-99.833 -326.666 -104.5 -333.999c-5.33301 -10 -28.333 -15 -69 -15c-48.667 0 -71.667 0 -69 0c-32.667 1.33301 -52.334 7.33301 -59.001 18
c-2 3.33301 -36.333 123 -103 359l-50 161c-26.667 86.667 -40 135 -40 145c0 17.333 24 26 72 26c69.333 0 107.166 -4.66699 113.499 -14s18.5 -48 36.5 -116c16 -60.667 26.333 -103.334 31 -128.001c3.33301 -18.667 10 -43.334 20 -74.001
c12 -36.667 19.333 -61 22 -73h5c6 18 31 109.333 75 274c6 26 17 63 33 111c6 12 15.667 18 29 18h115z" />
    <glyph glyph-name="w" unicode="w" horiz-adv-x="845" 
d="M584 352l5.00391 2.99902c12.667 70 34 173 64 309c2.66699 10 7 16.333 13 19c4 2 12 3 24 3h102c23.333 0 35 -8 35 -24c0 -11.333 -22 -122.166 -66 -332.499s-68 -319.833 -72 -328.5c-5.33301 -11.333 -24.666 -18 -57.999 -20h-70c-38 0 -59.667 6.66699 -65 20
c-4 11.333 -8 28.666 -12 51.999c-5.33301 32.667 -8.33301 50.334 -9 53.001l-50 221l-5 -3c0 -13.333 -10.333 -68.5 -31 -165.5s-33.334 -150.833 -38.001 -161.5s-27.334 -16 -68.001 -16c-62.667 0 -97 1.33301 -103 4c-10.667 3.33301 -18.334 20 -23.001 50
c-4.66699 27.333 -16.334 78.333 -35.001 153c-16 64 -26 115.333 -30 154c-2.66699 30.667 -14.667 85 -36 163c-18.667 70 -28 124.333 -28 163c0 12 8.33301 18 25 18h124c16.667 0 33.334 -48 50.001 -144c21.333 -120.667 32.333 -182.334 33 -185.001h5
c11.333 35.333 22.666 79 33.999 131l28 134c1.33301 10.667 3.16602 22 5.49902 34s7.5 21 15.5 27c2.66699 2 9.66699 3 21 3c2.66699 0 37 1.66699 103 5l3 -5l5 1c20 0.666992 31.333 -7.66602 34 -24.999c9.33301 -31.333 20.333 -78.666 33 -141.999
c2 -22.667 7.33301 -51 16 -85c12 -46.667 19 -74.334 21 -83.001z" />
    <glyph glyph-name="x" unicode="x" horiz-adv-x="676" 
d="M550 686l32.001 0.000976562l3 5l3 -5c22.667 0.666992 34 -6 34 -20c0 -10.667 -26.667 -58.334 -80 -143.001c-58.667 -93.333 -91.334 -147.333 -98.001 -162c7.33301 -8.66699 43.666 -68.667 108.999 -180s98 -167.666 98 -168.999c0 -20.667 -22 -31 -66 -31
c-65.333 0 -103 1.33301 -113 4c-6 1.33301 -50.667 72.333 -134 213l-5 -3c-13.333 -27.333 -35.333 -66 -66 -116c-38 -62 -62 -94 -72 -96c-6 -1.33301 -18.333 -2 -37 -2h-23c-12 -0.666992 -22.333 -1 -31 -1c-54.667 0 -82 10 -82 30c0 9.33301 31.333 64.333 94 165
c68.667 111.333 106.334 174.666 113.001 189.999l-61 100c-3.33301 14.667 -23.333 48.667 -60 102c-35.333 50.667 -53 82 -53 94c0 12.667 6.33301 21 19 25c-0.666992 2.66699 -0.333984 4 0.999023 4c2.66699 0 3.33398 -1.33301 2.00098 -4
c31.333 -1.33301 62.333 -2 93 -2c26 0 45.667 0.666992 59 2l3 5l2 -5c10 -3.33301 28 -27.333 54 -72l51 -86c9.33301 6.66699 24.333 30 45 70c22 43.333 36.667 69 44 77s27 12 59 12c20.667 0 41.667 -0.333008 63 -1z" />
    <glyph glyph-name="y" unicode="y" horiz-adv-x="691" 
d="M278 -12l-23 15.002c-1.33301 10.667 -2.33301 83.334 -3 218.001l-1 48c-23.333 52.667 -61.333 117 -114 193c-3.33301 14.667 -24 50 -62 106c-36.667 53.333 -55 85.666 -55 96.999c0 6.66699 5.33301 16 16 28c80.667 -2 133.667 -2 159 0
c3.33301 -0.666992 8.66602 -2.33398 15.999 -5.00098c4 -2.66699 25.333 -38.667 64 -108l69 -125h4c1.33301 1.33301 25.333 44.333 72 129c38.667 70 62.667 105.667 72 107s58 2 146 2c20.667 0 31 -8.33301 31 -25c0 -10.667 -35 -72.334 -105 -185.001
c-78.667 -127.333 -121 -197 -127 -209v-207c0 -34 -3 -56.167 -9 -66.5s-17.333 -15.5 -34 -15.5c-4.66699 0 -15.167 0.666992 -31.5 2s-30.166 2 -41.499 2z" />
    <glyph glyph-name="z" unicode="z" horiz-adv-x="628" 
d="M110 521c-24.667 0 -37.001 15.668 -37.001 47.001v65c2.66699 32.667 9.66699 50 21 52c8 1.33301 26 2 54 2c9.33301 0 23.666 -0.333008 42.999 -1h42c24 0 62.667 0.666992 116 2c50.667 2 89.334 3 116.001 3c43.333 -0.666992 82 -3.33398 116 -8.00098
c10.667 -1.33301 18 -9.66602 22 -24.999c2.66699 -10.667 3.66699 -25.667 3 -45c-1.33301 -35.333 -2 -48.333 -2 -39c0 -10.667 -0.666992 -18.334 -2 -23.001l-312 -401l5 -3c20 0 50.833 0.5 92.5 1.5s72.834 1.5 93.501 1.5c52 0 86.333 -1.66699 103 -5
c13.333 -2.66699 20 -19.667 20 -51c0 -51.333 -0.666992 -80.333 -2 -87c-2.66699 -14.667 -12 -23.334 -28 -26.001h-89l-208 1c-14 0 -38.667 -0.666992 -74 -2c-32.667 -0.666992 -58 -1 -76 -1c-28 0.666992 -52.333 2.66699 -73 6c-10 1.33301 -16 8 -18 20v31
c0 45.333 0.666992 71.333 2 78c0.666992 4.66699 48.5 67.334 143.5 188.001s148.833 187 161.5 199l13 19c-9.33301 0.666992 -91.333 1 -246 1z" />
    <glyph glyph-name="bar" unicode="|" horiz-adv-x="1561" 
d="M565 654c-3.33301 0 -4.99902 -4.66602 -4.99902 -13.999l1 -22l1 -2h112c8 0 13.333 -2.66699 16 -8c0.666992 -8 1 -22 1 -42c0 -20.667 -2.66699 -31.667 -8 -33c-10 -2.66699 -27.333 -3.66699 -52 -3c-42 1.33301 -60 2 -54 2l-14 -1l-2 -1l-1 -20l1 -39l1 -3
c18 0 41.333 0.333008 70 1h69c20 0 31.333 -0.333008 34 -1c6.66699 -2.66699 10 -12 10 -28c0 -37.333 -3 -56 -9 -56h-258c-4.66699 0 -7.33398 2.66699 -8.00098 8c-1.33301 8.66699 -2 35.334 -2 80.001v108.5v108.5c0 25.333 2.33301 39.666 7 42.999
c2 1.33301 17.667 2 47 2h204c6 0 9 -16.333 9 -49c0 -18.667 -4.66699 -29.334 -14 -32.001c-2 -0.666992 -16.667 -1 -44 -1c-12 0 -30.667 0.333008 -56 1s-44 1 -56 1z" />
    <glyph glyph-name="asciitilde" unicode="~" horiz-adv-x="614" 
d="M488 576c8.66699 0 22.332 -15.166 40.999 -45.499s27.667 -50.5 27 -60.5v-7c-9.33301 -22 -32.166 -43.5 -68.499 -64.5s-66.833 -31.5 -91.5 -31.5c-27.333 0 -63.333 11 -108 33s-74.667 33 -90 33c-14 0 -30.167 -10.833 -48.5 -32.5s-31.833 -32.5 -40.5 -32.5
c-9.33301 0 -23.166 15.333 -41.499 46s-27.5 51 -27.5 61c0 23.333 19.667 47.666 59 72.999c37.333 23.333 69.666 35 96.999 35c25.333 0 54.333 -7.66699 87 -23h6c19.333 -10 45.333 -20.667 78 -32l5 -4c12.667 -3.33301 20 -5 22 -5c18 0 36.667 9.5 56 28.5
s32 28.5 38 28.5z" />
    <glyph glyph-name="nonbreakingspace" unicode="&#xa0;" horiz-adv-x="438" 
 />
    <glyph glyph-name="exclamdown" unicode="&#xa1;" horiz-adv-x="275" 
d="M105 513c-21.333 0 -35.999 4.33203 -43.999 12.999c-6 6.66699 -9 18.334 -9 35.001c0 4 0.333008 10.667 1 20v21c0 56 7 84 21 84c65.333 0 105.666 -1 120.999 -3c3.33301 1.33301 6.33301 2 9 2c17.333 0 26 -23.333 26 -70c0 -38.667 -1 -61.667 -3 -69
c-6.66699 -23.333 -23.667 -35 -51 -35c-8 0 -19.833 0.333008 -35.5 1s-27.5 1 -35.5 1zM228.001 123.999c0 -14 -0.332031 -34.832 -0.999023 -62.499s-1 -48.5 -1 -62.5c0 -11.333 -6 -17 -18 -17h-134c-12 0 -18 6.33301 -18 19v60c-0.666992 26.667 -1 46.667 -1 60
c0 28.667 5 87.667 15 177c10.667 98 19.667 150.5 27 157.5s23.666 10.5 48.999 10.5c22.667 0 36.334 -6.33301 41.001 -19c1.33301 -11.333 3.66602 -28 6.99902 -50l22 -136c8 -52.667 12 -98.334 12 -137.001z" />
    <glyph glyph-name="cent" unicode="&#xa2;" horiz-adv-x="563" 
d="M224 269c4.66699 1.33301 7 16 7 44c0 49.333 -0.666992 92.333 -2 129l-5 3c-16.667 -26.667 -25 -56 -25 -88c0 -40 8.33301 -69.333 25 -88zM352 272l2.99902 -5.00391c2 2 8.33301 13.667 19 35c8.66699 16.667 17 25 25 25c12 0 35.667 -10.167 71 -30.5
s53 -35.5 53 -45.5c0 -8 -5.5 -22.667 -16.5 -44s-19.833 -33.666 -26.5 -36.999v-5c-20.667 -25.333 -44.667 -43.666 -72 -54.999c-32 -12 -50.667 -20.667 -56 -26v-71c0 -14 -16.667 -21 -50 -21c-31.333 0 -51.666 2.5 -60.999 7.5s-14 15.167 -14 30.5
c0 4 0.333008 11.833 1 23.5s1 21.5 1 29.5l-3 5c-16 4.66699 -38.667 13.667 -68 27c-40 24 -71.333 59 -94 105c-20.667 42.667 -31 88.334 -31 137.001c0 86.667 29.667 157 89 211c12 10 30.833 20.167 56.5 30.5s42.5 18.833 50.5 25.5c0 -5.33301 0 13.334 0 56.001
c0 25.333 14.667 38 44 38c42 0 65.667 -2 71 -6s8 -24 8 -60c0 -12 0.666992 -22.333 2 -31c29.333 -3.33301 63.333 -22 102 -56c40.667 -36 61 -68 61 -96c0 -9.33301 -6.66699 -17.333 -20 -24c-10.667 -5.33301 -21.334 -10.333 -32.001 -15
c-7.33301 -0.666992 -20.166 -6 -38.499 -16s-29.833 -15 -34.5 -15c-8.66699 0 -16 5.33301 -22 16c-5.33301 8.66699 -10.333 17.667 -15 27l-3 -5v-165z" />
    <glyph glyph-name="sterling" unicode="&#xa3;" horiz-adv-x="655" 
d="M201 99c-8 7.33301 -16.667 11 -26 11c-12.667 0 -19 -4.33301 -19 -13c0 -10 3.66699 -13.667 11 -11l5 -3c8.66699 2 14.667 3.83301 18 5.5s7 5.16699 11 10.5zM219 219l3.00098 5.00098c0 6.66699 -4.66699 16.667 -14 30c-6.66699 1.33301 -39.334 2 -98.001 2
c-32.667 0 -47 10.333 -43 31l-1 1l1 5c-0.666992 25.333 -1 49.666 -1 72.999c0 14 6.66699 22.667 20 26c4.66699 1.33301 17 1.66602 37 0.999023l9 4c-19.333 32 -29 66.333 -29 103c0 86 49.667 149 149 189l-2 5l3 -5c30 10.667 62.333 16 97 16
c72 0 129.667 -19.333 173 -58c45.333 -40.667 68 -96.334 68 -167.001c0 -24.667 -1.33301 -41 -4 -49c-6 -13.333 -20 -20 -42 -20h-34c-15.333 0.666992 -27 1 -35 1c-18 0 -29.667 1.66699 -35 5c-7.33301 4.66699 -11 15.334 -11 32.001v23
c0.666992 26 -6.33301 47.5 -21 64.5s-34.667 25.5 -60 25.5c-22 0 -40.833 -7.33301 -56.5 -22s-23.5 -33 -23.5 -55c0 -27.333 13.667 -57.666 41 -90.999c42 0.666992 65.667 1 71 1c24 0 39.667 -2.33301 47 -7c10.667 -6 16 -19.667 16 -41
c0 -11.333 -1 -29.666 -3 -54.999l1 -2l-1 -5l1 -1c0.666992 -15.333 -6.66602 -24.666 -21.999 -27.999h-39c-5.33301 0 -10.333 -0.666992 -15 -2c3.33301 -12.667 5 -26.334 5 -41.001s-2 -36.334 -6 -65.001c21.333 -15.333 38.333 -23 51 -23
c19.333 0 31.666 12 36.999 36c1.33301 8.66699 2 28 2 58c0 17.333 21 26 63 26c5.33301 0 13.333 0.333008 24 1s18.334 1 23.001 1c34 0 51 -15.667 51 -47c0 -139.333 -52.667 -215.333 -158 -228l-4 1c-5.33301 -1.33301 -10.333 -2 -15 -2
c-34.667 0 -80.334 16 -137.001 48c-48.667 -29.333 -91.667 -44 -129 -44c-38.667 0 -71.5 11.833 -98.5 35.5s-40.5 54.5 -40.5 92.5c0 50 20.333 86 61 108v4c-0.666992 2 -0.666992 3 0 3c-2.66699 0 -0.666992 -1.33301 6 -4l15 7v3l4 -3c4.66699 0 12 1 22 3
s17.667 3 23 3c19.333 0 37.333 -2.66699 54 -8z" />
    <glyph glyph-name="currency" unicode="&#xa4;" horiz-adv-x="819" 
d="M133 384c-5.33301 0.666992 -33.332 1 -83.999 1c-20.667 0 -33 7.33301 -37 22l1 5l-1 1c1.33301 8.66699 26.666 35.667 75.999 81h14c18.667 -0.666992 34 0.333008 46 3c22.667 81.333 63 144.333 121 189s129 67 213 67c126.667 0 216 -43.667 268 -131
c3.33301 -5.33301 5 -10.666 5 -15.999c0 -8.66699 -17.5 -30.5 -52.5 -65.5s-56.833 -52.5 -65.5 -52.5c-8 0 -17.333 10 -28 30c-13.333 25.333 -26 43 -38 53c-22 18 -50.667 25.333 -86 22l-4 1c-29.333 -1.33301 -56.666 -10.5 -81.999 -27.5s-44 -38.833 -56 -65.5
l3 -5h253c4.66699 0 9 -3.16699 13 -9.5s6 -12.166 6 -17.499c0 -10.667 -23.333 -37.334 -70 -80.001l-8 -3c-26 -0.666992 -59.667 -0.666992 -101 0c-54 0.666992 -88 1 -102 1c-18 0 -26.333 -7 -25 -21l5 -6h149c15.333 0 23 -8.66699 23 -26
c0 -8 -11.333 -24.333 -34 -49s-38 -37 -46 -37c-5.33301 0 -13.333 0.333008 -24 1h-24c-12.667 0 -21.334 -1.33301 -26.001 -4c8.66699 -24.667 23.834 -46.334 45.501 -65.001s45.167 -30.334 70.5 -35.001l2 2c6.66699 -3.33301 15.667 -5 27 -5
c42.667 0 76.667 10.667 102 32c13.333 12 27.666 32.333 42.999 61c12 22 23 33 33 33c8.66699 0 30.667 -17.833 66 -53.5s53 -58.167 53 -67.5l-1 -4c-16 -53.333 -56.333 -96.333 -121 -129c-56 -28 -115 -42 -177 -42c-82.667 0 -154.334 24.833 -215.001 74.5
s-99.667 114.834 -117 195.501l-7 6c4.66699 0 -23.666 0 -84.999 0c-28.667 0 -43 9 -43 27c0 7.33301 10.667 22 32 44c17.333 16.667 32.333 29.667 45 39c6 1.33301 19 2 39 2l4 3z" />
    <glyph glyph-name="yen" unicode="&#xa5;" horiz-adv-x="706" 
d="M138 325c-27.333 0 -43.001 1 -47.001 3c-10 4.66699 -15 18.667 -15 42c0 34.667 3.33301 55 10 61c4.66699 4 24.667 6 60 6c8.66699 0 14.667 1.33301 18 4l-76 125c-42 70 -63 108 -63 114c0 14.667 15.333 23.667 46 27h66c37.333 0 59 -0.833008 65 -2.5
s30.667 -40.834 74 -117.501l75 -137l5 -1l145 252c4 3.33301 8 5 12 5h48c22 0.666992 38.333 1 49 1c26.667 0 41 -0.333008 43 -1c18 -2.66699 27 -11 27 -25c0 -8 -20.667 -46.333 -62 -115l-76 -125c3.33301 -2 18.666 -3 45.999 -3
c16.667 0 27.334 -3.16699 32.001 -9.5s7 -18.166 7 -35.499c0 -25.333 -0.333008 -40 -1 -44c-1.33301 -12.667 -8 -19.667 -20 -21c-8.66699 -1.33301 -52 -2 -130 -2c-6.66699 -4 -12.334 -11.667 -17.001 -23c2 -1.33301 35 -2 99 -2c32.667 0 51 -1.33301 55 -4
c9.33301 -5.33301 14 -22.333 14 -51c0 -18.667 -0.333008 -29.667 -1 -33c-2 -14 -8 -21.667 -18 -23c-5.33301 -0.666992 -53 -1.66699 -143 -3h-19l-4 -3c-0.666992 -15.333 -0.666992 -35 0 -59v-59c0 -44 -3 -69.167 -9 -75.5s-31.333 -9.5 -76 -9.5
c-30 0 -55.667 2 -77 6c-8.66699 1.33301 -13.667 5.33301 -15 12c-3.33301 21.333 -4.66602 48.333 -3.99902 81c0.666992 60 1 86.667 1 80v22l-3 5c-13.333 0.666992 -31 0.666992 -53 0c-28 -0.666992 -45.333 -1 -52 -1c-37.333 0 -58.333 1.33301 -63 4
c-10.667 6 -16 25 -16 57c0 16 1 28.333 3 37c2.66699 11.333 27 17.333 73 18c-69.333 -1.33301 -39.666 -2 89.001 -2l4 3c-2 5.33301 -6.33301 12.333 -13 21c0 0.666992 -31 1 -93 1z" />
    <glyph glyph-name="dieresis" unicode="&#xa8;" 
d="M318 829c0 -31.333 -1.33594 -50.335 -4.00293 -57.002c-5.33301 -16 -19.666 -24 -42.999 -24c-6 0 -15.667 -0.333008 -29 -1s-23.666 -1 -30.999 -1c-51.333 0 -77 18 -77 54c0 60.667 0.333008 93.334 1 98.001c2.66699 18 12.667 28.667 30 32
c8.66699 1.33301 42.334 2 101.001 2c35.333 0 53 -20 53 -60v-21c-0.666992 -9.33301 -1 -16.666 -1 -21.999zM540.997 912.998c2 -28 3.00098 -51 3.00098 -69v-49c0 -32.667 -22.333 -49 -67 -49c-7.33301 0 -18.333 0.5 -33 1.5s-25 1.5 -31 1.5
c-24 0 -40 5.33301 -48 16c-2 17.333 -3 36.333 -3 57v21c0 36.667 1.33301 58 4 64c5.33301 17.333 21.666 26 48.999 26h69c32.667 -2 51.667 -8.66699 57 -20z" />
    <glyph glyph-name="guillemotleft" unicode="&#xab;" horiz-adv-x="527" 
d="M208 513c19.333 0 29.002 -17.999 29.002 -53.999c0 -47.333 -0.833008 -75.333 -2.5 -84s-7.83398 -16 -18.501 -22c-16.667 -10 -32.667 -24.667 -48 -44l37 -28c16 -12.667 26.333 -23.667 31 -33c0 -6 0.333008 -19.333 1 -40c0.666992 -16.667 1 -30.334 1 -41.001
c0 -40 -9.66699 -60 -29 -60c-6 0 -32.667 19 -80 57c-44.667 35.333 -72.334 58.333 -83.001 69c-1.33301 26 -2 52.333 -2 79c0 26 0.666992 52.667 2 80l5 8c32.667 26 83 63.667 151 113h6zM436.002 513.001c19.333 0 29.001 -17.999 29.001 -53.999
c0 -47.333 -1 -75.333 -3 -84s-8 -16 -18 -22c-16.667 -10 -33 -24.667 -49 -44l38 -28c16 -12.667 26 -23.667 30 -33c0 -6 0.333008 -19.333 1 -40c0.666992 -16.667 1 -30.334 1 -41.001c0 -40 -9.33301 -60 -28 -60c-6 0 -32.667 19 -80 57
c-44.667 35.333 -72.334 58.333 -83.001 69c-1.33301 26 -2 52.333 -2 79c0 26 0.666992 52.667 2 80l5 8c32.667 26 82.667 63.667 150 113h7z" />
    <glyph glyph-name="degree" unicode="&#xb0;" horiz-adv-x="462" 
d="M187 716c0 -12 4.00098 -22.166 12.001 -30.499s17.667 -12.5 29 -12.5c12 0 22 4.16699 30 12.5s12 18.166 12 29.499c0 10.667 -4.16699 20.167 -12.5 28.5s-17.833 12.5 -28.5 12.5s-20.334 -4.16699 -29.001 -12.5s-13 -17.5 -13 -27.5zM228.001 900.001
c49.333 0 92.666 -17.999 129.999 -53.999s56 -78.667 56 -128c0 -50 -16.5 -93 -49.5 -129s-74.5 -55.667 -124.5 -59l-4 2c-7.33301 -1.33301 -14.666 -2 -21.999 -2c-46 0 -85.833 19.667 -119.5 59s-50.5 83 -50.5 131c0 49.333 18.333 91.666 55 126.999
s79.667 53 129 53z" />
    <glyph glyph-name="acute" unicode="&#xb4;" 
d="M503 914l-3 -9.99902c-68.667 -89.333 -112 -139 -130 -149c-6.66699 -0.666992 -19.667 -1.33398 -39 -2.00098c-16 -0.666992 -28.667 -1 -38 -1c-30 0 -45 8.33301 -45 25c0 10 8.66699 38 26 84c18 48.667 31 74.334 39 77.001c10.667 3.33301 34.667 5 72 5
c48.667 0 71.667 0 69 0c32.667 -2.66699 49 -12.334 49 -29.001z" />
    <glyph glyph-name="periodcentered" unicode="&#xb7;" horiz-adv-x="294" 
d="M228 374c-0.666992 -22.667 -13.332 -36.333 -37.999 -41c-6.66699 -2 -28.334 -3 -65.001 -3c-34.667 0 -56 8.66699 -64 26c-4 8.66699 -6 33 -6 73c0 40.667 5.66699 65 17 73l-1 5l4 -3c15.333 1.33301 59 2 131 2c14.667 0 22 -16 22 -48v-84z" />
    <glyph glyph-name="periodcentered" unicode="&#x2219;" horiz-adv-x="294" 
d="M228 374c-0.666992 -22.667 -13.332 -36.333 -37.999 -41c-6.66699 -2 -28.334 -3 -65.001 -3c-34.667 0 -56 8.66699 -64 26c-4 8.66699 -6 33 -6 73c0 40.667 5.66699 65 17 73l-1 5l4 -3c15.333 1.33301 59 2 131 2c14.667 0 22 -16 22 -48v-84z" />
    <glyph glyph-name="cedilla" unicode="&#xb8;" horiz-adv-x="765" 
d="M294 -212c-14.667 0 -22.001 12.332 -22.001 36.999c0 16.667 4 27.667 12 33c4 2.66699 12 4.33398 24 5.00098c9.33301 1.33301 14.333 4.66602 15 9.99902c-21.333 3.33301 -33.666 6 -36.999 8c-9.33301 4.66699 -14 14.667 -14 30
c0 8.66699 -0.333008 19.334 -1 32.001s-1 21 -1 25c0 17.333 4 29.833 12 37.5s24.667 11.5 50 11.5h59c24 0 38.667 -3.5 44 -10.5s8 -23.167 8 -48.5c0 -73.333 -6.66699 -119 -20 -137c-16.667 -22 -59.667 -33 -129 -33z" />
    <glyph glyph-name="guillemotright" unicode="&#xbb;" horiz-adv-x="523" 
d="M302 107c-5.33301 0 -12.001 1.99707 -20.001 5.99707c-6.66699 8.66699 -10 23.334 -10 44.001c0 48.667 1.16699 77.834 3.5 87.501s8.83301 17.5 19.5 23.5c16.667 10 32.334 24.333 47.001 43l-37 28c-16.667 13.333 -27 24.333 -31 33c0 6 -0.333008 19.333 -1 40
c-0.666992 16.667 -1 30.334 -1 41.001c0 40 9.66699 60 29 60c5.33301 0 32 -19 80 -57c45.333 -36 73 -59 83 -69c1.33301 -26 2 -52 2 -78c0 -26.667 -0.666992 -53.667 -2 -81l-5 -8l-151 -113h-6zM73.999 103.997c-5.33301 0 -11.668 1.99805 -19.001 5.99805
c-6.66699 8.66699 -10 23.334 -10 44.001c0 48 1 77.333 3 88c2 8.66699 8.33301 16.334 19 23.001c16.667 10 32.334 24 47.001 42c-12 10 -24.333 19.667 -37 29c-16.667 12.667 -27 23.667 -31 33c0 6 -0.333008 19.333 -1 40c-0.666992 16.667 -1 30 -1 40
c0 40.667 9.66699 61 29 61c5.33301 0 32 -19 80 -57c45.333 -36 73 -59.333 83 -70c1.33301 -26 2 -52 2 -78s-0.666992 -52.667 -2 -80l-5 -8c-32.667 -26 -83 -63.667 -151 -113h-6z" />
    <glyph glyph-name="questiondown" unicode="&#xbf;" horiz-adv-x="650" 
d="M393 467c32.667 0 49.002 -15.0029 49.002 -45.0029c0 -42.667 -13 -78 -39 -106c-3.33301 -3.33301 -27.333 -22 -72 -56c-26 -20 -39 -41.667 -39 -65c0 -18.667 7 -34.834 21 -48.501s30.333 -20.5 49 -20.5c5.33301 0 10.666 0.666992 15.999 2l5 -1
c24.667 4.66699 42.667 18.334 54 41.001c4 6.66699 10 25.667 18 57c5.33301 20 13 30 23 30c40 0 81 -7.33301 123 -22c12.667 -4 19 -12 19 -24c0 -65.333 -24.667 -121.166 -74 -167.499s-107 -69.5 -173 -69.5l-3 -5l-3 5l-14 -1
c-65.333 -1.33301 -121 19.334 -167 62.001c-48 43.333 -72 97.666 -72 162.999c0 75.333 45.333 143.333 136 204c13.333 8.66699 24.666 21.334 33.999 38.001c8.66699 14.667 14 22.334 16 23.001c12.667 4 43.667 6 93 6zM413.002 686.997
c30 0 45.001 -21.667 45.001 -65c0 -6.66699 -0.333008 -17 -1 -31s-1 -24.333 -1 -31c0 -24 -8.33301 -38.667 -25 -44c-6 -2 -25.333 -3 -58 -3c-40 0 -62 0.666992 -66 2c-17.333 4.66699 -26 21 -26 49c0 59.333 1.66699 94 5 104c5.33301 14 21.666 21 48.999 21
c4.66699 0 15.667 -0.333008 33 -1s32.333 -1 45 -1z" />
    <glyph glyph-name="Agrave" unicode="&#xc0;" 
d="M185 -18l-144.999 0.000976562c-12 4 -18 12.333 -18 25c0 16 25 97.333 75 244c56 167.333 86.333 260.333 91 279l39 123c3.33301 9.33301 6 15.666 8 18.999c3.33301 6 8.66602 9.83301 15.999 11.5s23.333 2.5 48 2.5h75c20.667 0 32 -0.333008 34 -1
c14 -2 23.333 -7.33301 28 -16c8.66699 -18.667 46.667 -132.5 114 -341.5s101 -316.833 101 -323.5c0 -7.33301 -4.33301 -14.333 -13 -21c-28.667 -2.66699 -70 -4 -124 -4c-22 0 -37.333 5.33301 -46 16c-4.66699 6 -9 18.333 -13 37s-9.33301 32.667 -16 42h-209l-4 -3
l-14 -52c-7.33301 -24.667 -16.333 -37 -27 -37zM372.001 233.001l14 1l3 5c-10.667 42 -18.667 72 -24 90c-10 34 -20.333 63.333 -31 88l-5 3l-53 -180l3 -6c36 -2 67 -2.33301 93 -1zM340.001 939.001c17.333 0 28 -3.49902 32 -10.499s14 -33.167 30 -78.5
s24 -71 24 -77c0 -14 -12 -22.333 -36 -25c-3.33301 -0.666992 -21 -1 -53 -1c-22 0 -35.833 0.833008 -41.5 2.5s-27.834 27.667 -66.501 78s-58 78.5 -58 84.5c0 13.333 4.66699 21.666 14 24.999c4.66699 1.33301 56.334 2 155.001 2z" />
    <glyph glyph-name="Aacute" unicode="&#xc1;" 
d="M185 -18l-144.999 0.000976562c-12 4 -18 12.333 -18 25c0 16 25 97.333 75 244c56 167.333 86.333 260.333 91 279l39 123c3.33301 9.33301 6 15.666 8 18.999c3.33301 6 8.66602 9.83301 15.999 11.5s23.333 2.5 48 2.5h75c20.667 0 32 -0.333008 34 -1
c14 -2 23.333 -7.33301 28 -16c8.66699 -18.667 46.667 -132.5 114 -341.5s101 -316.833 101 -323.5c0 -7.33301 -4.33301 -14.333 -13 -21c-28.667 -2.66699 -70 -4 -124 -4c-22 0 -37.333 5.33301 -46 16c-4.66699 6 -9 18.333 -13 37s-9.33301 32.667 -16 42h-209l-4 -3
l-14 -52c-7.33301 -24.667 -16.333 -37 -27 -37zM372.001 233.001l14 1l3 5c-10.667 42 -18.667 72 -24 90c-10 34 -20.333 63.333 -31 88l-5 3l-53 -180l3 -6c36 -2 67 -2.33301 93 -1zM503.001 914.001l-3 -9.99902c-68.667 -89.333 -112 -139 -130 -149
c-6.66699 -0.666992 -19.667 -1.33398 -39 -2.00098c-16 -0.666992 -28.667 -1 -38 -1c-30 0 -45 8.33301 -45 25c0 10 8.66699 38 26 84c18 48.667 31 74.334 39 77.001c10.667 3.33301 34.667 5 72 5c48.667 0 71.667 0 69 0c32.667 -2.66699 49 -12.334 49 -29.001z" />
    <glyph glyph-name="Acircumflex" unicode="&#xc2;" 
d="M185 -18l-144.999 0.000976562c-12 4 -18 12.333 -18 25c0 16 25 97.333 75 244c56 167.333 86.333 260.333 91 279l39 123c3.33301 9.33301 6 15.666 8 18.999c3.33301 6 8.66602 9.83301 15.999 11.5s23.333 2.5 48 2.5h75c20.667 0 32 -0.333008 34 -1
c14 -2 23.333 -7.33301 28 -16c8.66699 -18.667 46.667 -132.5 114 -341.5s101 -316.833 101 -323.5c0 -7.33301 -4.33301 -14.333 -13 -21c-28.667 -2.66699 -70 -4 -124 -4c-22 0 -37.333 5.33301 -46 16c-4.66699 6 -9 18.333 -13 37s-9.33301 32.667 -16 42h-209l-4 -3
l-14 -52c-7.33301 -24.667 -16.333 -37 -27 -37zM372.001 233.001l14 1l3 5c-10.667 42 -18.667 72 -24 90c-10 34 -20.333 63.333 -31 88l-5 3l-53 -180l3 -6c36 -2 67 -2.33301 93 -1zM515.001 778.001c0 -15.333 -10.667 -23.334 -32 -24.001l-110 -1
c-8.66699 0 -20 9.66699 -34 29l-5 2l-19.5 -20.5c-6.33301 -6.33301 -15.5 -9.5 -27.5 -9.5c-13.333 0.666992 -30.666 0.666992 -51.999 0c-26 -0.666992 -43 -1 -51 -1c-18 0 -27 9.33301 -27 28c0 6.66699 20 33.667 60 81s63.167 71.833 69.5 73.5s24.5 2.5 54.5 2.5
c33.333 0 52.666 -2 57.999 -6c10 -7.33301 31.833 -32.666 65.5 -75.999s50.5 -69.333 50.5 -78z" />
    <glyph glyph-name="Atilde" unicode="&#xc3;" 
d="M185 -18l-144.999 0.000976562c-12 4 -18 12.333 -18 25c0 16 25 97.333 75 244c56 167.333 86.333 260.333 91 279l39 123c3.33301 9.33301 6 15.666 8 18.999c3.33301 6 8.66602 9.83301 15.999 11.5s23.333 2.5 48 2.5h75c20.667 0 32 -0.333008 34 -1
c14 -2 23.333 -7.33301 28 -16c8.66699 -18.667 46.667 -132.5 114 -341.5s101 -316.833 101 -323.5c0 -7.33301 -4.33301 -14.333 -13 -21c-28.667 -2.66699 -70 -4 -124 -4c-22 0 -37.333 5.33301 -46 16c-4.66699 6 -9 18.333 -13 37s-9.33301 32.667 -16 42h-209l-4 -3
l-14 -52c-7.33301 -24.667 -16.333 -37 -27 -37zM372.001 233.001l14 1l3 5c-10.667 42 -18.667 72 -24 90c-10 34 -20.333 63.333 -31 88l-5 3l-53 -180l3 -6c36 -2 67 -2.33301 93 -1zM253.001 902.001c18.667 0 40.334 -5.33301 65.001 -16l61 -26c4 4 6 11 6 21
c0.666992 8 4.66699 13.333 12 16c11.333 4.66699 34 7 68 7c29.333 0 44 -14.667 44 -44c0 -38.667 -10.333 -71.334 -31 -98.001c-22.667 -30 -53 -45 -91 -45c-18 0 -38.333 4.66699 -61 14c-18.667 9.33301 -37.667 18.333 -57 27l-5 -1c-8 -27.333 -21 -41 -39 -41
c-2.66699 0 -9 0.333008 -19 1s-18.667 1 -26 1c-17.333 0 -29 3.5 -35 10.5s-9 19.167 -9 36.5c0 38.667 9.66699 70.334 29 95.001c21.333 28 50.666 42 87.999 42z" />
    <glyph glyph-name="Adieresis" unicode="&#xc4;" 
d="M185 -18l-144.999 0.000976562c-12 4 -18 12.333 -18 25c0 16 25 97.333 75 244c56 167.333 86.333 260.333 91 279l39 123c3.33301 9.33301 6 15.666 8 18.999c3.33301 6 8.66602 9.83301 15.999 11.5s23.333 2.5 48 2.5h75c20.667 0 32 -0.333008 34 -1
c14 -2 23.333 -7.33301 28 -16c8.66699 -18.667 46.667 -132.5 114 -341.5s101 -316.833 101 -323.5c0 -7.33301 -4.33301 -14.333 -13 -21c-28.667 -2.66699 -70 -4 -124 -4c-22 0 -37.333 5.33301 -46 16c-4.66699 6 -9 18.333 -13 37s-9.33301 32.667 -16 42h-209l-4 -3
l-14 -52c-7.33301 -24.667 -16.333 -37 -27 -37zM372.001 233.001l14 1l3 5c-10.667 42 -18.667 72 -24 90c-10 34 -20.333 63.333 -31 88l-5 3l-53 -180l3 -6c36 -2 67 -2.33301 93 -1zM318.001 829.001c0 -31.333 -1.33594 -50.335 -4.00293 -57.002
c-5.33301 -16 -19.666 -24 -42.999 -24c-6 0 -15.667 -0.333008 -29 -1s-23.666 -1 -30.999 -1c-51.333 0 -77 18 -77 54c0 60.667 0.333008 93.334 1 98.001c2.66699 18 12.667 28.667 30 32c8.66699 1.33301 42.334 2 101.001 2c35.333 0 53 -20 53 -60v-21
c-0.666992 -9.33301 -1 -16.666 -1 -21.999zM540.998 912.999c2 -28 3.00098 -51 3.00098 -69v-49c0 -32.667 -22.333 -49 -67 -49c-7.33301 0 -18.333 0.5 -33 1.5s-25 1.5 -31 1.5c-24 0 -40 5.33301 -48 16c-2 17.333 -3 36.333 -3 57v21c0 36.667 1.33301 58 4 64
c5.33301 17.333 21.666 26 48.999 26h69c32.667 -2 51.667 -8.66699 57 -20z" />
    <glyph glyph-name="Aring" unicode="&#xc5;" 
d="M185 -18l-144.999 0.000976562c-12 4 -18 12.333 -18 25c0 16 25 97.333 75 244c56 167.333 86.333 260.333 91 279l39 123c3.33301 9.33301 6 15.666 8 18.999c3.33301 6 8.66602 9.83301 15.999 11.5s23.333 2.5 48 2.5h75c20.667 0 32 -0.333008 34 -1
c14 -2 23.333 -7.33301 28 -16c8.66699 -18.667 46.667 -132.5 114 -341.5s101 -316.833 101 -323.5c0 -7.33301 -4.33301 -14.333 -13 -21c-28.667 -2.66699 -70 -4 -124 -4c-22 0 -37.333 5.33301 -46 16c-4.66699 6 -9 18.333 -13 37s-9.33301 32.667 -16 42h-209l-4 -3
l-14 -52c-7.33301 -24.667 -16.333 -37 -27 -37zM372.001 233.001l14 1l3 5c-10.667 42 -18.667 72 -24 90c-10 34 -20.333 63.333 -31 88l-5 3l-53 -180l3 -6c36 -2 67 -2.33301 93 -1zM325.001 859.001c-8.66699 0 -13 -5 -13 -15l2 -6l9 -4c9.33301 0 14 4.33301 14 13
l-2 9zM201.001 846.001c0 34.667 12.167 64.167 36.5 88.5s53.5 36.5 87.5 36.5s63.333 -12.167 88 -36.5s37 -53.833 37 -88.5c0 -34 -12.333 -63.167 -37 -87.5s-54 -36.5 -88 -36.5s-63.167 12.167 -87.5 36.5s-36.5 53.5 -36.5 87.5z" />
    <glyph glyph-name="AE" unicode="&#xc6;" horiz-adv-x="1034" 
d="M977 585c0 -8 -0.668945 -20.3311 -2.00195 -36.998c-3.33301 -13.333 -45 -20 -125 -20c-22.667 0 -56.834 0.666992 -102.501 2s-79.834 2 -102.501 2l-7 -3c-1.33301 -12 -2 -24.667 -2 -38l1 -33l3 -5c24 -0.666992 54.667 -0.666992 92 0
c52.667 0.666992 83.667 1 93 1c27.333 0 44 -1.33301 50 -4c14 -4.66699 21 -17.667 21 -39c0 -10 0.333008 -22.5 1 -37.5s1 -24.833 1 -29.5c0 -26 -5.66699 -42.667 -17 -50s-38.333 -11 -81 -11c-18 0 -44.833 0.666992 -80.5 2s-62.167 2 -79.5 2l-3 -4v-123l5 -3
c18.667 0 62.334 0.333008 131.001 1c53.333 0.666992 96.666 1 129.999 1c38.667 0 64.334 -1.16699 77.001 -3.5s18.334 -10.833 17.001 -25.5c1.33301 -24 1.33301 -59.667 0 -107l2 -2l-2 -4l2 -2c-2 -13.333 -8.33301 -22.333 -19 -27l-426 -1
c-7.33301 0 -17.166 -0.333008 -29.499 -1s-20.833 -1 -25.5 -1c-19.333 0 -32.666 4.66699 -39.999 14s-11 29.666 -11 60.999c0 12.667 1.66699 37.667 5 75c-30 1.33301 -60.333 2 -91 2c-30 0 -60 -0.666992 -90 -2c-6.66699 -16.667 -20 -43.334 -40 -80.001
c-23.333 -42.667 -38.666 -64.667 -45.999 -66c-16.667 -2.66699 -53.334 -4 -110.001 -4c-48.667 0 -73 9 -73 27c0 8 24.667 56.667 74 146c46 84 74.667 134.333 86 151c7.33301 10 16.666 25 27.999 45c10 25.333 39.167 81.833 87.5 169.5s78.833 139.5 91.5 155.5
c6.66699 8.66699 29.334 13 68.001 13l290 -1c18 0 41.667 0.333008 71 1c32 0.666992 55.667 1 71 1c7.33301 0 17 0.333008 29 1s20.667 1 26 1c18 0 31.333 -4 40 -12s12.667 -23.667 12 -47v-51zM450.998 468.002l-5 3l-82 -159c2.66699 -2.66699 14.334 -4 35.001 -4
c3.33301 0 19.666 0.333008 48.999 1l3 5v154z" />
    <glyph glyph-name="Ccedilla" unicode="&#xc7;" horiz-adv-x="708" 
d="M674 197c0 -10.667 -8.16602 -31.667 -24.499 -63s-28.833 -49.666 -37.5 -54.999c-24.667 -38 -61 -67 -109 -87c-42 -17.333 -88 -26 -138 -26c-103.333 0 -186 36 -248 108c-60 68 -90 154.333 -90 259c0 60.667 7 111 21 151c15.333 45.333 43 87.333 83 126
c12 11.333 19 18.333 21 21c7.33301 8 12.666 16.333 15.999 25l4 -2c18 8.66699 38.667 21 62 37l5 -3l53 15v2c0 1.33301 0.333008 1.66602 1 0.999023l2 -3c26 4.66699 51.333 7 76 7c81.333 0 147 -22 197 -66l23 -19c8.66699 -8.66699 14 -16.667 16 -24
c12 -13.333 24.667 -33.333 38 -60c15.333 -29.333 23 -51 23 -65c0 -2.66699 -0.333008 -4.66699 -1 -6c-3.33301 -10 -13 -17.667 -29 -23l-39 -8l-47 -14c-22.667 -7.33301 -37.667 -11 -45 -11c-12 0 -21 11 -27 33c-8.66699 31.333 -17 52 -25 62
c-16 22 -42.333 33 -79 33c-51.333 0 -91.666 -21 -120.999 -63c-26 -36.667 -39 -81.667 -39 -135c0 -46.667 8.66699 -87 26 -121c20.667 -40.667 51.334 -66 92.001 -76l6 1c2 0 5.16699 -0.833008 9.5 -2.5s8.16602 -2.5 11.499 -2.5h15l4 5c1.33301 0 3 -0.333008 5 -1
c0 -1.33301 2 -2 6 -2c24.667 0 46.667 11.667 66 35c9.33301 10.667 22.666 32 39.999 64c12 23.333 21.667 35 29 35s29.333 -8 66 -24c33.333 -14.667 55.333 -25.5 66 -32.5s16 -15.5 16 -25.5zM294.001 -212c-14.667 0 -22.001 12.332 -22.001 36.999
c0 16.667 4 27.667 12 33c4 2.66699 12 4.33398 24 5.00098c9.33301 1.33301 14.333 4.66602 15 9.99902c-21.333 3.33301 -33.666 6 -36.999 8c-9.33301 4.66699 -14 14.667 -14 30c0 8.66699 -0.333008 19.334 -1 32.001s-1 21 -1 25c0 17.333 4 29.833 12 37.5
s24.667 11.5 50 11.5h59c24 0 38.667 -3.5 44 -10.5s8 -23.167 8 -48.5c0 -73.333 -6.66699 -119 -20 -137c-16.667 -22 -59.667 -33 -129 -33z" />
    <glyph glyph-name="Egrave" unicode="&#xc8;" horiz-adv-x="618" 
d="M230 531c-6 0 -8.66602 -9.33496 -7.99902 -28.002v-44l3 -5l224 1c16 0 26.667 -5 32 -15c1.33301 -17.333 2 -45.666 2 -84.999c0 -24.667 -0.666992 -41 -2 -49c-2 -10 -9.66699 -16 -23 -18c-20.667 -4.66699 -54.334 -6.33398 -101.001 -5.00098
c-72 2 -106 3 -102 3h-28l-5 -3l-1 -39l1 -79l3 -5c35.333 -0.666992 81.666 -0.666992 138.999 0c70 1.33301 116.333 2 139 2c40 0 62.333 -1 67 -3c14 -6 21 -24.333 21 -55c0 -51.333 0.333008 -72.666 1 -63.999c-2 -33.333 -8.33301 -50 -19 -50h-517
c-8.66699 0 -13.667 5.33301 -15 16c-2.66699 18 -4 71.333 -4 160v218c-0.666992 96 -1 168.333 -1 217c0 41.333 2.16699 66.833 6.5 76.5s16.5 14.5 36.5 14.5c4 0 13.333 -0.333008 28 -1h38l407 -1c10.667 0 17.334 -14 20.001 -42c0 0.666992 0 -17.666 0 -54.999
c0 -28 -4.5 -46.333 -13.5 -55s-24.167 -13 -45.5 -13c-4.66699 0 -13.5 0.333008 -26.5 1s-23.5 1 -31.5 1c-24.667 0 -62 0.666992 -112 2s-87.667 2 -113 2zM340.001 938.998c17.333 0 28 -3.49902 32 -10.499s14 -33.167 30 -78.5s24 -71 24 -77
c0 -14 -12 -22.333 -36 -25c-3.33301 -0.666992 -21 -1 -53 -1c-22 0 -35.833 0.833008 -41.5 2.5s-27.834 27.667 -66.501 78s-58 78.5 -58 84.5c0 13.333 4.66699 21.666 14 24.999c4.66699 1.33301 56.334 2 155.001 2z" />
    <glyph glyph-name="Eacute" unicode="&#xc9;" horiz-adv-x="618" 
d="M230 531c-6 0 -8.66602 -9.33496 -7.99902 -28.002v-44l3 -5l224 1c16 0 26.667 -5 32 -15c1.33301 -17.333 2 -45.666 2 -84.999c0 -24.667 -0.666992 -41 -2 -49c-2 -10 -9.66699 -16 -23 -18c-20.667 -4.66699 -54.334 -6.33398 -101.001 -5.00098
c-72 2 -106 3 -102 3h-28l-5 -3l-1 -39l1 -79l3 -5c35.333 -0.666992 81.666 -0.666992 138.999 0c70 1.33301 116.333 2 139 2c40 0 62.333 -1 67 -3c14 -6 21 -24.333 21 -55c0 -51.333 0.333008 -72.666 1 -63.999c-2 -33.333 -8.33301 -50 -19 -50h-517
c-8.66699 0 -13.667 5.33301 -15 16c-2.66699 18 -4 71.333 -4 160v218c-0.666992 96 -1 168.333 -1 217c0 41.333 2.16699 66.833 6.5 76.5s16.5 14.5 36.5 14.5c4 0 13.333 -0.333008 28 -1h38l407 -1c10.667 0 17.334 -14 20.001 -42c0 0.666992 0 -17.666 0 -54.999
c0 -28 -4.5 -46.333 -13.5 -55s-24.167 -13 -45.5 -13c-4.66699 0 -13.5 0.333008 -26.5 1s-23.5 1 -31.5 1c-24.667 0 -62 0.666992 -112 2s-87.667 2 -113 2zM490.001 913.998l-3 -9.99902c-68.667 -89.333 -112 -139 -130 -149
c-6.66699 -0.666992 -19.667 -1.33398 -39 -2.00098c-16 -0.666992 -28.667 -1 -38 -1c-30 0 -45 8.33301 -45 25c0 10 8.66699 38 26 84c18 48.667 31 74.334 39 77.001c10.667 3.33301 34.667 5 72 5c48.667 0 71.667 0 69 0c32.667 -2.66699 49 -12.334 49 -29.001z" />
    <glyph glyph-name="Ecircumflex" unicode="&#xca;" horiz-adv-x="618" 
d="M230 531c-6 0 -8.66602 -9.33496 -7.99902 -28.002v-44l3 -5l224 1c16 0 26.667 -5 32 -15c1.33301 -17.333 2 -45.666 2 -84.999c0 -24.667 -0.666992 -41 -2 -49c-2 -10 -9.66699 -16 -23 -18c-20.667 -4.66699 -54.334 -6.33398 -101.001 -5.00098
c-72 2 -106 3 -102 3h-28l-5 -3l-1 -39l1 -79l3 -5c35.333 -0.666992 81.666 -0.666992 138.999 0c70 1.33301 116.333 2 139 2c40 0 62.333 -1 67 -3c14 -6 21 -24.333 21 -55c0 -51.333 0.333008 -72.666 1 -63.999c-2 -33.333 -8.33301 -50 -19 -50h-517
c-8.66699 0 -13.667 5.33301 -15 16c-2.66699 18 -4 71.333 -4 160v218c-0.666992 96 -1 168.333 -1 217c0 41.333 2.16699 66.833 6.5 76.5s16.5 14.5 36.5 14.5c4 0 13.333 -0.333008 28 -1h38l407 -1c10.667 0 17.334 -14 20.001 -42c0 0.666992 0 -17.666 0 -54.999
c0 -28 -4.5 -46.333 -13.5 -55s-24.167 -13 -45.5 -13c-4.66699 0 -13.5 0.333008 -26.5 1s-23.5 1 -31.5 1c-24.667 0 -62 0.666992 -112 2s-87.667 2 -113 2zM492.001 777.998c0 -15.333 -10.667 -23.334 -32 -24.001l-110 -1c-8.66699 0 -20 9.66699 -34 29l-5 2
l-19.5 -20.5c-6.33301 -6.33301 -15.5 -9.5 -27.5 -9.5c-13.333 0.666992 -30.666 0.666992 -51.999 0c-26 -0.666992 -43 -1 -51 -1c-18 0 -27 9.33301 -27 28c0 6.66699 20 33.667 60 81s63.167 71.833 69.5 73.5s24.5 2.5 54.5 2.5c33.333 0 52.666 -2 57.999 -6
c10 -7.33301 31.833 -32.666 65.5 -75.999s50.5 -69.333 50.5 -78z" />
    <glyph glyph-name="Edieresis" unicode="&#xcb;" horiz-adv-x="618" 
d="M230 531c-6 0 -8.66602 -9.33496 -7.99902 -28.002v-44l3 -5l224 1c16 0 26.667 -5 32 -15c1.33301 -17.333 2 -45.666 2 -84.999c0 -24.667 -0.666992 -41 -2 -49c-2 -10 -9.66699 -16 -23 -18c-20.667 -4.66699 -54.334 -6.33398 -101.001 -5.00098
c-72 2 -106 3 -102 3h-28l-5 -3l-1 -39l1 -79l3 -5c35.333 -0.666992 81.666 -0.666992 138.999 0c70 1.33301 116.333 2 139 2c40 0 62.333 -1 67 -3c14 -6 21 -24.333 21 -55c0 -51.333 0.333008 -72.666 1 -63.999c-2 -33.333 -8.33301 -50 -19 -50h-517
c-8.66699 0 -13.667 5.33301 -15 16c-2.66699 18 -4 71.333 -4 160v218c-0.666992 96 -1 168.333 -1 217c0 41.333 2.16699 66.833 6.5 76.5s16.5 14.5 36.5 14.5c4 0 13.333 -0.333008 28 -1h38l407 -1c10.667 0 17.334 -14 20.001 -42c0 0.666992 0 -17.666 0 -54.999
c0 -28 -4.5 -46.333 -13.5 -55s-24.167 -13 -45.5 -13c-4.66699 0 -13.5 0.333008 -26.5 1s-23.5 1 -31.5 1c-24.667 0 -62 0.666992 -112 2s-87.667 2 -113 2zM284.001 828.998c0 -31.333 -1.33594 -50.335 -4.00293 -57.002c-5.33301 -16 -19.666 -24 -42.999 -24
c-6 0 -15.667 -0.333008 -29 -1s-23.666 -1 -30.999 -1c-51.333 0 -77 18 -77 54c0 60.667 0.333008 93.334 1 98.001c2.66699 18 12.667 28.667 30 32c8.66699 1.33301 42.334 2 101.001 2c35.333 0 53 -20 53 -60v-21c-0.666992 -9.33301 -1 -16.666 -1 -21.999z
M506.998 912.996c2 -28 3.00098 -51 3.00098 -69v-49c0 -32.667 -22.333 -49 -67 -49c-7.33301 0 -18.333 0.5 -33 1.5s-25 1.5 -31 1.5c-24 0 -40 5.33301 -48 16c-2 17.333 -3 36.333 -3 57v21c0 36.667 1.33301 58 4 64c5.33301 17.333 21.666 26 48.999 26h69
c32.667 -2 51.667 -8.66699 57 -20z" />
    <glyph glyph-name="Igrave" unicode="&#xcc;" horiz-adv-x="292" 
d="M241 45c0 -30 -1.66797 -47.332 -5.00098 -51.999c-5.33301 -8 -21 -12 -47 -12h-86c-11.333 0 -21 0.666992 -29 2c-11.333 2.66699 -18 22 -20 58c0 -1.33301 0 22 0 70c0 29.333 0.333008 73.333 1 132s1 103 1 133c0 18.667 -0.666992 48.167 -2 88.5
s-2 70.833 -2 91.5c0 41.333 2 77.333 6 108c0.666992 5.33301 3.33398 10 8.00098 14l2 5c49.333 2 90 3 122 3c28 0 44.333 -8 49 -24c2 -4.66699 3 -27.334 3 -68.001zM164.999 939.001c17.333 0 28 -3.49902 32 -10.499s14 -33.167 30 -78.5s24 -71 24 -77
c0 -14 -12 -22.333 -36 -25c-3.33301 -0.666992 -21 -1 -53 -1c-22 0 -35.833 0.833008 -41.5 2.5s-27.834 27.667 -66.501 78s-58 78.5 -58 84.5c0 13.333 4.66699 21.666 14 24.999c4.66699 1.33301 56.334 2 155.001 2z" />
    <glyph glyph-name="Iacute" unicode="&#xcd;" horiz-adv-x="292" 
d="M241 45c0 -30 -1.66797 -47.332 -5.00098 -51.999c-5.33301 -8 -21 -12 -47 -12h-86c-11.333 0 -21 0.666992 -29 2c-11.333 2.66699 -18 22 -20 58c0 -1.33301 0 22 0 70c0 29.333 0.333008 73.333 1 132s1 103 1 133c0 18.667 -0.666992 48.167 -2 88.5
s-2 70.833 -2 91.5c0 41.333 2 77.333 6 108c0.666992 5.33301 3.33398 10 8.00098 14l2 5c49.333 2 90 3 122 3c28 0 44.333 -8 49 -24c2 -4.66699 3 -27.334 3 -68.001zM289.999 914.001l-3 -9.99902c-68.667 -89.333 -112 -139 -130 -149
c-6.66699 -0.666992 -19.667 -1.33398 -39 -2.00098c-16 -0.666992 -28.667 -1 -38 -1c-30 0 -45 8.33301 -45 25c0 10 8.66699 38 26 84c18 48.667 31 74.334 39 77.001c10.667 3.33301 34.667 5 72 5c48.667 0 71.667 0 69 0c32.667 -2.66699 49 -12.334 49 -29.001z" />
    <glyph glyph-name="Icircumflex" unicode="&#xce;" horiz-adv-x="292" 
d="M241 45c0 -30 -1.66797 -47.332 -5.00098 -51.999c-5.33301 -8 -21 -12 -47 -12h-86c-11.333 0 -21 0.666992 -29 2c-11.333 2.66699 -18 22 -20 58c0 -1.33301 0 22 0 70c0 29.333 0.333008 73.333 1 132s1 103 1 133c0 18.667 -0.666992 48.167 -2 88.5
s-2 70.833 -2 91.5c0 41.333 2 77.333 6 108c0.666992 5.33301 3.33398 10 8.00098 14l2 5c49.333 2 90 3 122 3c28 0 44.333 -8 49 -24c2 -4.66699 3 -27.334 3 -68.001zM320.999 778.001c0 -15.333 -10.667 -23.334 -32 -24.001l-110 -1c-8.66699 0 -20 9.66699 -34 29
l-5 2l-19.5 -20.5c-6.33301 -6.33301 -15.5 -9.5 -27.5 -9.5c-13.333 0.666992 -30.666 0.666992 -51.999 0c-26 -0.666992 -43 -1 -51 -1c-18 0 -27 9.33301 -27 28c0 6.66699 20 33.667 60 81s63.167 71.833 69.5 73.5s24.5 2.5 54.5 2.5c33.333 0 52.666 -2 57.999 -6
c10 -7.33301 31.833 -32.666 65.5 -75.999s50.5 -69.333 50.5 -78z" />
    <glyph glyph-name="Idieresis" unicode="&#xcf;" horiz-adv-x="292" 
d="M241 45c0 -30 -1.66797 -47.332 -5.00098 -51.999c-5.33301 -8 -21 -12 -47 -12h-86c-11.333 0 -21 0.666992 -29 2c-11.333 2.66699 -18 22 -20 58c0 -1.33301 0 22 0 70c0 29.333 0.333008 73.333 1 132s1 103 1 133c0 18.667 -0.666992 48.167 -2 88.5
s-2 70.833 -2 91.5c0 41.333 2 77.333 6 108c0.666992 5.33301 3.33398 10 8.00098 14l2 5c49.333 2 90 3 122 3c28 0 44.333 -8 49 -24c2 -4.66699 3 -27.334 3 -68.001zM129.999 829.001c0 -31.333 -1.33594 -50.335 -4.00293 -57.002
c-5.33301 -16 -19.666 -24 -42.999 -24c-6 0 -15.667 -0.333008 -29 -1s-23.666 -1 -30.999 -1c-51.333 0 -77 18 -77 54c0 60.667 0.333008 93.334 1 98.001c2.66699 18 12.667 28.667 30 32c8.66699 1.33301 42.334 2 101.001 2c35.333 0 53 -20 53 -60v-21
c-0.666992 -9.33301 -1 -16.666 -1 -21.999zM352.996 912.999c2 -28 3.00098 -51 3.00098 -69v-49c0 -32.667 -22.333 -49 -67 -49c-7.33301 0 -18.333 0.5 -33 1.5s-25 1.5 -31 1.5c-24 0 -40 5.33301 -48 16c-2 17.333 -3 36.333 -3 57v21c0 36.667 1.33301 58 4 64
c5.33301 17.333 21.666 26 48.999 26h69c32.667 -2 51.667 -8.66699 57 -20z" />
    <glyph glyph-name="Eth" unicode="&#xd0;" horiz-adv-x="734" 
d="M93 282h-17.9971c-24.667 0 -38 6 -40 18c-0.666992 4 -1 10.667 -1 20v64c0 26.667 20 39.667 60 39l2 244c0 8.66699 4 14.667 12 18c12 4 38.333 6 79 6c21.333 0 53.166 -1 95.499 -3s74.166 -3 95.499 -3c103.333 0 183.666 -33 240.999 -99
c53.333 -62.667 80 -146.667 80 -252c0 -99.333 -22.333 -179 -67 -239c-49.333 -66 -122 -102.667 -218 -110c-45.333 -3.33301 -124.333 -5 -237 -5c-35.333 0 -57 1 -65 3c-12.667 3.33301 -19 56.333 -19 159v140zM400.003 305c-2 -16 -15.334 -24.001 -40.001 -24.001
l-82 1v-123l3 -4c8 -1.33301 15.667 -2 23 -2c10 0 17 1.33301 21 4l7 -2c67.333 0 113.833 13.5 139.5 40.5s38.5 74.5 38.5 142.5c0 125.333 -59.333 188 -178 188c-5.33301 0 -13.666 -0.333008 -24.999 -1h-24l-5 -4v-101c18.667 0 54 -0.666992 106 -2
c10.667 -5.33301 16 -15 16 -29c0 -9.33301 -0.333008 -23.166 -1 -41.499s-1 -31.833 -1 -40.5z" />
    <glyph glyph-name="Ntilde" unicode="&#xd1;" horiz-adv-x="667" 
d="M445 318l3.99805 3.00098c0.666992 41.333 0.666992 95 0 161c-0.666992 85.333 -1 139.333 -1 162c0 29.333 19.333 44 58 44c6.66699 0 16.834 -0.333008 30.501 -1s23.834 -1 30.501 -1c17.333 0 28.333 -0.666992 33 -2c12 -2.66699 19 -9.33398 21 -20.001
c5.33301 -32 8 -73.333 8 -124c0 -25.333 -1 -62.833 -3 -112.5s-3 -84.834 -3 -105.501c0 -27.333 0.5 -68.333 1.5 -123s1.5 -96 1.5 -124c0 -45.333 -2.33301 -71.666 -7 -78.999c-7.33301 -10.667 -32.333 -16 -75 -16s-69.167 0.5 -79.5 1.5s-18.5 5.83301 -24.5 14.5
l-12 23l-135 225c-12.667 25.333 -34.334 61.666 -65.001 108.999l-5 -1c-0.666992 -40 -0.666992 -92 0 -156c0.666992 -84 1 -135.667 1 -155c0 -23.333 -1.33301 -38.666 -4 -45.999c-8.66699 -10 -25 -15 -49 -15c-49.333 0 -72.666 0 -69.999 0
c-34.667 2.66699 -52 10.667 -52 24c0 60 -0.5 149.833 -1.5 269.5s-1.5 209.5 -1.5 269.5c0 64 2 106 6 126c2 11.333 16 17 42 17l124 -1c8.66699 0 45.667 -55.667 111 -167zM277.998 902.001c18.667 0 40.334 -5.33301 65.001 -16l61 -26c4 4 6 11 6 21
c0.666992 8 4.66699 13.333 12 16c11.333 4.66699 34 7 68 7c29.333 0 44 -14.667 44 -44c0 -38.667 -10.333 -71.334 -31 -98.001c-22.667 -30 -53 -45 -91 -45c-18 0 -38.333 4.66699 -61 14c-18.667 9.33301 -37.667 18.333 -57 27l-5 -1c-8 -27.333 -21 -41 -39 -41
c-2.66699 0 -9 0.333008 -19 1s-18.667 1 -26 1c-17.333 0 -29 3.5 -35 10.5s-9 19.167 -9 36.5c0 38.667 9.66699 70.334 29 95.001c21.333 28 50.666 42 87.999 42z" />
    <glyph glyph-name="Ograve" unicode="&#xd2;" horiz-adv-x="733" 
d="M373 713c48.667 0 96 -10 142 -30l3 4l-3 -4c64 -30 112.333 -77.667 145 -143c30 -58.667 45 -126 45 -202c0 -100 -30.667 -185.333 -92 -256c-64 -74 -145 -111 -243 -111c-63.333 0 -124.333 17.333 -183 52l-3 5c-50 33.333 -88.333 77.666 -115 132.999
c-25.333 53.333 -38 111 -38 173c0 70 14.667 134.333 44 193c31.333 62.667 76.333 110.334 135 143.001v4l4 -1c46.667 26.667 99.667 40 159 40zM368 540c-46 0 -83.001 -22.001 -111.001 -66.001c-24 -38 -36 -81.333 -36 -130c0 -52 11.667 -96 35 -132
c27.333 -43.333 65.333 -65 114 -65c50.667 0 89.334 21.667 116.001 65c22 36 33 81.333 33 136c0 52.667 -11.667 96.334 -35 131.001c-27.333 40.667 -66 61 -116 61zM364.999 938.999c17.333 0 28 -3.49902 32 -10.499s14 -33.167 30 -78.5s24 -71 24 -77
c0 -14 -12 -22.333 -36 -25c-3.33301 -0.666992 -21 -1 -53 -1c-22 0 -35.833 0.833008 -41.5 2.5s-27.834 27.667 -66.501 78s-58 78.5 -58 84.5c0 13.333 4.66699 21.666 14 24.999c4.66699 1.33301 56.334 2 155.001 2z" />
    <glyph glyph-name="Oacute" unicode="&#xd3;" horiz-adv-x="733" 
d="M373 713c48.667 0 96 -10 142 -30l3 4l-3 -4c64 -30 112.333 -77.667 145 -143c30 -58.667 45 -126 45 -202c0 -100 -30.667 -185.333 -92 -256c-64 -74 -145 -111 -243 -111c-63.333 0 -124.333 17.333 -183 52l-3 5c-50 33.333 -88.333 77.666 -115 132.999
c-25.333 53.333 -38 111 -38 173c0 70 14.667 134.333 44 193c31.333 62.667 76.333 110.334 135 143.001v4l4 -1c46.667 26.667 99.667 40 159 40zM368 540c-46 0 -83.001 -22.001 -111.001 -66.001c-24 -38 -36 -81.333 -36 -130c0 -52 11.667 -96 35 -132
c27.333 -43.333 65.333 -65 114 -65c50.667 0 89.334 21.667 116.001 65c22 36 33 81.333 33 136c0 52.667 -11.667 96.334 -35 131.001c-27.333 40.667 -66 61 -116 61zM502.999 913.999l-3 -9.99902c-68.667 -89.333 -112 -139 -130 -149
c-6.66699 -0.666992 -19.667 -1.33398 -39 -2.00098c-16 -0.666992 -28.667 -1 -38 -1c-30 0 -45 8.33301 -45 25c0 10 8.66699 38 26 84c18 48.667 31 74.334 39 77.001c10.667 3.33301 34.667 5 72 5c48.667 0 71.667 0 69 0c32.667 -2.66699 49 -12.334 49 -29.001z" />
    <glyph glyph-name="Ocircumflex" unicode="&#xd4;" horiz-adv-x="733" 
d="M373 713c48.667 0 96 -10 142 -30l3 4l-3 -4c64 -30 112.333 -77.667 145 -143c30 -58.667 45 -126 45 -202c0 -100 -30.667 -185.333 -92 -256c-64 -74 -145 -111 -243 -111c-63.333 0 -124.333 17.333 -183 52l-3 5c-50 33.333 -88.333 77.666 -115 132.999
c-25.333 53.333 -38 111 -38 173c0 70 14.667 134.333 44 193c31.333 62.667 76.333 110.334 135 143.001v4l4 -1c46.667 26.667 99.667 40 159 40zM368 540c-46 0 -83.001 -22.001 -111.001 -66.001c-24 -38 -36 -81.333 -36 -130c0 -52 11.667 -96 35 -132
c27.333 -43.333 65.333 -65 114 -65c50.667 0 89.334 21.667 116.001 65c22 36 33 81.333 33 136c0 52.667 -11.667 96.334 -35 131.001c-27.333 40.667 -66 61 -116 61zM543.999 777.999c0 -15.333 -10.667 -23.334 -32 -24.001l-110 -1c-8.66699 0 -20 9.66699 -34 29
l-5 2l-19.5 -20.5c-6.33301 -6.33301 -15.5 -9.5 -27.5 -9.5c-13.333 0.666992 -30.666 0.666992 -51.999 0c-26 -0.666992 -43 -1 -51 -1c-18 0 -27 9.33301 -27 28c0 6.66699 20 33.667 60 81s63.167 71.833 69.5 73.5s24.5 2.5 54.5 2.5c33.333 0 52.666 -2 57.999 -6
c10 -7.33301 31.833 -32.666 65.5 -75.999s50.5 -69.333 50.5 -78z" />
    <glyph glyph-name="Otilde" unicode="&#xd5;" horiz-adv-x="733" 
d="M373 713c48.667 0 96 -10 142 -30l3 4l-3 -4c64 -30 112.333 -77.667 145 -143c30 -58.667 45 -126 45 -202c0 -100 -30.667 -185.333 -92 -256c-64 -74 -145 -111 -243 -111c-63.333 0 -124.333 17.333 -183 52l-3 5c-50 33.333 -88.333 77.666 -115 132.999
c-25.333 53.333 -38 111 -38 173c0 70 14.667 134.333 44 193c31.333 62.667 76.333 110.334 135 143.001v4l4 -1c46.667 26.667 99.667 40 159 40zM368 540c-46 0 -83.001 -22.001 -111.001 -66.001c-24 -38 -36 -81.333 -36 -130c0 -52 11.667 -96 35 -132
c27.333 -43.333 65.333 -65 114 -65c50.667 0 89.334 21.667 116.001 65c22 36 33 81.333 33 136c0 52.667 -11.667 96.334 -35 131.001c-27.333 40.667 -66 61 -116 61zM277.999 901.999c18.667 0 40.334 -5.33301 65.001 -16l61 -26c4 4 6 11 6 21
c0.666992 8 4.66699 13.333 12 16c11.333 4.66699 34 7 68 7c29.333 0 44 -14.667 44 -44c0 -38.667 -10.333 -71.334 -31 -98.001c-22.667 -30 -53 -45 -91 -45c-18 0 -38.333 4.66699 -61 14c-18.667 9.33301 -37.667 18.333 -57 27l-5 -1c-8 -27.333 -21 -41 -39 -41
c-2.66699 0 -9 0.333008 -19 1s-18.667 1 -26 1c-17.333 0 -29 3.5 -35 10.5s-9 19.167 -9 36.5c0 38.667 9.66699 70.334 29 95.001c21.333 28 50.666 42 87.999 42z" />
    <glyph glyph-name="Odieresis" unicode="&#xd6;" horiz-adv-x="733" 
d="M373 713c48.667 0 96 -10 142 -30l3 4l-3 -4c64 -30 112.333 -77.667 145 -143c30 -58.667 45 -126 45 -202c0 -100 -30.667 -185.333 -92 -256c-64 -74 -145 -111 -243 -111c-63.333 0 -124.333 17.333 -183 52l-3 5c-50 33.333 -88.333 77.666 -115 132.999
c-25.333 53.333 -38 111 -38 173c0 70 14.667 134.333 44 193c31.333 62.667 76.333 110.334 135 143.001v4l4 -1c46.667 26.667 99.667 40 159 40zM368 540c-46 0 -83.001 -22.001 -111.001 -66.001c-24 -38 -36 -81.333 -36 -130c0 -52 11.667 -96 35 -132
c27.333 -43.333 65.333 -65 114 -65c50.667 0 89.334 21.667 116.001 65c22 36 33 81.333 33 136c0 52.667 -11.667 96.334 -35 131.001c-27.333 40.667 -66 61 -116 61zM336.999 828.999c0 -31.333 -1.33594 -50.335 -4.00293 -57.002
c-5.33301 -16 -19.666 -24 -42.999 -24c-6 0 -15.667 -0.333008 -29 -1s-23.666 -1 -30.999 -1c-51.333 0 -77 18 -77 54c0 60.667 0.333008 93.334 1 98.001c2.66699 18 12.667 28.667 30 32c8.66699 1.33301 42.334 2 101.001 2c35.333 0 53 -20 53 -60v-21
c-0.666992 -9.33301 -1 -16.666 -1 -21.999zM559.996 912.997c2 -28 3.00098 -51 3.00098 -69v-49c0 -32.667 -22.333 -49 -67 -49c-7.33301 0 -18.333 0.5 -33 1.5s-25 1.5 -31 1.5c-24 0 -40 5.33301 -48 16c-2 17.333 -3 36.333 -3 57v21c0 36.667 1.33301 58 4 64
c5.33301 17.333 21.666 26 48.999 26h69c32.667 -2 51.667 -8.66699 57 -20z" />
    <glyph glyph-name="Oslash" unicode="&#xd8;" horiz-adv-x="733" 
d="M563 660c7.33301 -3.33301 20.999 -13.666 40.999 -30.999c5.33301 2.66699 15 10.667 29 24c12 12 22 18 30 18s23.833 -13 47.5 -39s35.5 -43 35.5 -51c0 -9.33301 -19.667 -29.666 -59 -60.999l-1 -5c21.333 -59.333 32 -121.333 32 -186
c0 -100.667 -29.333 -184.667 -88 -252c-61.333 -70.667 -141.666 -106 -240.999 -106c-84.667 0 -160.334 28 -227.001 84l-28 -26c-13.333 -12 -24 -18 -32 -18c-7.33301 0 -22.666 13 -45.999 39s-35 43 -35 51s8.66699 20 26 36l37 32
c-24 53.333 -36 110.666 -36 171.999c0 101.333 30 187.666 90 258.999c64 75.333 146 113 246 113c69.333 0 129 -17.667 179 -53zM382.999 545c-48 0 -86 -23.334 -114 -70.001c-24 -39.333 -36 -84.666 -36 -135.999c0 -11.333 0.666992 -23 2 -35l3 -1l234 206v5
c-24 20.667 -53.667 31 -89 31zM534.999 380.999l-237 -205.999c22 -22 51 -33 87 -33c54.667 0 95 23 121 69c20.667 36 31 83.333 31 142c0 11.333 -0.666992 20.666 -2 27.999z" />
    <glyph glyph-name="Ugrave" unicode="&#xd9;" horiz-adv-x="657" 
d="M615 672c2.66699 -160.667 3.99805 -281.334 3.99805 -362.001c0 -173.333 -36 -274 -108 -302l-6 -2c-41.333 -28.667 -99.666 -43 -174.999 -43c-86 0 -153 20 -201 60c-52 42.667 -79.333 106 -82 190s-4 210.667 -4 380c0 37.333 1 60.333 3 69
c2 13.333 9 21.666 21 24.999c8.66699 2 20.667 3 36 3c10.667 0.666992 25 0.666992 43 0c20 -0.666992 32.667 -1 38 -1c14.667 0 24.667 -0.666992 30 -2c11.333 -3.33301 18 -20.333 20 -51c0.666992 -6 1 -27 1 -63c0 -28 -0.833008 -70 -2.5 -126s-2.5 -98 -2.5 -126
c0 -107.333 15 -164.333 45 -171l3 3v-5c6.66699 -3.33301 15.834 -5.5 27.501 -6.5s19.834 -2.5 24.501 -4.5l5 3l6 -3c4 2 14.333 4.66699 31 8c14 2.66699 27.5 10.834 40.5 24.501s19.5 71.167 19.5 172.5c0 28 -0.833008 70.333 -2.5 127s-2.5 99.334 -2.5 128.001
c0 40 1 62.333 3 67c6 16 24.333 24 55 24c79.333 0 102.666 0.666992 69.999 2c33.333 -1.33301 53.333 -7.33301 60 -18zM352.998 939c17.333 0 28 -3.49902 32 -10.499s14 -33.167 30 -78.5s24 -71 24 -77c0 -14 -12 -22.333 -36 -25c-3.33301 -0.666992 -21 -1 -53 -1
c-22 0 -35.833 0.833008 -41.5 2.5s-27.834 27.667 -66.501 78s-58 78.5 -58 84.5c0 13.333 4.66699 21.666 14 24.999c4.66699 1.33301 56.334 2 155.001 2z" />
    <glyph glyph-name="Uacute" unicode="&#xda;" horiz-adv-x="657" 
d="M615 672c2.66699 -160.667 3.99805 -281.334 3.99805 -362.001c0 -173.333 -36 -274 -108 -302l-6 -2c-41.333 -28.667 -99.666 -43 -174.999 -43c-86 0 -153 20 -201 60c-52 42.667 -79.333 106 -82 190s-4 210.667 -4 380c0 37.333 1 60.333 3 69
c2 13.333 9 21.666 21 24.999c8.66699 2 20.667 3 36 3c10.667 0.666992 25 0.666992 43 0c20 -0.666992 32.667 -1 38 -1c14.667 0 24.667 -0.666992 30 -2c11.333 -3.33301 18 -20.333 20 -51c0.666992 -6 1 -27 1 -63c0 -28 -0.833008 -70 -2.5 -126s-2.5 -98 -2.5 -126
c0 -107.333 15 -164.333 45 -171l3 3v-5c6.66699 -3.33301 15.834 -5.5 27.501 -6.5s19.834 -2.5 24.501 -4.5l5 3l6 -3c4 2 14.333 4.66699 31 8c14 2.66699 27.5 10.834 40.5 24.501s19.5 71.167 19.5 172.5c0 28 -0.833008 70.333 -2.5 127s-2.5 99.334 -2.5 128.001
c0 40 1 62.333 3 67c6 16 24.333 24 55 24c79.333 0 102.666 0.666992 69.999 2c33.333 -1.33301 53.333 -7.33301 60 -18zM502.998 914l-3 -9.99902c-68.667 -89.333 -112 -139 -130 -149c-6.66699 -0.666992 -19.667 -1.33398 -39 -2.00098
c-16 -0.666992 -28.667 -1 -38 -1c-30 0 -45 8.33301 -45 25c0 10 8.66699 38 26 84c18 48.667 31 74.334 39 77.001c10.667 3.33301 34.667 5 72 5c48.667 0 71.667 0 69 0c32.667 -2.66699 49 -12.334 49 -29.001z" />
    <glyph glyph-name="Ucircumflex" unicode="&#xdb;" horiz-adv-x="657" 
d="M615 672c2.66699 -160.667 3.99805 -281.334 3.99805 -362.001c0 -173.333 -36 -274 -108 -302l-6 -2c-41.333 -28.667 -99.666 -43 -174.999 -43c-86 0 -153 20 -201 60c-52 42.667 -79.333 106 -82 190s-4 210.667 -4 380c0 37.333 1 60.333 3 69
c2 13.333 9 21.666 21 24.999c8.66699 2 20.667 3 36 3c10.667 0.666992 25 0.666992 43 0c20 -0.666992 32.667 -1 38 -1c14.667 0 24.667 -0.666992 30 -2c11.333 -3.33301 18 -20.333 20 -51c0.666992 -6 1 -27 1 -63c0 -28 -0.833008 -70 -2.5 -126s-2.5 -98 -2.5 -126
c0 -107.333 15 -164.333 45 -171l3 3v-5c6.66699 -3.33301 15.834 -5.5 27.501 -6.5s19.834 -2.5 24.501 -4.5l5 3l6 -3c4 2 14.333 4.66699 31 8c14 2.66699 27.5 10.834 40.5 24.501s19.5 71.167 19.5 172.5c0 28 -0.833008 70.333 -2.5 127s-2.5 99.334 -2.5 128.001
c0 40 1 62.333 3 67c6 16 24.333 24 55 24c79.333 0 102.666 0.666992 69.999 2c33.333 -1.33301 53.333 -7.33301 60 -18zM527.998 778c0 -15.333 -10.667 -23.334 -32 -24.001l-110 -1c-8.66699 0 -20 9.66699 -34 29l-5 2l-19.5 -20.5
c-6.33301 -6.33301 -15.5 -9.5 -27.5 -9.5c-13.333 0.666992 -30.666 0.666992 -51.999 0c-26 -0.666992 -43 -1 -51 -1c-18 0 -27 9.33301 -27 28c0 6.66699 20 33.667 60 81s63.167 71.833 69.5 73.5s24.5 2.5 54.5 2.5c33.333 0 52.666 -2 57.999 -6
c10 -7.33301 31.833 -32.666 65.5 -75.999s50.5 -69.333 50.5 -78z" />
    <glyph glyph-name="Udieresis" unicode="&#xdc;" horiz-adv-x="657" 
d="M615 672c2.66699 -160.667 3.99805 -281.334 3.99805 -362.001c0 -173.333 -36 -274 -108 -302l-6 -2c-41.333 -28.667 -99.666 -43 -174.999 -43c-86 0 -153 20 -201 60c-52 42.667 -79.333 106 -82 190s-4 210.667 -4 380c0 37.333 1 60.333 3 69
c2 13.333 9 21.666 21 24.999c8.66699 2 20.667 3 36 3c10.667 0.666992 25 0.666992 43 0c20 -0.666992 32.667 -1 38 -1c14.667 0 24.667 -0.666992 30 -2c11.333 -3.33301 18 -20.333 20 -51c0.666992 -6 1 -27 1 -63c0 -28 -0.833008 -70 -2.5 -126s-2.5 -98 -2.5 -126
c0 -107.333 15 -164.333 45 -171l3 3v-5c6.66699 -3.33301 15.834 -5.5 27.501 -6.5s19.834 -2.5 24.501 -4.5l5 3l6 -3c4 2 14.333 4.66699 31 8c14 2.66699 27.5 10.834 40.5 24.501s19.5 71.167 19.5 172.5c0 28 -0.833008 70.333 -2.5 127s-2.5 99.334 -2.5 128.001
c0 40 1 62.333 3 67c6 16 24.333 24 55 24c79.333 0 102.666 0.666992 69.999 2c33.333 -1.33301 53.333 -7.33301 60 -18zM306.998 829c0 -31.333 -1.33594 -50.335 -4.00293 -57.002c-5.33301 -16 -19.666 -24 -42.999 -24c-6 0 -15.667 -0.333008 -29 -1
s-23.666 -1 -30.999 -1c-51.333 0 -77 18 -77 54c0 60.667 0.333008 93.334 1 98.001c2.66699 18 12.667 28.667 30 32c8.66699 1.33301 42.334 2 101.001 2c35.333 0 53 -20 53 -60v-21c-0.666992 -9.33301 -1 -16.666 -1 -21.999zM529.995 912.998
c2 -28 3.00098 -51 3.00098 -69v-49c0 -32.667 -22.333 -49 -67 -49c-7.33301 0 -18.333 0.5 -33 1.5s-25 1.5 -31 1.5c-24 0 -40 5.33301 -48 16c-2 17.333 -3 36.333 -3 57v21c0 36.667 1.33301 58 4 64c5.33301 17.333 21.666 26 48.999 26h69
c32.667 -2 51.667 -8.66699 57 -20z" />
    <glyph glyph-name="Yacute" unicode="&#xdd;" horiz-adv-x="691" 
d="M278 -12l-23 15.002c-1.33301 10.667 -2.33301 83.334 -3 218.001l-1 48c-23.333 52.667 -61.333 117 -114 193c-3.33301 14.667 -24 50 -62 106c-36.667 53.333 -55 85.666 -55 96.999c0 6.66699 5.33301 16 16 28c80.667 -2 133.667 -2 159 0
c3.33301 -0.666992 8.66602 -2.33398 15.999 -5.00098c4 -2.66699 25.333 -38.667 64 -108l69 -125h4c1.33301 1.33301 25.333 44.333 72 129c38.667 70 62.667 105.667 72 107s58 2 146 2c20.667 0 31 -8.33301 31 -25c0 -10.667 -35 -72.334 -105 -185.001
c-78.667 -127.333 -121 -197 -127 -209v-207c0 -34 -3 -56.167 -9 -66.5s-17.333 -15.5 -34 -15.5c-4.66699 0 -15.167 0.666992 -31.5 2s-30.166 2 -41.499 2zM503 914.002l-3 -9.99902c-68.667 -89.333 -112 -139 -130 -149
c-6.66699 -0.666992 -19.667 -1.33398 -39 -2.00098c-16 -0.666992 -28.667 -1 -38 -1c-30 0 -45 8.33301 -45 25c0 10 8.66699 38 26 84c18 48.667 31 74.334 39 77.001c10.667 3.33301 34.667 5 72 5c48.667 0 71.667 0 69 0c32.667 -2.66699 49 -12.334 49 -29.001z" />
    <glyph glyph-name="Thorn" unicode="&#xde;" horiz-adv-x="613" 
d="M36 617l-1.99805 2.00098l2 4l-2 2l2 5l-2 2l2 4l-2 2l2 5l-2 1l2 5l-2 2l2 5l-2 1c0 15.333 10.667 24.333 32 27h49c10.667 0 23 0.333008 37 1s22.667 1 26 1c16 0 25.833 -4 29.5 -12s6.5 -28 8.5 -60l1 -12l3 -4c11.333 -1.33301 22.666 -2 33.999 -2
s22.666 0.666992 33.999 2l3 4l4 -4c59.333 -4 93.333 -6.66699 102 -8c30.667 -5.33301 62.334 -19 95.001 -41l5 3l-4 -5c54.667 -43.333 82 -104.333 82 -183c0 -50 -11.333 -94.667 -34 -134c-24.667 -42 -59 -73 -103 -93c-28.667 -13.333 -64 -21 -106 -23
c-36.667 -0.666992 -73.334 -1 -110.001 -1l-5 -4c0 7.33301 0 -20 0 -82c0 -25.333 -6.33301 -40.333 -19 -45c-4 -1.33301 -22.333 -2 -55 -2c-38 0 -59.667 0.333008 -65 1c-31.333 3.33301 -45.333 12.666 -42 27.999l-2 2l2 5l-2 1l2 5l-2 2l2 5l-2 1l2 5l-2 2l2 5
l-2 1l2 5l-2 2l2 4l-2 2l2 5l-2 2l2 4l-2 2l2 5l-2 1l2 5l-2 2l2 5l-2 1l2 5l-2 2l2 5l-2 1l2 5l-2 2l2 5l-2 1l2 5l-2 2l2 5l-2 1l2 5l-2 2l2 5l-2 1l2 5l-2 2l2 4l-2 2l2 5l-2 2l2 4l-2 2l2 5l-2 1l2 5l-2 2v10l2 4l-2 2l2 5l-2 2l2 4l-2 2l2 5l-2 1l2 5l-2 2l2 5l-2 1
l2 5l-2 2l2 5l-2 1l2 5l-2 2l2 5l-2 1l2 5l-2 2l2 5l-2 1l2 5l-2 2l2 5l-2 1l2 5l-2 2l2 4l-2 2l2 5l-2 2l2 4l-2 2l2 5l-2 1l2 5l-2 2l2 5l-2 1l2 5l-2 2l2 5l-2 1l2 5l-2 2l2 5l-2 1l2 5l-2 2l2 5l-2 1l2 5l-2 2l2 5l-2 1l2 5l-2 2l2 4l-2 2l2 5l-2 2l2 4l-2 2l2 5l-2 1
l2 5l-2 2l2 5l-2 1l2 5l-2 2l2 5l-2 1l2 5l-2 2l2 5l-2 1l2 5l-2 2l2 5l-2 1l2 5l-2 2l2 4l-2 2l2 5l-2 2l2 4l-2 2l2 5l-2 1l2 5l-2 2v10l2 5l-2 1l2 5l-2 2l2 4l-2 2l2 5l-2 2l2 4l-2 2l2 5l-2 1l2 5l-2 2l2 5l-2 1l2 5l-2 2l2 5l-2 1l2 5l-2 2l2 5l-2 1l2 5l-2 2l2 5
l-2 1c-0.666992 -0.666992 -1 2.66602 -1 9.99902c0 0.666992 1 3.33398 3 8.00098zM271.002 441.001l-51 -0.000976562l-3 -5c0 -10 -0.333008 -25.333 -1 -46v-46c0 -26 1 -48.667 3 -68l53 -1c38 -0.666992 66.333 3.33301 85 12c27.333 12.667 41 36.334 41 71.001
c0 36.667 -13.333 61 -40 73c-16 6.66699 -45 10 -87 10z" />
    <glyph glyph-name="agrave" unicode="&#xe0;" 
d="M185 -18l-144.999 0.000976562c-12 4 -18 12.333 -18 25c0 16 25 97.333 75 244c56 167.333 86.333 260.333 91 279l39 123c3.33301 9.33301 6 15.666 8 18.999c3.33301 6 8.66602 9.83301 15.999 11.5s23.333 2.5 48 2.5h75c20.667 0 32 -0.333008 34 -1
c14 -2 23.333 -7.33301 28 -16c8.66699 -18.667 46.667 -132.5 114 -341.5s101 -316.833 101 -323.5c0 -7.33301 -4.33301 -14.333 -13 -21c-28.667 -2.66699 -70 -4 -124 -4c-22 0 -37.333 5.33301 -46 16c-4.66699 6 -9 18.333 -13 37s-9.33301 32.667 -16 42h-209l-4 -3
l-14 -52c-7.33301 -24.667 -16.333 -37 -27 -37zM372.001 233.001l14 1l3 5c-10.667 42 -18.667 72 -24 90c-10 34 -20.333 63.333 -31 88l-5 3l-53 -180l3 -6c36 -2 67 -2.33301 93 -1zM340.001 939.001c17.333 0 28 -3.49902 32 -10.499s14 -33.167 30 -78.5
s24 -71 24 -77c0 -14 -12 -22.333 -36 -25c-3.33301 -0.666992 -21 -1 -53 -1c-22 0 -35.833 0.833008 -41.5 2.5s-27.834 27.667 -66.501 78s-58 78.5 -58 84.5c0 13.333 4.66699 21.666 14 24.999c4.66699 1.33301 56.334 2 155.001 2z" />
    <glyph glyph-name="aacute" unicode="&#xe1;" 
d="M185 -18l-144.999 0.000976562c-12 4 -18 12.333 -18 25c0 16 25 97.333 75 244c56 167.333 86.333 260.333 91 279l39 123c3.33301 9.33301 6 15.666 8 18.999c3.33301 6 8.66602 9.83301 15.999 11.5s23.333 2.5 48 2.5h75c20.667 0 32 -0.333008 34 -1
c14 -2 23.333 -7.33301 28 -16c8.66699 -18.667 46.667 -132.5 114 -341.5s101 -316.833 101 -323.5c0 -7.33301 -4.33301 -14.333 -13 -21c-28.667 -2.66699 -70 -4 -124 -4c-22 0 -37.333 5.33301 -46 16c-4.66699 6 -9 18.333 -13 37s-9.33301 32.667 -16 42h-209l-4 -3
l-14 -52c-7.33301 -24.667 -16.333 -37 -27 -37zM372.001 233.001l14 1l3 5c-10.667 42 -18.667 72 -24 90c-10 34 -20.333 63.333 -31 88l-5 3l-53 -180l3 -6c36 -2 67 -2.33301 93 -1zM503.001 914.001l-3 -9.99902c-68.667 -89.333 -112 -139 -130 -149
c-6.66699 -0.666992 -19.667 -1.33398 -39 -2.00098c-16 -0.666992 -28.667 -1 -38 -1c-30 0 -45 8.33301 -45 25c0 10 8.66699 38 26 84c18 48.667 31 74.334 39 77.001c10.667 3.33301 34.667 5 72 5c48.667 0 71.667 0 69 0c32.667 -2.66699 49 -12.334 49 -29.001z" />
    <glyph glyph-name="acircumflex" unicode="&#xe2;" 
d="M185 -18l-144.999 0.000976562c-12 4 -18 12.333 -18 25c0 16 25 97.333 75 244c56 167.333 86.333 260.333 91 279l39 123c3.33301 9.33301 6 15.666 8 18.999c3.33301 6 8.66602 9.83301 15.999 11.5s23.333 2.5 48 2.5h75c20.667 0 32 -0.333008 34 -1
c14 -2 23.333 -7.33301 28 -16c8.66699 -18.667 46.667 -132.5 114 -341.5s101 -316.833 101 -323.5c0 -7.33301 -4.33301 -14.333 -13 -21c-28.667 -2.66699 -70 -4 -124 -4c-22 0 -37.333 5.33301 -46 16c-4.66699 6 -9 18.333 -13 37s-9.33301 32.667 -16 42h-209l-4 -3
l-14 -52c-7.33301 -24.667 -16.333 -37 -27 -37zM372.001 233.001l14 1l3 5c-10.667 42 -18.667 72 -24 90c-10 34 -20.333 63.333 -31 88l-5 3l-53 -180l3 -6c36 -2 67 -2.33301 93 -1zM515.001 778.001c0 -15.333 -10.667 -23.334 -32 -24.001l-110 -1
c-8.66699 0 -20 9.66699 -34 29l-5 2l-19.5 -20.5c-6.33301 -6.33301 -15.5 -9.5 -27.5 -9.5c-13.333 0.666992 -30.666 0.666992 -51.999 0c-26 -0.666992 -43 -1 -51 -1c-18 0 -27 9.33301 -27 28c0 6.66699 20 33.667 60 81s63.167 71.833 69.5 73.5s24.5 2.5 54.5 2.5
c33.333 0 52.666 -2 57.999 -6c10 -7.33301 31.833 -32.666 65.5 -75.999s50.5 -69.333 50.5 -78z" />
    <glyph glyph-name="atilde" unicode="&#xe3;" 
d="M185 -18l-144.999 0.000976562c-12 4 -18 12.333 -18 25c0 16 25 97.333 75 244c56 167.333 86.333 260.333 91 279l39 123c3.33301 9.33301 6 15.666 8 18.999c3.33301 6 8.66602 9.83301 15.999 11.5s23.333 2.5 48 2.5h75c20.667 0 32 -0.333008 34 -1
c14 -2 23.333 -7.33301 28 -16c8.66699 -18.667 46.667 -132.5 114 -341.5s101 -316.833 101 -323.5c0 -7.33301 -4.33301 -14.333 -13 -21c-28.667 -2.66699 -70 -4 -124 -4c-22 0 -37.333 5.33301 -46 16c-4.66699 6 -9 18.333 -13 37s-9.33301 32.667 -16 42h-209l-4 -3
l-14 -52c-7.33301 -24.667 -16.333 -37 -27 -37zM372.001 233.001l14 1l3 5c-10.667 42 -18.667 72 -24 90c-10 34 -20.333 63.333 -31 88l-5 3l-53 -180l3 -6c36 -2 67 -2.33301 93 -1zM253.001 902.001c18.667 0 40.334 -5.33301 65.001 -16l61 -26c4 4 6 11 6 21
c0.666992 8 4.66699 13.333 12 16c11.333 4.66699 34 7 68 7c29.333 0 44 -14.667 44 -44c0 -38.667 -10.333 -71.334 -31 -98.001c-22.667 -30 -53 -45 -91 -45c-18 0 -38.333 4.66699 -61 14c-18.667 9.33301 -37.667 18.333 -57 27l-5 -1c-8 -27.333 -21 -41 -39 -41
c-2.66699 0 -9 0.333008 -19 1s-18.667 1 -26 1c-17.333 0 -29 3.5 -35 10.5s-9 19.167 -9 36.5c0 38.667 9.66699 70.334 29 95.001c21.333 28 50.666 42 87.999 42z" />
    <glyph glyph-name="adieresis" unicode="&#xe4;" 
d="M185 -18l-144.999 0.000976562c-12 4 -18 12.333 -18 25c0 16 25 97.333 75 244c56 167.333 86.333 260.333 91 279l39 123c3.33301 9.33301 6 15.666 8 18.999c3.33301 6 8.66602 9.83301 15.999 11.5s23.333 2.5 48 2.5h75c20.667 0 32 -0.333008 34 -1
c14 -2 23.333 -7.33301 28 -16c8.66699 -18.667 46.667 -132.5 114 -341.5s101 -316.833 101 -323.5c0 -7.33301 -4.33301 -14.333 -13 -21c-28.667 -2.66699 -70 -4 -124 -4c-22 0 -37.333 5.33301 -46 16c-4.66699 6 -9 18.333 -13 37s-9.33301 32.667 -16 42h-209l-4 -3
l-14 -52c-7.33301 -24.667 -16.333 -37 -27 -37zM372.001 233.001l14 1l3 5c-10.667 42 -18.667 72 -24 90c-10 34 -20.333 63.333 -31 88l-5 3l-53 -180l3 -6c36 -2 67 -2.33301 93 -1zM318.001 829.001c0 -31.333 -1.33594 -50.335 -4.00293 -57.002
c-5.33301 -16 -19.666 -24 -42.999 -24c-6 0 -15.667 -0.333008 -29 -1s-23.666 -1 -30.999 -1c-51.333 0 -77 18 -77 54c0 60.667 0.333008 93.334 1 98.001c2.66699 18 12.667 28.667 30 32c8.66699 1.33301 42.334 2 101.001 2c35.333 0 53 -20 53 -60v-21
c-0.666992 -9.33301 -1 -16.666 -1 -21.999zM540.998 912.999c2 -28 3.00098 -51 3.00098 -69v-49c0 -32.667 -22.333 -49 -67 -49c-7.33301 0 -18.333 0.5 -33 1.5s-25 1.5 -31 1.5c-24 0 -40 5.33301 -48 16c-2 17.333 -3 36.333 -3 57v21c0 36.667 1.33301 58 4 64
c5.33301 17.333 21.666 26 48.999 26h69c32.667 -2 51.667 -8.66699 57 -20z" />
    <glyph glyph-name="aring" unicode="&#xe5;" 
d="M185 -18l-144.999 0.000976562c-12 4 -18 12.333 -18 25c0 16 25 97.333 75 244c56 167.333 86.333 260.333 91 279l39 123c3.33301 9.33301 6 15.666 8 18.999c3.33301 6 8.66602 9.83301 15.999 11.5s23.333 2.5 48 2.5h75c20.667 0 32 -0.333008 34 -1
c14 -2 23.333 -7.33301 28 -16c8.66699 -18.667 46.667 -132.5 114 -341.5s101 -316.833 101 -323.5c0 -7.33301 -4.33301 -14.333 -13 -21c-28.667 -2.66699 -70 -4 -124 -4c-22 0 -37.333 5.33301 -46 16c-4.66699 6 -9 18.333 -13 37s-9.33301 32.667 -16 42h-209l-4 -3
l-14 -52c-7.33301 -24.667 -16.333 -37 -27 -37zM372.001 233.001l14 1l3 5c-10.667 42 -18.667 72 -24 90c-10 34 -20.333 63.333 -31 88l-5 3l-53 -180l3 -6c36 -2 67 -2.33301 93 -1zM325.001 859.001c-8.66699 0 -13 -5 -13 -15l2 -6l9 -4c9.33301 0 14 4.33301 14 13
l-2 9zM201.001 846.001c0 34.667 12.167 64.167 36.5 88.5s53.5 36.5 87.5 36.5s63.333 -12.167 88 -36.5s37 -53.833 37 -88.5c0 -34 -12.333 -63.167 -37 -87.5s-54 -36.5 -88 -36.5s-63.167 12.167 -87.5 36.5s-36.5 53.5 -36.5 87.5z" />
    <glyph glyph-name="ae" unicode="&#xe6;" horiz-adv-x="1034" 
d="M977 585c0 -8 -0.668945 -20.3311 -2.00195 -36.998c-3.33301 -13.333 -45 -20 -125 -20c-22.667 0 -56.834 0.666992 -102.501 2s-79.834 2 -102.501 2l-7 -3c-1.33301 -12 -2 -24.667 -2 -38l1 -33l3 -5c24 -0.666992 54.667 -0.666992 92 0
c52.667 0.666992 83.667 1 93 1c27.333 0 44 -1.33301 50 -4c14 -4.66699 21 -17.667 21 -39c0 -10 0.333008 -22.5 1 -37.5s1 -24.833 1 -29.5c0 -26 -5.66699 -42.667 -17 -50s-38.333 -11 -81 -11c-18 0 -44.833 0.666992 -80.5 2s-62.167 2 -79.5 2l-3 -4v-123l5 -3
c18.667 0 62.334 0.333008 131.001 1c53.333 0.666992 96.666 1 129.999 1c38.667 0 64.334 -1.16699 77.001 -3.5s18.334 -10.833 17.001 -25.5c1.33301 -24 1.33301 -59.667 0 -107l2 -2l-2 -4l2 -2c-2 -13.333 -8.33301 -22.333 -19 -27l-426 -1
c-7.33301 0 -17.166 -0.333008 -29.499 -1s-20.833 -1 -25.5 -1c-19.333 0 -32.666 4.66699 -39.999 14s-11 29.666 -11 60.999c0 12.667 1.66699 37.667 5 75c-30 1.33301 -60.333 2 -91 2c-30 0 -60 -0.666992 -90 -2c-6.66699 -16.667 -20 -43.334 -40 -80.001
c-23.333 -42.667 -38.666 -64.667 -45.999 -66c-16.667 -2.66699 -53.334 -4 -110.001 -4c-48.667 0 -73 9 -73 27c0 8 24.667 56.667 74 146c46 84 74.667 134.333 86 151c7.33301 10 16.666 25 27.999 45c10 25.333 39.167 81.833 87.5 169.5s78.833 139.5 91.5 155.5
c6.66699 8.66699 29.334 13 68.001 13l290 -1c18 0 41.667 0.333008 71 1c32 0.666992 55.667 1 71 1c7.33301 0 17 0.333008 29 1s20.667 1 26 1c18 0 31.333 -4 40 -12s12.667 -23.667 12 -47v-51zM450.998 468.002l-5 3l-82 -159c2.66699 -2.66699 14.334 -4 35.001 -4
c3.33301 0 19.666 0.333008 48.999 1l3 5v154z" />
    <glyph glyph-name="ccedilla" unicode="&#xe7;" horiz-adv-x="708" 
d="M674 197c0 -10.667 -8.16602 -31.667 -24.499 -63s-28.833 -49.666 -37.5 -54.999c-24.667 -38 -61 -67 -109 -87c-42 -17.333 -88 -26 -138 -26c-103.333 0 -186 36 -248 108c-60 68 -90 154.333 -90 259c0 60.667 7 111 21 151c15.333 45.333 43 87.333 83 126
c12 11.333 19 18.333 21 21c7.33301 8 12.666 16.333 15.999 25l4 -2c18 8.66699 38.667 21 62 37l5 -3l53 15v2c0 1.33301 0.333008 1.66602 1 0.999023l2 -3c26 4.66699 51.333 7 76 7c81.333 0 147 -22 197 -66l23 -19c8.66699 -8.66699 14 -16.667 16 -24
c12 -13.333 24.667 -33.333 38 -60c15.333 -29.333 23 -51 23 -65c0 -2.66699 -0.333008 -4.66699 -1 -6c-3.33301 -10 -13 -17.667 -29 -23l-39 -8l-47 -14c-22.667 -7.33301 -37.667 -11 -45 -11c-12 0 -21 11 -27 33c-8.66699 31.333 -17 52 -25 62
c-16 22 -42.333 33 -79 33c-51.333 0 -91.666 -21 -120.999 -63c-26 -36.667 -39 -81.667 -39 -135c0 -46.667 8.66699 -87 26 -121c20.667 -40.667 51.334 -66 92.001 -76l6 1c2 0 5.16699 -0.833008 9.5 -2.5s8.16602 -2.5 11.499 -2.5h15l4 5c1.33301 0 3 -0.333008 5 -1
c0 -1.33301 2 -2 6 -2c24.667 0 46.667 11.667 66 35c9.33301 10.667 22.666 32 39.999 64c12 23.333 21.667 35 29 35s29.333 -8 66 -24c33.333 -14.667 55.333 -25.5 66 -32.5s16 -15.5 16 -25.5zM294.001 -212c-14.667 0 -22.001 12.332 -22.001 36.999
c0 16.667 4 27.667 12 33c4 2.66699 12 4.33398 24 5.00098c9.33301 1.33301 14.333 4.66602 15 9.99902c-21.333 3.33301 -33.666 6 -36.999 8c-9.33301 4.66699 -14 14.667 -14 30c0 8.66699 -0.333008 19.334 -1 32.001s-1 21 -1 25c0 17.333 4 29.833 12 37.5
s24.667 11.5 50 11.5h59c24 0 38.667 -3.5 44 -10.5s8 -23.167 8 -48.5c0 -73.333 -6.66699 -119 -20 -137c-16.667 -22 -59.667 -33 -129 -33z" />
    <glyph glyph-name="egrave" unicode="&#xe8;" horiz-adv-x="618" 
d="M230 531c-6 0 -8.66602 -9.33496 -7.99902 -28.002v-44l3 -5l224 1c16 0 26.667 -5 32 -15c1.33301 -17.333 2 -45.666 2 -84.999c0 -24.667 -0.666992 -41 -2 -49c-2 -10 -9.66699 -16 -23 -18c-20.667 -4.66699 -54.334 -6.33398 -101.001 -5.00098
c-72 2 -106 3 -102 3h-28l-5 -3l-1 -39l1 -79l3 -5c35.333 -0.666992 81.666 -0.666992 138.999 0c70 1.33301 116.333 2 139 2c40 0 62.333 -1 67 -3c14 -6 21 -24.333 21 -55c0 -51.333 0.333008 -72.666 1 -63.999c-2 -33.333 -8.33301 -50 -19 -50h-517
c-8.66699 0 -13.667 5.33301 -15 16c-2.66699 18 -4 71.333 -4 160v218c-0.666992 96 -1 168.333 -1 217c0 41.333 2.16699 66.833 6.5 76.5s16.5 14.5 36.5 14.5c4 0 13.333 -0.333008 28 -1h38l407 -1c10.667 0 17.334 -14 20.001 -42c0 0.666992 0 -17.666 0 -54.999
c0 -28 -4.5 -46.333 -13.5 -55s-24.167 -13 -45.5 -13c-4.66699 0 -13.5 0.333008 -26.5 1s-23.5 1 -31.5 1c-24.667 0 -62 0.666992 -112 2s-87.667 2 -113 2zM340.001 938.998c17.333 0 28 -3.49902 32 -10.499s14 -33.167 30 -78.5s24 -71 24 -77
c0 -14 -12 -22.333 -36 -25c-3.33301 -0.666992 -21 -1 -53 -1c-22 0 -35.833 0.833008 -41.5 2.5s-27.834 27.667 -66.501 78s-58 78.5 -58 84.5c0 13.333 4.66699 21.666 14 24.999c4.66699 1.33301 56.334 2 155.001 2z" />
    <glyph glyph-name="eacute" unicode="&#xe9;" horiz-adv-x="618" 
d="M230 531c-6 0 -8.66602 -9.33496 -7.99902 -28.002v-44l3 -5l224 1c16 0 26.667 -5 32 -15c1.33301 -17.333 2 -45.666 2 -84.999c0 -24.667 -0.666992 -41 -2 -49c-2 -10 -9.66699 -16 -23 -18c-20.667 -4.66699 -54.334 -6.33398 -101.001 -5.00098
c-72 2 -106 3 -102 3h-28l-5 -3l-1 -39l1 -79l3 -5c35.333 -0.666992 81.666 -0.666992 138.999 0c70 1.33301 116.333 2 139 2c40 0 62.333 -1 67 -3c14 -6 21 -24.333 21 -55c0 -51.333 0.333008 -72.666 1 -63.999c-2 -33.333 -8.33301 -50 -19 -50h-517
c-8.66699 0 -13.667 5.33301 -15 16c-2.66699 18 -4 71.333 -4 160v218c-0.666992 96 -1 168.333 -1 217c0 41.333 2.16699 66.833 6.5 76.5s16.5 14.5 36.5 14.5c4 0 13.333 -0.333008 28 -1h38l407 -1c10.667 0 17.334 -14 20.001 -42c0 0.666992 0 -17.666 0 -54.999
c0 -28 -4.5 -46.333 -13.5 -55s-24.167 -13 -45.5 -13c-4.66699 0 -13.5 0.333008 -26.5 1s-23.5 1 -31.5 1c-24.667 0 -62 0.666992 -112 2s-87.667 2 -113 2zM490.001 913.998l-3 -9.99902c-68.667 -89.333 -112 -139 -130 -149
c-6.66699 -0.666992 -19.667 -1.33398 -39 -2.00098c-16 -0.666992 -28.667 -1 -38 -1c-30 0 -45 8.33301 -45 25c0 10 8.66699 38 26 84c18 48.667 31 74.334 39 77.001c10.667 3.33301 34.667 5 72 5c48.667 0 71.667 0 69 0c32.667 -2.66699 49 -12.334 49 -29.001z" />
    <glyph glyph-name="ecircumflex" unicode="&#xea;" horiz-adv-x="618" 
d="M230 531c-6 0 -8.66602 -9.33496 -7.99902 -28.002v-44l3 -5l224 1c16 0 26.667 -5 32 -15c1.33301 -17.333 2 -45.666 2 -84.999c0 -24.667 -0.666992 -41 -2 -49c-2 -10 -9.66699 -16 -23 -18c-20.667 -4.66699 -54.334 -6.33398 -101.001 -5.00098
c-72 2 -106 3 -102 3h-28l-5 -3l-1 -39l1 -79l3 -5c35.333 -0.666992 81.666 -0.666992 138.999 0c70 1.33301 116.333 2 139 2c40 0 62.333 -1 67 -3c14 -6 21 -24.333 21 -55c0 -51.333 0.333008 -72.666 1 -63.999c-2 -33.333 -8.33301 -50 -19 -50h-517
c-8.66699 0 -13.667 5.33301 -15 16c-2.66699 18 -4 71.333 -4 160v218c-0.666992 96 -1 168.333 -1 217c0 41.333 2.16699 66.833 6.5 76.5s16.5 14.5 36.5 14.5c4 0 13.333 -0.333008 28 -1h38l407 -1c10.667 0 17.334 -14 20.001 -42c0 0.666992 0 -17.666 0 -54.999
c0 -28 -4.5 -46.333 -13.5 -55s-24.167 -13 -45.5 -13c-4.66699 0 -13.5 0.333008 -26.5 1s-23.5 1 -31.5 1c-24.667 0 -62 0.666992 -112 2s-87.667 2 -113 2zM492.001 777.998c0 -15.333 -10.667 -23.334 -32 -24.001l-110 -1c-8.66699 0 -20 9.66699 -34 29l-5 2
l-19.5 -20.5c-6.33301 -6.33301 -15.5 -9.5 -27.5 -9.5c-13.333 0.666992 -30.666 0.666992 -51.999 0c-26 -0.666992 -43 -1 -51 -1c-18 0 -27 9.33301 -27 28c0 6.66699 20 33.667 60 81s63.167 71.833 69.5 73.5s24.5 2.5 54.5 2.5c33.333 0 52.666 -2 57.999 -6
c10 -7.33301 31.833 -32.666 65.5 -75.999s50.5 -69.333 50.5 -78z" />
    <glyph glyph-name="edieresis" unicode="&#xeb;" horiz-adv-x="618" 
d="M230 531c-6 0 -8.66602 -9.33496 -7.99902 -28.002v-44l3 -5l224 1c16 0 26.667 -5 32 -15c1.33301 -17.333 2 -45.666 2 -84.999c0 -24.667 -0.666992 -41 -2 -49c-2 -10 -9.66699 -16 -23 -18c-20.667 -4.66699 -54.334 -6.33398 -101.001 -5.00098
c-72 2 -106 3 -102 3h-28l-5 -3l-1 -39l1 -79l3 -5c35.333 -0.666992 81.666 -0.666992 138.999 0c70 1.33301 116.333 2 139 2c40 0 62.333 -1 67 -3c14 -6 21 -24.333 21 -55c0 -51.333 0.333008 -72.666 1 -63.999c-2 -33.333 -8.33301 -50 -19 -50h-517
c-8.66699 0 -13.667 5.33301 -15 16c-2.66699 18 -4 71.333 -4 160v218c-0.666992 96 -1 168.333 -1 217c0 41.333 2.16699 66.833 6.5 76.5s16.5 14.5 36.5 14.5c4 0 13.333 -0.333008 28 -1h38l407 -1c10.667 0 17.334 -14 20.001 -42c0 0.666992 0 -17.666 0 -54.999
c0 -28 -4.5 -46.333 -13.5 -55s-24.167 -13 -45.5 -13c-4.66699 0 -13.5 0.333008 -26.5 1s-23.5 1 -31.5 1c-24.667 0 -62 0.666992 -112 2s-87.667 2 -113 2zM284.001 828.998c0 -31.333 -1.33594 -50.335 -4.00293 -57.002c-5.33301 -16 -19.666 -24 -42.999 -24
c-6 0 -15.667 -0.333008 -29 -1s-23.666 -1 -30.999 -1c-51.333 0 -77 18 -77 54c0 60.667 0.333008 93.334 1 98.001c2.66699 18 12.667 28.667 30 32c8.66699 1.33301 42.334 2 101.001 2c35.333 0 53 -20 53 -60v-21c-0.666992 -9.33301 -1 -16.666 -1 -21.999z
M506.998 912.996c2 -28 3.00098 -51 3.00098 -69v-49c0 -32.667 -22.333 -49 -67 -49c-7.33301 0 -18.333 0.5 -33 1.5s-25 1.5 -31 1.5c-24 0 -40 5.33301 -48 16c-2 17.333 -3 36.333 -3 57v21c0 36.667 1.33301 58 4 64c5.33301 17.333 21.666 26 48.999 26h69
c32.667 -2 51.667 -8.66699 57 -20z" />
    <glyph glyph-name="igrave" unicode="&#xec;" horiz-adv-x="292" 
d="M241 45c0 -30 -1.66797 -47.332 -5.00098 -51.999c-5.33301 -8 -21 -12 -47 -12h-86c-11.333 0 -21 0.666992 -29 2c-11.333 2.66699 -18 22 -20 58c0 -1.33301 0 22 0 70c0 29.333 0.333008 73.333 1 132s1 103 1 133c0 18.667 -0.666992 48.167 -2 88.5
s-2 70.833 -2 91.5c0 41.333 2 77.333 6 108c0.666992 5.33301 3.33398 10 8.00098 14l2 5c49.333 2 90 3 122 3c28 0 44.333 -8 49 -24c2 -4.66699 3 -27.334 3 -68.001zM164.999 939.001c17.333 0 28 -3.49902 32 -10.499s14 -33.167 30 -78.5s24 -71 24 -77
c0 -14 -12 -22.333 -36 -25c-3.33301 -0.666992 -21 -1 -53 -1c-22 0 -35.833 0.833008 -41.5 2.5s-27.834 27.667 -66.501 78s-58 78.5 -58 84.5c0 13.333 4.66699 21.666 14 24.999c4.66699 1.33301 56.334 2 155.001 2z" />
    <glyph glyph-name="iacute" unicode="&#xed;" horiz-adv-x="292" 
d="M241 45c0 -30 -1.66797 -47.332 -5.00098 -51.999c-5.33301 -8 -21 -12 -47 -12h-86c-11.333 0 -21 0.666992 -29 2c-11.333 2.66699 -18 22 -20 58c0 -1.33301 0 22 0 70c0 29.333 0.333008 73.333 1 132s1 103 1 133c0 18.667 -0.666992 48.167 -2 88.5
s-2 70.833 -2 91.5c0 41.333 2 77.333 6 108c0.666992 5.33301 3.33398 10 8.00098 14l2 5c49.333 2 90 3 122 3c28 0 44.333 -8 49 -24c2 -4.66699 3 -27.334 3 -68.001zM289.999 914.001l-3 -9.99902c-68.667 -89.333 -112 -139 -130 -149
c-6.66699 -0.666992 -19.667 -1.33398 -39 -2.00098c-16 -0.666992 -28.667 -1 -38 -1c-30 0 -45 8.33301 -45 25c0 10 8.66699 38 26 84c18 48.667 31 74.334 39 77.001c10.667 3.33301 34.667 5 72 5c48.667 0 71.667 0 69 0c32.667 -2.66699 49 -12.334 49 -29.001z" />
    <glyph glyph-name="icircumflex" unicode="&#xee;" horiz-adv-x="292" 
d="M241 45c0 -30 -1.66797 -47.332 -5.00098 -51.999c-5.33301 -8 -21 -12 -47 -12h-86c-11.333 0 -21 0.666992 -29 2c-11.333 2.66699 -18 22 -20 58c0 -1.33301 0 22 0 70c0 29.333 0.333008 73.333 1 132s1 103 1 133c0 18.667 -0.666992 48.167 -2 88.5
s-2 70.833 -2 91.5c0 41.333 2 77.333 6 108c0.666992 5.33301 3.33398 10 8.00098 14l2 5c49.333 2 90 3 122 3c28 0 44.333 -8 49 -24c2 -4.66699 3 -27.334 3 -68.001zM320.999 778.001c0 -15.333 -10.667 -23.334 -32 -24.001l-110 -1c-8.66699 0 -20 9.66699 -34 29
l-5 2l-19.5 -20.5c-6.33301 -6.33301 -15.5 -9.5 -27.5 -9.5c-13.333 0.666992 -30.666 0.666992 -51.999 0c-26 -0.666992 -43 -1 -51 -1c-18 0 -27 9.33301 -27 28c0 6.66699 20 33.667 60 81s63.167 71.833 69.5 73.5s24.5 2.5 54.5 2.5c33.333 0 52.666 -2 57.999 -6
c10 -7.33301 31.833 -32.666 65.5 -75.999s50.5 -69.333 50.5 -78z" />
    </font>
</defs>
</svg>
